<?xml version="1.0" encoding="UTF-8"?>
<svg xmlns="http://www.w3.org/2000/svg" xmlns:xlink="http://www.w3.org/1999/xlink" width="463.05pt" height="357.79pt" viewBox="0 0 463.05 357.79" version="1.1">
<defs>
<clipPath id="clip1">
  <path d="M 3 331 L 12 331 L 12 357.789063 L 3 357.789063 Z M 3 331 "/>
</clipPath>
<clipPath id="clip2">
  <path d="M 17 331 L 32 331 L 32 357.789063 L 17 357.789063 Z M 17 331 "/>
</clipPath>
<clipPath id="clip3">
  <path d="M 36 331 L 56 331 L 56 357.789063 L 36 357.789063 Z M 36 331 "/>
</clipPath>
<clipPath id="clip4">
  <path d="M 60 331 L 80 331 L 80 357.789063 L 60 357.789063 Z M 60 331 "/>
</clipPath>
<clipPath id="clip5">
  <path d="M 83 331 L 104 331 L 104 357.789063 L 83 357.789063 Z M 83 331 "/>
</clipPath>
<clipPath id="clip6">
  <path d="M 107 331 L 127 331 L 127 357.789063 L 107 357.789063 Z M 107 331 "/>
</clipPath>
<clipPath id="clip7">
  <path d="M 139 331 L 154 331 L 154 357.789063 L 139 357.789063 Z M 139 331 "/>
</clipPath>
<clipPath id="clip8">
  <path d="M 155 330 L 177 330 L 177 357.789063 L 155 357.789063 Z M 155 330 "/>
</clipPath>
<clipPath id="clip9">
  <path d="M 181 330 L 203 330 L 203 357.789063 L 181 357.789063 Z M 181 330 "/>
</clipPath>
<clipPath id="clip10">
  <path d="M 208 331 L 228 331 L 228 357.789063 L 208 357.789063 Z M 208 331 "/>
</clipPath>
<clipPath id="clip11">
  <path d="M 239 331 L 254 331 L 254 357.789063 L 239 357.789063 Z M 239 331 "/>
</clipPath>
<clipPath id="clip12">
  <path d="M 256 331 L 272 331 L 272 357.789063 L 256 357.789063 Z M 256 331 "/>
</clipPath>
<clipPath id="clip13">
  <path d="M 274 330 L 290 330 L 290 357.789063 L 274 357.789063 Z M 274 330 "/>
</clipPath>
<clipPath id="clip14">
  <path d="M 292 331 L 309 331 L 309 357.789063 L 292 357.789063 Z M 292 331 "/>
</clipPath>
<clipPath id="clip15">
  <path d="M 313 331 L 316 331 L 316 357.789063 L 313 357.789063 Z M 313 331 "/>
</clipPath>
<clipPath id="clip16">
  <path d="M 319 331 L 341 331 L 341 357.789063 L 319 357.789063 Z M 319 331 "/>
</clipPath>
<clipPath id="clip17">
  <path d="M 342 331 L 364 331 L 364 357.789063 L 342 357.789063 Z M 342 331 "/>
</clipPath>
<clipPath id="clip18">
  <path d="M 367 331 L 381 331 L 381 357.789063 L 367 357.789063 Z M 367 331 "/>
</clipPath>
<clipPath id="clip19">
  <path d="M 154 179 L 463.050781 179 L 463.050781 257 L 154 257 Z M 154 179 "/>
</clipPath>
</defs>
<g id="surface1">
<path style="fill-rule:nonzero;fill:rgb(0%,67.799377%,93.699646%);fill-opacity:1;stroke-width:31.67;stroke-linecap:butt;stroke-linejoin:miter;stroke:rgb(13.299561%,11.799622%,12.199402%);stroke-opacity:1;stroke-miterlimit:10;" d="M 3480 1668.642187 C 3480 1623.36875 3443.320313 1586.689062 3398.125 1586.689062 C 3352.8125 1586.689062 3316.171875 1623.36875 3316.171875 1668.642187 C 3316.171875 1713.954687 3352.8125 1750.595312 3398.125 1750.595312 C 3443.320313 1750.595312 3480 1713.954687 3480 1668.642187 " transform="matrix(0.1,0,0,-0.1,0,357.79)"/>
<path style="fill-rule:nonzero;fill:rgb(52.49939%,19.198608%,54.499817%);fill-opacity:1;stroke-width:31.67;stroke-linecap:butt;stroke-linejoin:miter;stroke:rgb(13.299561%,11.799622%,12.199402%);stroke-opacity:1;stroke-miterlimit:10;" d="M 435.390625 3077.157812 C 435.390625 3031.923437 398.59375 2995.165625 353.4375 2995.165625 C 308.203125 2995.165625 271.484375 3031.923437 271.484375 3077.157812 C 271.484375 3122.392187 308.203125 3159.110937 353.4375 3159.110937 C 398.59375 3159.110937 435.390625 3122.392187 435.390625 3077.157812 " transform="matrix(0.1,0,0,-0.1,0,357.79)"/>
<path style="fill-rule:nonzero;fill:rgb(69.799805%,82.398987%,20.399475%);fill-opacity:1;stroke-width:31.67;stroke-linecap:butt;stroke-linejoin:miter;stroke:rgb(13.299561%,11.799622%,12.199402%);stroke-opacity:1;stroke-miterlimit:10;" d="M 1521.210938 2858.798437 C 1521.210938 2813.603125 1484.609375 2776.845312 1439.335938 2776.845312 C 1394.140625 2776.845312 1357.460938 2813.603125 1357.460938 2858.798437 C 1357.460938 2904.071875 1394.140625 2940.751562 1439.335938 2940.751562 C 1484.609375 2940.751562 1521.210938 2904.071875 1521.210938 2858.798437 " transform="matrix(0.1,0,0,-0.1,0,357.79)"/>
<path style=" stroke:none;fill-rule:nonzero;fill:rgb(97.599792%,62.69989%,10.198975%);fill-opacity:1;" d="M 25.9375 106.101563 C 22.207031 106.101563 19.066406 108.609375 18.078125 112.023438 C 17.09375 108.609375 13.941406 106.101563 10.210938 106.101563 C 5.679688 106.101563 2.015625 109.773438 2.015625 114.296875 C 2.015625 118.820313 5.679688 122.496094 10.210938 122.496094 C 13.941406 122.496094 17.09375 119.988281 18.078125 116.574219 C 19.066406 119.988281 22.207031 122.496094 25.9375 122.496094 C 30.46875 122.496094 34.140625 118.820313 34.140625 114.296875 C 34.140625 109.773438 30.46875 106.101563 25.9375 106.101563 "/>
<path style="fill:none;stroke-width:31.67;stroke-linecap:butt;stroke-linejoin:miter;stroke:rgb(13.299561%,11.799622%,12.199402%);stroke-opacity:1;stroke-miterlimit:10;" d="M 259.375 2516.884375 C 222.070313 2516.884375 190.664063 2491.80625 180.78125 2457.665625 C 170.9375 2491.80625 139.414063 2516.884375 102.109375 2516.884375 C 56.796875 2516.884375 20.15625 2480.165625 20.15625 2434.93125 C 20.15625 2389.696875 56.796875 2352.939062 102.109375 2352.939062 C 139.414063 2352.939062 170.9375 2378.017187 180.78125 2412.157812 C 190.664063 2378.017187 222.070313 2352.939062 259.375 2352.939062 C 304.6875 2352.939062 341.40625 2389.696875 341.40625 2434.93125 C 341.40625 2480.165625 304.6875 2516.884375 259.375 2516.884375 Z M 259.375 2516.884375 " transform="matrix(0.1,0,0,-0.1,0,357.79)"/>
<path style=" stroke:none;fill-rule:nonzero;fill:rgb(92.498779%,0%,54.499817%);fill-opacity:1;" d="M 53.410156 237.863281 C 49.679688 237.863281 46.527344 240.367188 45.542969 243.785156 C 44.554688 240.367188 41.40625 237.863281 37.679688 237.863281 C 33.140625 237.863281 29.480469 241.53125 29.480469 246.054688 C 29.480469 250.585938 33.140625 254.261719 37.679688 254.261719 C 41.40625 254.261719 44.554688 251.757813 45.542969 248.332031 C 46.527344 251.757813 49.679688 254.261719 53.410156 254.261719 C 57.933594 254.261719 61.601563 250.585938 61.601563 246.054688 C 61.601563 241.53125 57.933594 237.863281 53.410156 237.863281 "/>
<path style="fill:none;stroke-width:31.67;stroke-linecap:butt;stroke-linejoin:miter;stroke:rgb(13.299561%,11.799622%,12.199402%);stroke-opacity:1;stroke-miterlimit:10;" d="M 534.101563 1199.267187 C 496.796875 1199.267187 465.273438 1174.228125 455.429688 1140.048437 C 445.546875 1174.228125 414.0625 1199.267187 376.796875 1199.267187 C 331.40625 1199.267187 294.804688 1162.5875 294.804688 1117.353125 C 294.804688 1072.040625 331.40625 1035.282812 376.796875 1035.282812 C 414.0625 1035.282812 445.546875 1060.321875 455.429688 1094.579687 C 465.273438 1060.321875 496.796875 1035.282812 534.101563 1035.282812 C 579.335938 1035.282812 616.015625 1072.040625 616.015625 1117.353125 C 616.015625 1162.5875 579.335938 1199.267187 534.101563 1199.267187 Z M 534.101563 1199.267187 " transform="matrix(0.1,0,0,-0.1,0,357.79)"/>
<g clip-path="url(#clip1)" clip-rule="nonzero">
<path style=" stroke:none;fill-rule:nonzero;fill:rgb(13.299561%,11.799622%,12.199402%);fill-opacity:1;" d="M 11.097656 351.171875 C 11.097656 357.230469 9.472656 357.734375 6.386719 357.734375 C 5.601563 357.734375 4.085938 357.566406 3.359375 357.394531 L 3.019531 355.660156 C 4.199219 356.050781 5.488281 356.164063 6.386719 356.164063 C 8.179688 356.164063 9.132813 355.9375 9.132813 351.734375 L 9.132813 332.949219 L 4.367188 332.949219 L 4.929688 331.207031 L 11.097656 331.207031 "/>
</g>
<g clip-path="url(#clip2)" clip-rule="nonzero">
<path style=" stroke:none;fill-rule:nonzero;fill:rgb(13.299561%,11.799622%,12.199402%);fill-opacity:1;" d="M 31.339844 357.398438 L 17.265625 357.398438 L 17.265625 331.210938 L 31.621094 331.210938 L 31.339844 332.945313 L 19.226563 332.945313 L 19.226563 343.492188 L 30.160156 343.492188 L 29.882813 345.175781 L 19.226563 345.175781 L 19.226563 355.660156 L 31.621094 355.660156 "/>
</g>
<g clip-path="url(#clip3)" clip-rule="nonzero">
<path style=" stroke:none;fill-rule:nonzero;fill:rgb(13.299561%,11.799622%,12.199402%);fill-opacity:1;" d="M 45.414063 332.949219 L 38.574219 332.949219 L 38.574219 355.71875 L 45.414063 355.71875 C 47.828125 355.71875 53.378906 354.59375 53.378906 344.328125 C 53.378906 334.066406 47.769531 332.949219 45.414063 332.949219 M 45.136719 357.398438 L 36.613281 357.398438 L 36.613281 331.207031 L 45.078125 331.207031 C 52.199219 331.207031 55.398438 336.03125 55.398438 344.328125 C 55.398438 354.199219 50.574219 357.398438 45.136719 357.398438 "/>
</g>
<g clip-path="url(#clip4)" clip-rule="nonzero">
<path style=" stroke:none;fill-rule:nonzero;fill:rgb(13.299561%,11.799622%,12.199402%);fill-opacity:1;" d="M 69.753906 332.949219 L 62.910156 332.949219 L 62.910156 355.71875 L 69.753906 355.71875 C 72.164063 355.71875 77.714844 354.59375 77.714844 344.328125 C 77.714844 334.066406 72.105469 332.949219 69.753906 332.949219 M 69.472656 357.398438 L 60.949219 357.398438 L 60.949219 331.207031 L 69.414063 331.207031 C 76.535156 331.207031 79.734375 336.03125 79.734375 344.328125 C 79.734375 354.199219 74.910156 357.398438 69.472656 357.398438 "/>
</g>
<g clip-path="url(#clip5)" clip-rule="nonzero">
<path style=" stroke:none;fill-rule:nonzero;fill:rgb(13.299561%,11.799622%,12.199402%);fill-opacity:1;" d="M 93.476563 334.011719 L 88.089844 348.984375 L 98.746094 348.984375 Z M 101.71875 357.398438 L 99.363281 350.667969 L 87.53125 350.667969 L 85.117188 357.398438 L 83.101563 357.398438 L 92.410156 331.207031 L 94.539063 331.207031 L 103.789063 357.398438 "/>
</g>
<g clip-path="url(#clip6)" clip-rule="nonzero">
<path style=" stroke:none;fill-rule:nonzero;fill:rgb(13.299561%,11.799622%,12.199402%);fill-opacity:1;" d="M 124.035156 357.398438 L 124.035156 345.175781 L 109.851563 345.175781 L 109.851563 357.398438 L 107.886719 357.398438 L 107.886719 331.210938 L 109.851563 331.210938 L 109.851563 343.492188 L 124.035156 343.492188 L 124.035156 331.210938 L 126.003906 331.210938 L 126.003906 357.398438 "/>
</g>
<g clip-path="url(#clip7)" clip-rule="nonzero">
<path style=" stroke:none;fill-rule:nonzero;fill:rgb(13.299561%,11.799622%,12.199402%);fill-opacity:1;" d="M 152.800781 332.949219 L 141.308594 332.949219 L 141.308594 343.488281 L 151.683594 343.488281 L 151.34375 345.171875 L 141.308594 345.171875 L 141.308594 357.398438 L 139.34375 357.398438 L 139.34375 331.207031 L 153.140625 331.207031 "/>
</g>
<g clip-path="url(#clip8)" clip-rule="nonzero">
<path style=" stroke:none;fill-rule:nonzero;fill:rgb(13.299561%,11.799622%,12.199402%);fill-opacity:1;" d="M 166.433594 332.496094 C 162.730469 332.496094 157.960938 334.796875 157.960938 344.328125 C 157.960938 353.867188 162.730469 356.054688 166.433594 356.054688 C 170.128906 356.054688 174.898438 353.867188 174.898438 344.328125 C 174.898438 334.796875 170.128906 332.496094 166.433594 332.496094 M 166.433594 357.789063 C 161.328125 357.789063 155.886719 354.648438 155.886719 344.328125 C 155.886719 333.902344 161.328125 330.761719 166.433594 330.761719 C 171.535156 330.761719 176.917969 333.902344 176.917969 344.328125 C 176.917969 354.648438 171.535156 357.789063 166.433594 357.789063 "/>
</g>
<g clip-path="url(#clip9)" clip-rule="nonzero">
<path style=" stroke:none;fill-rule:nonzero;fill:rgb(13.299561%,11.799622%,12.199402%);fill-opacity:1;" d="M 192.285156 332.496094 C 188.585938 332.496094 183.816406 334.796875 183.816406 344.328125 C 183.816406 353.867188 188.585938 356.054688 192.285156 356.054688 C 195.984375 356.054688 200.753906 353.867188 200.753906 344.328125 C 200.753906 334.796875 195.984375 332.496094 192.285156 332.496094 M 192.285156 357.789063 C 187.183594 357.789063 181.742188 354.648438 181.742188 344.328125 C 181.742188 333.902344 187.183594 330.761719 192.285156 330.761719 C 197.386719 330.761719 202.773438 333.902344 202.773438 344.328125 C 202.773438 354.648438 197.386719 357.789063 192.285156 357.789063 "/>
</g>
<g clip-path="url(#clip10)" clip-rule="nonzero">
<path style=" stroke:none;fill-rule:nonzero;fill:rgb(13.299561%,11.799622%,12.199402%);fill-opacity:1;" d="M 217.125 332.949219 L 210.28125 332.949219 L 210.28125 355.71875 L 217.125 355.71875 C 219.535156 355.71875 225.089844 354.59375 225.089844 344.328125 C 225.089844 334.066406 219.480469 332.949219 217.125 332.949219 M 216.847656 357.398438 L 208.320313 357.398438 L 208.320313 331.207031 L 216.789063 331.207031 C 223.910156 331.207031 227.109375 336.03125 227.109375 344.328125 C 227.109375 354.199219 222.285156 357.398438 216.847656 357.398438 "/>
</g>
<g clip-path="url(#clip11)" clip-rule="nonzero">
<path style=" stroke:none;fill-rule:nonzero;fill:rgb(13.299561%,11.799622%,12.199402%);fill-opacity:1;" d="M 253.183594 332.949219 L 241.6875 332.949219 L 241.6875 343.488281 L 252.0625 343.488281 L 251.726563 345.171875 L 241.6875 345.171875 L 241.6875 357.398438 L 239.726563 357.398438 L 239.726563 331.207031 L 253.519531 331.207031 "/>
</g>
<g clip-path="url(#clip12)" clip-rule="nonzero">
<path style=" stroke:none;fill-rule:nonzero;fill:rgb(13.299561%,11.799622%,12.199402%);fill-opacity:1;" d="M 270.847656 357.398438 L 256.773438 357.398438 L 256.773438 331.210938 L 271.128906 331.210938 L 270.847656 332.945313 L 258.738281 332.945313 L 258.738281 343.492188 L 269.671875 343.492188 L 269.390625 345.175781 L 258.738281 345.175781 L 258.738281 355.660156 L 271.128906 355.660156 "/>
</g>
<g clip-path="url(#clip13)" clip-rule="nonzero">
<path style=" stroke:none;fill-rule:nonzero;fill:rgb(13.299561%,11.799622%,12.199402%);fill-opacity:1;" d="M 281.109375 357.789063 C 278.082031 357.789063 275.558594 357.175781 274.15625 356.390625 L 274.550781 354.425781 C 276.0625 355.265625 278.195313 356.054688 281.109375 356.054688 C 283.859375 356.054688 287.613281 355.265625 287.613281 350.945313 C 287.613281 344.445313 274.214844 344.386719 274.214844 337.039063 C 274.214844 332.105469 278.136719 330.761719 282.679688 330.761719 C 284.699219 330.761719 286.996094 331.320313 288.738281 332.164063 L 288.34375 333.902344 C 286.546875 333.171875 284.585938 332.496094 282.507813 332.496094 C 279.371094 332.496094 276.230469 333.113281 276.230469 336.984375 C 276.230469 342.652344 289.632813 343.15625 289.632813 350.667969 C 289.632813 355.660156 286.15625 357.789063 281.109375 357.789063 "/>
</g>
<g clip-path="url(#clip14)" clip-rule="nonzero">
<path style=" stroke:none;fill-rule:nonzero;fill:rgb(13.299561%,11.799622%,12.199402%);fill-opacity:1;" d="M 308.589844 332.949219 L 301.746094 332.949219 L 301.746094 357.398438 L 299.785156 357.398438 L 299.785156 332.949219 L 292.886719 332.949219 L 292.886719 331.207031 L 308.871094 331.207031 "/>
</g>
<g clip-path="url(#clip15)" clip-rule="nonzero">
<path style=" stroke:none;fill-rule:nonzero;fill:rgb(13.299561%,11.799622%,12.199402%);fill-opacity:1;" d="M 313.46875 357.398438 L 315.433594 357.398438 L 315.433594 331.210938 L 313.46875 331.210938 Z M 313.46875 357.398438 "/>
</g>
<g clip-path="url(#clip16)" clip-rule="nonzero">
<path style=" stroke:none;fill-rule:nonzero;fill:rgb(13.299561%,11.799622%,12.199402%);fill-opacity:1;" d="M 331.128906 357.398438 L 329.003906 357.398438 L 319.746094 331.210938 L 321.769531 331.210938 L 330.066406 354.59375 L 338.363281 331.210938 L 340.4375 331.210938 "/>
</g>
<g clip-path="url(#clip17)" clip-rule="nonzero">
<path style=" stroke:none;fill-rule:nonzero;fill:rgb(13.299561%,11.799622%,12.199402%);fill-opacity:1;" d="M 352.832031 334.011719 L 347.445313 348.984375 L 358.101563 348.984375 Z M 361.078125 357.398438 L 358.722656 350.667969 L 346.890625 350.667969 L 344.476563 357.398438 L 342.457031 357.398438 L 351.769531 331.207031 L 353.898438 331.207031 L 363.152344 357.398438 "/>
</g>
<g clip-path="url(#clip18)" clip-rule="nonzero">
<path style=" stroke:none;fill-rule:nonzero;fill:rgb(13.299561%,11.799622%,12.199402%);fill-opacity:1;" d="M 380.035156 357.398438 L 367.246094 357.398438 L 367.246094 331.210938 L 369.210938 331.210938 L 369.210938 355.660156 L 380.3125 355.660156 "/>
</g>
<path style=" stroke:none;fill-rule:nonzero;fill:rgb(13.299561%,11.799622%,12.199402%);fill-opacity:1;" d="M 186.277344 49.015625 C 173.609375 30.257813 157.578125 18.347656 143.398438 17.164063 C 134.757813 16.441406 127.109375 19.496094 120.695313 26.234375 L 123.433594 28.84375 C 129.015625 22.96875 135.636719 20.308594 143.082031 20.933594 C 155.398438 21.960938 169.425781 32.074219 181.078125 48.1875 L 97.738281 48.1875 L 97.738281 2.460938 L 93.957031 2.460938 L 93.957031 51.96875 L 188.277344 51.96875 "/>
<path style="fill:none;stroke-width:11.48;stroke-linecap:butt;stroke-linejoin:miter;stroke:rgb(13.299561%,11.799622%,12.199402%);stroke-opacity:1;stroke-miterlimit:10;" d="M 1862.773438 3087.74375 C 1736.09375 3275.321875 1575.78125 3394.423437 1433.984375 3406.259375 C 1347.578125 3413.485937 1271.09375 3382.939062 1206.953125 3315.55625 L 1234.335938 3289.4625 C 1290.15625 3348.2125 1356.367188 3374.814062 1430.820313 3368.564062 C 1553.984375 3358.290625 1694.257813 3257.157812 1810.78125 3096.025 L 977.382813 3096.025 L 977.382813 3553.290625 L 939.570313 3553.290625 L 939.570313 3058.2125 L 1882.773438 3058.2125 Z M 1862.773438 3087.74375 " transform="matrix(0.1,0,0,-0.1,0,357.79)"/>
<path style=" stroke:none;fill-rule:nonzero;fill:rgb(13.299561%,11.799622%,12.199402%);fill-opacity:1;" d="M 36.136719 85.640625 C 51.710938 85.640625 65.71875 75.230469 70.199219 60.320313 C 71.191406 57.007813 71.695313 53.566406 71.695313 50.078125 L 67.910156 50.078125 C 67.910156 53.195313 67.460938 56.277344 66.574219 59.230469 C 62.570313 72.554688 50.054688 81.855469 36.136719 81.855469 C 18.613281 81.855469 4.355469 67.601563 4.355469 50.078125 C 4.355469 37.3125 11.9375 25.839844 23.683594 20.828125 L 22.199219 17.351563 C 9.054688 22.953125 0.574219 35.800781 0.574219 50.078125 C 0.574219 69.6875 16.523438 85.640625 36.136719 85.640625 "/>
<path style="fill:none;stroke-width:11.48;stroke-linecap:butt;stroke-linejoin:miter;stroke:rgb(13.299561%,11.799622%,12.199402%);stroke-opacity:1;stroke-miterlimit:10;" d="M 361.367188 2721.49375 C 517.109375 2721.49375 657.1875 2825.595312 701.992188 2974.696875 C 711.914063 3007.821875 716.953125 3042.235937 716.953125 3077.11875 L 679.101563 3077.11875 C 679.101563 3045.946875 674.609375 3015.126562 665.742188 2985.595312 C 625.703125 2852.353125 500.546875 2759.345312 361.367188 2759.345312 C 186.132813 2759.345312 43.554688 2901.884375 43.554688 3077.11875 C 43.554688 3204.775 119.375 3319.501562 236.835938 3369.61875 L 221.992188 3404.384375 C 90.546875 3348.36875 5.742188 3219.892187 5.742188 3077.11875 C 5.742188 2881.025 165.234375 2721.49375 361.367188 2721.49375 Z M 361.367188 2721.49375 " transform="matrix(0.1,0,0,-0.1,0,357.79)"/>
<path style=" stroke:none;fill-rule:nonzero;fill:rgb(13.299561%,11.799622%,12.199402%);fill-opacity:1;" d="M 79.683594 134.464844 C 88.546875 134.414063 99.558594 134.363281 106.34375 141.105469 C 110.742188 145.492188 113.035156 152.230469 113.296875 161.667969 L 55.464844 161.667969 L 55.464844 165.453125 L 382.136719 165.453125 L 380.140625 162.5 C 367.476563 143.742188 351.445313 131.835938 337.261719 130.652344 C 328.617188 129.925781 320.980469 132.972656 314.558594 139.71875 L 317.292969 142.328125 C 322.886719 136.457031 329.515625 133.796875 336.941406 134.414063 C 349.261719 135.449219 363.296875 145.558594 374.945313 161.667969 L 117.074219 161.667969 C 116.796875 151.160156 114.144531 143.542969 109.007813 138.421875 C 101.109375 130.574219 89.230469 130.632813 79.664063 130.679688 C 78.472656 130.6875 77.308594 130.691406 76.191406 130.683594 L 76.15625 134.464844 C 77.292969 134.476563 78.476563 134.472656 79.683594 134.464844 "/>
<path style="fill:none;stroke-width:11.48;stroke-linecap:butt;stroke-linejoin:miter;stroke:rgb(13.299561%,11.799622%,12.199402%);stroke-opacity:1;stroke-miterlimit:10;" d="M 796.835938 2233.251562 C 885.46875 2233.759375 995.585938 2234.267187 1063.4375 2166.845312 C 1107.421875 2122.978125 1130.351563 2055.595312 1132.96875 1961.220312 L 554.648438 1961.220312 L 554.648438 1923.36875 L 3821.367188 1923.36875 L 3801.40625 1952.9 C 3674.765625 2140.478125 3514.453125 2259.540625 3372.617188 2271.376562 C 3286.171875 2278.642187 3209.804688 2248.173437 3145.585938 2180.7125 L 3172.929688 2154.61875 C 3228.867188 2213.329687 3295.15625 2239.93125 3369.414063 2233.759375 C 3492.617188 2223.407812 3632.96875 2122.314062 3749.453125 1961.220312 L 1170.742188 1961.220312 C 1167.96875 2066.298437 1141.445313 2142.470312 1090.078125 2193.68125 C 1011.09375 2272.157812 892.304688 2271.571875 796.640625 2271.103125 C 784.726563 2271.025 773.085938 2270.985937 761.914063 2271.064062 L 761.5625 2233.251562 C 772.929688 2233.134375 784.765625 2233.173437 796.835938 2233.251562 Z M 796.835938 2233.251562 " transform="matrix(0.1,0,0,-0.1,0,357.79)"/>
<path style=" stroke:none;fill-rule:nonzero;fill:rgb(13.299561%,11.799622%,12.199402%);fill-opacity:1;" d="M 17.964844 134.464844 C 25.464844 134.464844 31.558594 140.558594 31.558594 148.054688 C 31.558594 155.558594 25.464844 161.660156 17.964844 161.660156 C 10.457031 161.660156 4.363281 155.558594 4.363281 148.054688 C 4.363281 140.558594 10.457031 134.464844 17.964844 134.464844 M 17.964844 165.441406 C 27.550781 165.441406 35.339844 157.648438 35.339844 148.054688 C 35.339844 138.476563 27.550781 130.679688 17.964844 130.679688 C 8.371094 130.679688 0.574219 138.476563 0.574219 148.054688 C 0.574219 157.648438 8.371094 165.441406 17.964844 165.441406 "/>
<path style="fill:none;stroke-width:11.48;stroke-linecap:butt;stroke-linejoin:miter;stroke:rgb(13.299561%,11.799622%,12.199402%);stroke-opacity:1;stroke-miterlimit:10;" d="M 179.648438 2233.251562 C 254.648438 2233.251562 315.585938 2172.314062 315.585938 2097.353125 C 315.585938 2022.314062 254.648438 1961.298437 179.648438 1961.298437 C 104.570313 1961.298437 43.632813 2022.314062 43.632813 2097.353125 C 43.632813 2172.314062 104.570313 2233.251562 179.648438 2233.251562 Z M 179.648438 1923.485937 C 275.507813 1923.485937 353.398438 2001.415625 353.398438 2097.353125 C 353.398438 2193.134375 275.507813 2271.103125 179.648438 2271.103125 C 83.710938 2271.103125 5.742188 2193.134375 5.742188 2097.353125 C 5.742188 2001.415625 83.710938 1923.485937 179.648438 1923.485937 Z M 179.648438 1923.485937 " transform="matrix(0.1,0,0,-0.1,0,357.79)"/>
<path style=" stroke:none;fill-rule:nonzero;fill:rgb(13.299561%,11.799622%,12.199402%);fill-opacity:1;" d="M 459.523438 195.910156 C 445.148438 210.71875 395.710938 232.296875 311.492188 208 C 285.355469 200.46875 257.808594 193.324219 233.308594 195.9375 C 206.980469 198.75 186.378906 212.757813 170.320313 238.757813 L 173.523438 240.753906 C 206.835938 186.8125 253.246094 195.144531 310.449219 211.632813 C 396.394531 236.429688 447.3125 213.914063 462.238281 198.542969 "/>
<g clip-path="url(#clip19)" clip-rule="nonzero">
<path style="fill:none;stroke-width:11.48;stroke-linecap:butt;stroke-linejoin:miter;stroke:rgb(13.299561%,11.799622%,12.199402%);stroke-opacity:1;stroke-miterlimit:10;" d="M 4595.234375 1618.798437 C 4451.484375 1470.7125 3957.109375 1254.93125 3114.921875 1497.9 C 2853.554688 1573.2125 2578.085938 1644.657812 2333.085938 1618.525 C 2069.804688 1590.4 1863.789063 1450.321875 1703.203125 1190.321875 L 1735.234375 1170.360937 C 2068.359375 1709.775 2532.460938 1626.454687 3104.492188 1461.571875 C 3963.945313 1213.603125 4473.125 1438.759375 4622.382813 1592.470312 Z M 4595.234375 1618.798437 " transform="matrix(0.1,0,0,-0.1,0,357.79)"/>
</g>
<path style=" stroke:none;fill-rule:nonzero;fill:rgb(13.299561%,11.799622%,12.199402%);fill-opacity:1;" d="M 71.835938 255.628906 L 86.21875 275.144531 L 13.734375 275.144531 C 8.5625 275.144531 4.355469 270.945313 4.355469 265.777344 C 4.355469 260.609375 8.5625 256.394531 13.734375 256.394531 L 13.734375 252.617188 C 6.472656 252.617188 0.574219 258.519531 0.574219 265.777344 C 0.574219 273.027344 6.472656 278.933594 13.734375 278.933594 L 93.699219 278.933594 L 74.882813 253.382813 "/>
<path style="fill:none;stroke-width:11.48;stroke-linecap:butt;stroke-linejoin:miter;stroke:rgb(13.299561%,11.799622%,12.199402%);stroke-opacity:1;stroke-miterlimit:10;" d="M 718.359375 1021.610937 L 862.1875 826.454687 L 137.34375 826.454687 C 85.625 826.454687 43.554688 868.446875 43.554688 920.126562 C 43.554688 971.80625 85.625 1013.954687 137.34375 1013.954687 L 137.34375 1051.728125 C 64.726563 1051.728125 5.742188 992.704687 5.742188 920.126562 C 5.742188 847.626562 64.726563 788.564062 137.34375 788.564062 L 936.992188 788.564062 L 748.828125 1044.071875 Z M 718.359375 1021.610937 " transform="matrix(0.1,0,0,-0.1,0,357.79)"/>
<path style=" stroke:none;fill-rule:nonzero;fill:rgb(13.299561%,11.799622%,12.199402%);fill-opacity:1;" d="M 160.101563 275.148438 C 159.167969 273.273438 158.675781 271.1875 158.675781 269.066406 C 158.675781 261.574219 164.78125 255.464844 172.273438 255.464844 C 180.042969 255.464844 188.328125 261.664063 189.851563 275.148438 Z M 195.15625 228.308594 L 192.117188 230.550781 L 224.890625 275.148438 L 193.644531 275.148438 C 192.109375 261.3125 183.589844 251.6875 172.273438 251.6875 C 162.6875 251.6875 154.890625 259.484375 154.890625 269.066406 C 154.890625 272.226563 155.742188 275.328125 157.375 278.015625 L 157.925781 278.929688 L 190.101563 278.929688 C 190.109375 279.195313 190.109375 279.457031 190.109375 279.722656 C 190.109375 295.769531 177.058594 308.816406 161.011719 308.816406 C 153.242188 308.816406 145.933594 305.789063 140.445313 300.300781 L 137.765625 302.976563 C 143.96875 309.179688 152.238281 312.601563 161.011719 312.601563 C 179.140625 312.601563 193.890625 297.847656 193.890625 279.722656 C 193.890625 279.457031 193.882813 279.195313 193.882813 278.929688 L 232.375 278.929688 "/>
<path style="fill:none;stroke-width:11.48;stroke-linecap:butt;stroke-linejoin:miter;stroke:rgb(13.299561%,11.799622%,12.199402%);stroke-opacity:1;stroke-miterlimit:10;" d="M 1601.015625 826.415625 C 1591.679688 845.165625 1586.757813 866.025 1586.757813 887.235937 C 1586.757813 962.157812 1647.8125 1023.251562 1722.734375 1023.251562 C 1800.429688 1023.251562 1883.28125 961.259375 1898.515625 826.415625 Z M 1951.5625 1294.814062 L 1921.171875 1272.392187 L 2248.90625 826.415625 L 1936.445313 826.415625 C 1921.09375 964.775 1835.898438 1061.025 1722.734375 1061.025 C 1626.875 1061.025 1548.90625 983.05625 1548.90625 887.235937 C 1548.90625 855.634375 1557.421875 824.61875 1573.75 797.74375 L 1579.257813 788.603125 L 1901.015625 788.603125 C 1901.09375 785.946875 1901.09375 783.329687 1901.09375 780.673437 C 1901.09375 620.204687 1770.585938 489.735937 1610.117188 489.735937 C 1532.421875 489.735937 1459.335938 520.009375 1404.453125 574.892187 L 1377.65625 548.134375 C 1439.6875 486.103125 1522.382813 451.884375 1610.117188 451.884375 C 1791.40625 451.884375 1938.90625 599.423437 1938.90625 780.673437 C 1938.90625 783.329687 1938.828125 785.946875 1938.828125 788.603125 L 2323.75 788.603125 Z M 1951.5625 1294.814062 " transform="matrix(0.1,0,0,-0.1,0,357.79)"/>
<path style=" stroke:none;fill-rule:nonzero;fill:rgb(13.299561%,11.799622%,12.199402%);fill-opacity:1;" d="M 260.023438 35.851563 C 267.863281 35.851563 274.25 42.230469 274.25 50.074219 C 274.25 57.914063 267.863281 64.296875 260.023438 64.296875 C 252.179688 64.296875 245.800781 57.914063 245.800781 50.074219 C 245.800781 42.230469 252.179688 35.851563 260.023438 35.851563 M 181.511719 81.855469 C 173.742188 81.855469 166.433594 78.820313 160.9375 73.332031 L 158.261719 76.007813 C 164.472656 82.214844 172.726563 85.636719 181.511719 85.636719 C 199.640625 85.636719 214.390625 70.886719 214.390625 52.757813 C 214.390625 52.492188 214.367188 52.234375 214.359375 51.96875 L 242.117188 51.96875 C 243.070313 61.003906 250.738281 68.082031 260.023438 68.082031 C 269.953125 68.082031 278.03125 60.003906 278.03125 50.074219 C 278.03125 40.148438 269.953125 32.066406 260.023438 32.066406 C 250.738281 32.066406 243.070313 39.144531 242.117188 48.1875 L 214.113281 48.1875 C 213.453125 42.261719 211.515625 36.914063 208.472656 32.828125 L 205.4375 35.085938 C 208.761719 39.558594 210.601563 45.839844 210.601563 52.757813 C 210.601563 68.800781 197.554688 81.855469 181.511719 81.855469 "/>
<path style="fill:none;stroke-width:11.48;stroke-linecap:butt;stroke-linejoin:miter;stroke:rgb(13.299561%,11.799622%,12.199402%);stroke-opacity:1;stroke-miterlimit:10;" d="M 2600.234375 3219.384375 C 2678.632813 3219.384375 2742.5 3155.595312 2742.5 3077.157812 C 2742.5 2998.759375 2678.632813 2934.93125 2600.234375 2934.93125 C 2521.796875 2934.93125 2458.007813 2998.759375 2458.007813 3077.157812 C 2458.007813 3155.595312 2521.796875 3219.384375 2600.234375 3219.384375 Z M 1815.117188 2759.345312 C 1737.421875 2759.345312 1664.335938 2789.696875 1609.375 2844.579687 L 1582.617188 2817.821875 C 1644.726563 2755.751562 1727.265625 2721.532812 1815.117188 2721.532812 C 1996.40625 2721.532812 2143.90625 2869.032812 2143.90625 3050.321875 C 2143.90625 3052.978125 2143.671875 3055.55625 2143.59375 3058.2125 L 2421.171875 3058.2125 C 2430.703125 2967.860937 2507.382813 2897.079687 2600.234375 2897.079687 C 2699.53125 2897.079687 2780.3125 2977.860937 2780.3125 3077.157812 C 2780.3125 3176.415625 2699.53125 3257.235937 2600.234375 3257.235937 C 2507.382813 3257.235937 2430.703125 3186.454687 2421.171875 3096.025 L 2141.132813 3096.025 C 2134.53125 3155.282812 2115.15625 3208.759375 2084.726563 3249.61875 L 2054.375 3227.040625 C 2087.617188 3182.314062 2106.015625 3119.501562 2106.015625 3050.321875 C 2106.015625 2889.892187 1975.546875 2759.345312 1815.117188 2759.345312 Z M 1815.117188 2759.345312 " transform="matrix(0.1,0,0,-0.1,0,357.79)"/>
<path style=" stroke:none;fill-rule:nonzero;fill:rgb(13.299561%,11.799622%,12.199402%);fill-opacity:1;" d="M 245.71875 223.800781 L 260.222656 223.800781 L 260.222656 220.015625 L 254.933594 220.015625 C 253.75 220.015625 252.644531 219.566406 251.796875 218.726563 L 250.519531 220.015625 L 251.796875 218.726563 C 250.96875 217.894531 250.519531 216.789063 250.519531 215.609375 C 250.519531 213.179688 252.496094 211.195313 254.933594 211.195313 C 256.101563 211.195313 257.222656 211.65625 258.046875 212.492188 L 260.722656 209.8125 C 259.1875 208.265625 257.113281 207.417969 254.933594 207.417969 C 250.410156 207.417969 246.734375 211.089844 246.734375 215.609375 C 246.734375 217.199219 247.179688 218.714844 248.023438 220.015625 L 245.71875 220.015625 "/>
<path style="fill:none;stroke-width:11.48;stroke-linecap:butt;stroke-linejoin:miter;stroke:rgb(13.299561%,11.799622%,12.199402%);stroke-opacity:1;stroke-miterlimit:10;" d="M 2457.1875 1339.892187 L 2602.226563 1339.892187 L 2602.226563 1377.74375 L 2549.335938 1377.74375 C 2537.5 1377.74375 2526.445313 1382.235937 2517.96875 1390.634375 L 2505.195313 1377.74375 L 2517.96875 1390.634375 C 2509.6875 1398.954687 2505.195313 1410.009375 2505.195313 1421.80625 C 2505.195313 1446.103125 2524.960938 1465.946875 2549.335938 1465.946875 C 2561.015625 1465.946875 2572.226563 1461.3375 2580.46875 1452.978125 L 2607.226563 1479.775 C 2591.875 1495.24375 2571.132813 1503.720312 2549.335938 1503.720312 C 2504.101563 1503.720312 2467.34375 1467.001562 2467.34375 1421.80625 C 2467.34375 1405.907812 2471.796875 1390.751562 2480.234375 1377.74375 L 2457.1875 1377.74375 Z M 2457.1875 1339.892187 " transform="matrix(0.1,0,0,-0.1,0,357.79)"/>
<path style=" stroke:none;fill-rule:nonzero;fill:rgb(13.299561%,11.799622%,12.199402%);fill-opacity:1;" d="M 123.964844 257.234375 C 129.339844 265.101563 132.628906 271.707031 134.1875 275.148438 L 113.746094 275.148438 C 115.308594 271.707031 118.585938 265.101563 123.964844 257.234375 M 108.15625 278.929688 L 139.777344 278.929688 L 138.824219 276.371094 C 138.578125 275.71875 134.902344 266.160156 126.316406 253.902344 C 131.671875 246.570313 138.738281 238.441406 147.800781 230.886719 L 145.367188 227.980469 C 136.414063 235.457031 129.363281 243.402344 123.964844 250.648438 C 118.5625 243.402344 111.519531 235.457031 102.558594 227.980469 L 100.132813 230.886719 C 109.179688 238.4375 116.265625 246.570313 121.613281 253.90625 C 113.035156 266.160156 109.351563 275.71875 109.117188 276.371094 "/>
<path style="fill:none;stroke-width:11.48;stroke-linecap:butt;stroke-linejoin:miter;stroke:rgb(13.299561%,11.799622%,12.199402%);stroke-opacity:1;stroke-miterlimit:10;" d="M 1239.648438 1005.55625 C 1293.398438 926.884375 1326.289063 860.829687 1341.875 826.415625 L 1137.460938 826.415625 C 1153.085938 860.829687 1185.859375 926.884375 1239.648438 1005.55625 Z M 1081.5625 788.603125 L 1397.773438 788.603125 L 1388.242188 814.189062 C 1385.78125 820.7125 1349.023438 916.298437 1263.164063 1038.876562 C 1316.71875 1112.196875 1387.382813 1193.485937 1478.007813 1269.032812 L 1453.671875 1298.095312 C 1364.140625 1223.329687 1293.632813 1143.876562 1239.648438 1071.415625 C 1185.625 1143.876562 1115.195313 1223.329687 1025.585938 1298.095312 L 1001.328125 1269.032812 C 1091.796875 1193.525 1162.65625 1112.196875 1216.132813 1038.8375 C 1130.351563 916.298437 1093.515625 820.7125 1091.171875 814.189062 Z M 1081.5625 788.603125 " transform="matrix(0.1,0,0,-0.1,0,357.79)"/>
<path style=" stroke:none;fill-rule:nonzero;fill:rgb(13.299561%,11.799622%,12.199402%);fill-opacity:1;" d="M 356.046875 29.429688 C 367.433594 29.429688 376.691406 38.691406 376.691406 50.074219 C 376.691406 61.460938 367.433594 70.722656 356.046875 70.722656 C 344.65625 70.722656 335.40625 61.460938 335.40625 50.074219 C 335.40625 38.691406 344.65625 29.429688 356.046875 29.429688 M 260.019531 4.355469 C 285.234375 4.355469 305.746094 24.867188 305.746094 50.074219 C 305.746094 62.289063 300.988281 73.773438 292.363281 82.410156 L 295.03125 85.085938 C 303.925781 76.183594 309.011719 64.484375 309.488281 51.96875 L 331.699219 51.96875 C 332.667969 64.554688 343.214844 74.507813 356.046875 74.507813 C 369.511719 74.507813 380.464844 63.546875 380.464844 50.074219 C 380.464844 36.609375 369.511719 25.648438 356.046875 25.648438 C 343.214844 25.648438 332.667969 35.597656 331.699219 48.1875 L 309.488281 48.1875 C 308.484375 21.765625 286.6875 0.574219 260.019531 0.574219 C 245.5625 0.574219 231.859375 6.871094 222.445313 17.859375 L 225.304688 20.320313 C 234.015625 10.171875 246.660156 4.355469 260.019531 4.355469 "/>
<path style="fill:none;stroke-width:11.48;stroke-linecap:butt;stroke-linejoin:miter;stroke:rgb(13.299561%,11.799622%,12.199402%);stroke-opacity:1;stroke-miterlimit:10;" d="M 3560.46875 3283.603125 C 3674.335938 3283.603125 3766.914063 3190.985937 3766.914063 3077.157812 C 3766.914063 2963.290625 3674.335938 2870.673437 3560.46875 2870.673437 C 3446.5625 2870.673437 3354.0625 2963.290625 3354.0625 3077.157812 C 3354.0625 3190.985937 3446.5625 3283.603125 3560.46875 3283.603125 Z M 2600.195313 3534.345312 C 2852.34375 3534.345312 3057.460938 3329.228125 3057.460938 3077.157812 C 3057.460938 2955.009375 3009.882813 2840.165625 2923.632813 2753.798437 L 2950.3125 2727.040625 C 3039.257813 2816.064062 3090.117188 2933.05625 3094.882813 3058.2125 L 3316.992188 3058.2125 C 3326.679688 2932.353125 3432.148438 2832.821875 3560.46875 2832.821875 C 3695.117188 2832.821875 3804.648438 2942.43125 3804.648438 3077.157812 C 3804.648438 3211.80625 3695.117188 3321.415625 3560.46875 3321.415625 C 3432.148438 3321.415625 3326.679688 3221.923437 3316.992188 3096.025 L 3094.882813 3096.025 C 3084.84375 3360.24375 2866.875 3572.157812 2600.195313 3572.157812 C 2455.625 3572.157812 2318.59375 3509.189062 2224.453125 3399.30625 L 2253.046875 3374.696875 C 2340.15625 3476.18125 2466.601563 3534.345312 2600.195313 3534.345312 Z M 2600.195313 3534.345312 " transform="matrix(0.1,0,0,-0.1,0,357.79)"/>
<path style=" stroke:none;fill-rule:nonzero;fill:rgb(13.299561%,11.799622%,12.199402%);fill-opacity:1;" d="M 310.964844 264.28125 C 322.351563 264.28125 331.609375 273.542969 331.609375 284.929688 C 331.609375 296.3125 322.351563 305.570313 310.964844 305.570313 C 301.816406 305.570313 294.039063 299.574219 291.339844 291.304688 C 291.230469 290.949219 291.144531 290.589844 291.046875 290.226563 C 290.585938 288.53125 290.316406 286.761719 290.316406 284.929688 C 290.316406 273.542969 299.585938 264.28125 310.964844 264.28125 M 377.925781 271.339844 C 377.925781 279.578125 371.234375 286.285156 362.988281 286.285156 C 354.753906 286.285156 348.042969 279.578125 348.042969 271.339844 L 348.042969 229.429688 L 344.265625 229.429688 L 344.265625 250.863281 C 338.03125 246.480469 330.730469 244.171875 323.027344 244.171875 C 304.664063 244.171875 289.390625 257.601563 286.496094 275.144531 L 256.820313 275.144531 L 256.820313 229.429688 L 253.042969 229.429688 L 253.042969 278.933594 L 286.066406 278.933594 C 286.019531 279.679688 285.988281 280.441406 285.988281 281.203125 C 285.988281 284.367188 286.410156 287.488281 287.199219 290.527344 C 287.355469 291.234375 287.558594 291.921875 287.78125 292.601563 C 287.785156 292.632813 287.792969 292.660156 287.816406 292.695313 C 291.070313 302.363281 300.214844 309.351563 310.964844 309.351563 C 324.4375 309.351563 335.394531 298.398438 335.394531 284.929688 C 335.394531 271.460938 324.4375 260.5 310.964844 260.5 C 303.183594 260.5 296.246094 264.164063 291.765625 269.851563 C 296.410156 257.09375 308.679688 247.945313 323.027344 247.945313 C 330.632813 247.945313 337.804688 250.457031 343.734375 255.1875 L 344.265625 254.535156 L 344.265625 271.339844 C 344.265625 281.664063 352.667969 290.066406 362.988281 290.066406 C 373.320313 290.066406 381.710938 281.664063 381.710938 271.339844 L 381.710938 229.429688 L 377.925781 229.429688 "/>
<path style="fill:none;stroke-width:11.48;stroke-linecap:butt;stroke-linejoin:miter;stroke:rgb(13.299561%,11.799622%,12.199402%);stroke-opacity:1;stroke-miterlimit:10;" d="M 3109.648438 935.0875 C 3223.515625 935.0875 3316.09375 842.470312 3316.09375 728.603125 C 3316.09375 614.775 3223.515625 522.196875 3109.648438 522.196875 C 3018.164063 522.196875 2940.390625 582.157812 2913.398438 664.853125 C 2912.304688 668.407812 2911.445313 672.001562 2910.46875 675.634375 C 2905.859375 692.5875 2903.164063 710.282812 2903.164063 728.603125 C 2903.164063 842.470312 2995.859375 935.0875 3109.648438 935.0875 Z M 3779.257813 864.501562 C 3779.257813 782.11875 3712.34375 715.048437 3629.882813 715.048437 C 3547.539063 715.048437 3480.429688 782.11875 3480.429688 864.501562 L 3480.429688 1283.603125 L 3442.65625 1283.603125 L 3442.65625 1069.267187 C 3380.3125 1113.095312 3307.304688 1136.18125 3230.273438 1136.18125 C 3046.640625 1136.18125 2893.90625 1001.884375 2864.960938 826.454687 L 2568.203125 826.454687 L 2568.203125 1283.603125 L 2530.429688 1283.603125 L 2530.429688 788.564062 L 2860.664063 788.564062 C 2860.195313 781.103125 2859.882813 773.485937 2859.882813 765.86875 C 2859.882813 734.228125 2864.101563 703.017187 2871.992188 672.626562 C 2873.554688 665.55625 2875.585938 658.68125 2877.8125 651.884375 C 2877.851563 651.571875 2877.929688 651.298437 2878.164063 650.946875 C 2910.703125 554.267187 3002.148438 484.384375 3109.648438 484.384375 C 3244.375 484.384375 3353.945313 593.915625 3353.945313 728.603125 C 3353.945313 863.290625 3244.375 972.9 3109.648438 972.9 C 3031.835938 972.9 2962.460938 936.259375 2917.65625 879.384375 C 2964.101563 1006.9625 3086.796875 1098.446875 3230.273438 1098.446875 C 3306.328125 1098.446875 3378.046875 1073.329687 3437.34375 1026.025 L 3442.65625 1032.548437 L 3442.65625 864.501562 C 3442.65625 761.259375 3526.679688 677.235937 3629.882813 677.235937 C 3733.203125 677.235937 3817.109375 761.259375 3817.109375 864.501562 L 3817.109375 1283.603125 L 3779.257813 1283.603125 Z M 3779.257813 864.501562 " transform="matrix(0.1,0,0,-0.1,0,357.79)"/>
</g>
</svg>
