<?xml version="1.0" encoding="utf-8"?>
<!-- Generator: Adobe Illustrator 27.0.0, SVG Export Plug-In . SVG Version: 6.00 Build 0)  -->
<svg version="1.1" id="Layer_1" xmlns="http://www.w3.org/2000/svg" xmlns:xlink="http://www.w3.org/1999/xlink" x="0px" y="0px"
	 viewBox="0 0 1000 1000" style="enable-background:new 0 0 1000 1000;" xml:space="preserve">
<style type="text/css">
	.st0{fill-rule:evenodd;clip-rule:evenodd;fill:#240C54;}
</style>
<g id="surface1">
	<path class="st0" d="M128.4,341.7c-18.7,2.4-34.2,9.6-48.5,22.4c-9.2,8.3-18.9,21.5-25.5,34.6l-3.5,7h16c8.8,0,19,0.3,22.8,0.6
		c23,2.1,39,7.8,49.6,17.8c10.1,9.4,14.8,21.5,14.8,37.7c0,16.3-4.7,28.1-14.9,37.7c-7.6,7.1-16.3,11.5-29.3,14.7
		c-11,2.7-19.7,3.6-34,3.6c-10.7,0-12.5,0.1-12.5,0.9c0,0.8,1.7,0.9,11.7,0.9c16,0,23.2,1.6,35.9,8.1c12.8,6.6,22.8,14.4,38.6,30.3
		c6.6,6.6,13.4,13.2,15.2,14.7c12.5,10.3,28.5,17.9,43.2,20.5c11.4,2,26,1,38.1-2.8c4.7-1.5,5.9-2.6,1.5-1.4
		c-5.8,1.5-13.6,2.1-18.9,1.4c-12.3-1.5-20.9-7.3-35.9-23.8c-11.9-13.2-23.4-24.7-29.1-29.2c-10.1-8-20.7-14-30.7-17.3l-4.1-1.4
		l4.4-1.1c13.1-3.3,26.3-13,34.2-25.2c9.6-14.7,12.1-31.2,7-47.1c-6-19.2-20.4-33.4-39.7-39.3c-4.3-1.3-5.2-1.3-42.8-1.7l-38.4-0.3
		l3.7-4.6c15.2-18.9,40-30.8,69.5-33.3c18.3-1.6,37.8,2.2,54.1,10.6c21.2,10.8,36.6,28.4,43.8,49.9c2.9,8.8,3.8,15.4,4.4,32.9
		c0.9,24.3,1,108.5,0.2,112.4c-0.8,3.6,0,5.4,1,2.6c1-2.7,2.9-14.7,3.5-23c1-12.3,1.9-50.4,2-86.7l0.1-34l-1.6-7.5
		c-9.1-42.1-38.7-72.5-78.3-80.5C150.2,342,133.3,341.1,128.4,341.7 M315,446.5v43.3h12.5v-81.7h9.9c12,0,16.4,0.7,20.6,3.2
		c6.4,3.8,9.2,9.9,8.7,18.8c-0.3,6.2-1.8,10-5.4,13.6c-4.7,4.8-11.3,6.7-22.7,6.7c-5,0-6.4,0.2-6.4,0.8c0,0.6,1.6,0.9,6.8,1.1
		c10.4,0.4,10.2,0.1,22.6,22.3c3.3,6,6.8,11.2,8.2,12.7l2.5,2.5h15.9l-4-4c-3.2-3.2-5.4-6.3-10.5-15.2c-7.5-13-7.9-13.5-11.4-15.8
		c-2.8-1.8-3.4-2.6-1.7-2.6c0.5,0,2.9-0.9,5.3-2.1c5.7-2.7,9.9-6.8,12.3-12c1.7-3.6,1.9-4.6,1.9-9.4c0-4.9-0.2-5.8-1.9-9.3
		c-3.3-6.8-10.2-12-19-14.6c-2.9-0.8-7.1-1.1-24-1.3l-20.4-0.3V446.5 M392.9,403.7c-0.2,0.2-0.4,19.7-0.4,43.2v42.8h13.1v-86.5h-6.2
		C396,403.4,393.1,403.5,392.9,403.7 M412.2,403.6c0,0.4,5.2,8.4,20.2,31l12.6,18.9v36.3h12.5v-36.3l16.4-24.8
		c9-13.6,16.4-24.9,16.4-25.1c0-0.2-1.4-0.2-3.1-0.1l-3,0.2L470.1,425c-7.8,11.8-14.3,21.4-14.6,21.4c-0.3,0-6.9-9.6-14.7-21.4
		l-14.2-21.4l-7.2-0.2C415.4,403.4,412.2,403.5,412.2,403.6 M513,405.9c-0.6,1.4-9,20.4-18.5,42.2c-9.6,21.8-17.6,40.1-17.7,40.7
		c-0.3,0.9,0.1,1,2.6,1l2.9,0l2.6-6.1c1.4-3.4,4.9-11.3,7.7-17.6l5.1-11.5h31.3l15.3,35.2h6.7c3.7,0,6.7-0.2,6.7-0.5
		c0-0.2-8.4-19.6-18.7-43.1l-18.7-42.6l-6.2-0.4L513,405.9 M564.8,446.6v43.3l21-0.2c19.7-0.2,21.3-0.3,25.5-1.6
		c15.7-4.7,26.8-16,30.8-31.1c1.4-5.2,1.3-15.7,0-20.9c-4.1-15.3-16-26.7-32.3-31.1c-4.3-1.2-6.8-1.3-24.9-1.6l-20.1-0.3V446.6
		 M654.8,446.6v43.2h12.5l0.2-20.4l0.2-20.4l23.7-0.2l23.7-0.2v41.2l6.4-0.2l6.4-0.2v-85.9l-6.4-0.2l-6.4-0.2v40h-47.7v-39.9h-12.5
		V446.6 M807.6,404.4c-0.3,0.6-8.7,19.6-18.6,42.2c-9.9,22.6-18.3,41.6-18.6,42.2c-0.5,1-0.3,1.1,2.6,0.9l3.1-0.2l7.6-17.3l7.6-17.3
		l15.8-0.2l15.8-0.2l1.2,2.8c0.7,1.6,4.1,9.5,7.6,17.6l6.4,14.8h6.8c3.7,0,6.8-0.1,6.8-0.2s-8.4-19.5-18.7-43.1l-18.7-42.9l-3-0.2
		C808.7,403.3,808,403.5,807.6,404.4 M858.7,446.6v43.3h13.1l-0.2-43.1l-0.2-43.1l-6.4-0.2l-6.4-0.2V446.6 M888.4,403.7
		c-0.3,0.3-0.5,19.7-0.5,43.3v42.8h13.1V408l12.1,0.3c10.7,0.2,12.5,0.4,15.5,1.6c4.2,1.7,7.9,5.2,9.9,9.5c1.4,2.9,1.6,4.1,1.6,9.3
		c0,5.5-0.1,6.3-2,9.9c-4.2,8.6-11.4,11.8-26.2,11.8c-5,0-6.1,0.2-6.1,0.9c0,0.7,0.9,0.9,4.7,0.9c7.7,0,10.3,0.8,13.3,4.1
		c1.4,1.6,5.6,8.4,9.4,15.3c4.3,7.8,7.9,13.5,9.6,15.3l2.7,2.9h8.2c4.5,0,8.2-0.1,8.2-0.2c0-0.1-1-0.9-2.3-1.8
		c-2.9-1.9-6.1-6.4-13.1-18.6c-5.6-9.7-9-14-12.1-15.3c-2.1-0.8-1.8-1.2,2.2-2.6c21.4-7.8,23.3-34,3.1-43.8c-7.3-3.5-9-3.8-30.8-4
		C897.8,403.4,888.6,403.4,888.4,403.7 M577.9,446.5V485h11.3c12.3,0,15.7-0.5,21.2-3c13-5.9,20.2-20.2,19.2-38.2
		c-0.6-11.5-3.9-19.6-10.5-26.2c-7.3-7.3-12.4-8.9-29.1-9.4l-12.1-0.3V446.5 M506.7,433.4c-3.5,8-6.3,14.7-6.3,14.9
		c0,0.2,5.8,0.4,12.8,0.4c7,0,12.8-0.1,12.8-0.3c0-0.3-12.6-29.1-12.8-29.4C513.2,418.9,510.2,425.4,506.7,433.4 M806.9,418.9
		c0,0.2-2.9,7-6.5,15l-6.5,14.7H820l-0.5-1.3c-0.5-1.2-9.6-22.2-11.7-27C807.3,419.4,806.9,418.7,806.9,418.9 M43.7,424.5
		c-0.9,2.4-2.9,12.5-3.6,18.5c-0.8,6.4-1.8,57.7-2,96.6c-0.1,24.6,0,28.7,0.9,33.4c6.5,33.8,25.3,60.1,53,74.4
		c28.2,14.6,60,14.7,84.6,0.3c9.4-5.5,19.5-14.3,26.8-23.5c4.8-6,10.8-15.2,10.4-15.9c-0.2-0.3-2.3,1.2-4.7,3.3
		c-13.3,11.6-29.2,18.1-51,21c-9,1.2-26.9,1.3-33.7,0.3c-37-5.7-66.9-30.4-76-63c-2.3-8.1-3-14.4-3.5-31.6
		c-1-29.3-1.3-102.4-0.6-109C45,423.5,44.8,421.6,43.7,424.5 M411,564v30.7h36.4v-34.6l-4.3,0.2l-4.3,0.2l-0.2,15.1l-0.2,15h-19.1
		v-57.2H411V564 M490.9,562v28.6l-17.5-0.3l-1.3-1.7c-1.2-1.6-1.3-2.6-1.4-15.1l-0.2-13.4h-8.8l-0.2,20.4
		c-0.2,19.6-0.2,20.5-1.5,22.8c-1.5,2.9-3.4,3.8-7.4,3.8c-2.5,0-3,0.2-2.8,1c0.3,1.5,5.9,2.8,9.5,2.3c6.4-1,9.6-5.5,11-15.4l0.4-2.8
		l1.5,1.2c1.4,1.1,2.4,1.2,14.6,1.2h13v-61.4h-8.9V562 M509.3,564v30.7h9l-0.2-30.6l-0.2-30.6l-4.3-0.2l-4.3-0.2V564 M595.2,564
		v30.7h8.3v-61.4h-8.3V564 M673.9,562.2v28.9H668c-3.2,0-6.7-0.3-7.8-0.7c-3.4-1.2-3.6-2.6-3.6-17.2v-13.1h-8.9v14
		c0,8.5-0.2,14.5-0.6,15.2c-0.6,1-1.3,1.2-8.3,1.2c-4.2,0-8.1-0.2-8.6-0.4c-0.5-0.2-1.4-1.2-2-2.2c-0.8-1.6-1-4-1.2-14.8l-0.2-13
		h-8.8v19.5c0,20.4-0.3,22.8-2.6,25.6c-1.1,1.3-2,1.6-5,1.9c-3,0.2-3.7,0.5-3.7,1.3c0,0.8,0.8,1.2,3,1.7c3.8,0.8,5,0.8,8,0
		c4.9-1.4,8.1-6.5,9.1-14.7l0.4-3.1l1.7,1.2c1.5,1,2.6,1.2,11,1.2c9.8,0,12.1-0.5,14.3-2.9l1.1-1.2l1.9,2.1l1.9,2.1H724v-9.5
		c0-9.7-0.5-13.9-2.4-18.3c-4-9.3-15.3-12.9-25-8c-4.9,2.5-9.9,8.4-12.5,14.7l-1.2,2.9l0-21.6l0-21.6h-8.9V562.2 M379.3,542.8
		c-3.6,3.6-1.4,9,3.6,9c3.2,0,5.4-2,5.4-5.1c0-2.8-2.7-5.6-5.4-5.6C381.7,541.1,380.5,541.6,379.3,542.8 M561.2,542.8
		c-3.6,3.6-1.5,9,3.6,9c3.2,0,5.4-2,5.4-5.1c0-2.8-2.7-5.6-5.4-5.6C563.5,541.1,562.4,541.6,561.2,542.8 M377.4,557.7
		c-6.7,2.2-12.4,8-15.6,15.9l-1.5,3.5l0-8.5l0-8.5h-8.2l-0.3,15.6c-0.2,10-0.5,16.5-1,18c-2,6.5-7.1,10.1-14.3,10.2
		c-8.2,0-13.3-3.1-16.5-9.9c-1.6-3.4-1.7-4.3-1.7-10c0-4.2,0.4-7.6,1.1-10.4c2.1-8-1.7-5.2-5.4,4c-3.1,7.6-3,16.9,0.1,23.1
		c1.9,3.8,7.3,8.6,11.5,10.2c4.8,1.9,14.5,1.9,19.1,0.1c6.4-2.5,11.9-8.1,14-14l0.8-2.2h42.2l-0.2-11.5c-0.3-13.2-1-16.1-5.3-20.9
		C391.5,557.3,384.3,555.4,377.4,557.7 M577.3,574.9c0,16.5-0.6,20.3-3.5,24c-2.8,3.5-6.5,5-12.2,5c-7.6,0-12-2.4-15.1-8.4
		c-3.4-6.4-3.8-14.3-1-23.4c0.6-2.1,0.6-2.8,0.1-3.2c-1.1-0.7-2,0.4-4.5,5.6c-7,14.3-3.9,28.8,7.5,34.9c11.1,5.9,25.1,3,32.4-6.6
		c4.2-5.6,4.4-6.5,4.6-25.6l0.2-17.1h-8.4V574.9 M376.3,565.1c-1.5,0.4-3.3,1.1-3.9,1.6c-5.4,4.1-8.8,9.6-10.9,17.7
		c-0.7,2.6-1.2,5.1-1.2,5.4c0,0.4,4.9,0.6,16.1,0.6h16.1v-7.3c0-8.8-0.9-12.4-3.7-15.1c-1.1-1-2.5-2.1-3.1-2.5
		C383.5,564.6,379.2,564.3,376.3,565.1 M699.2,564.9c-3.1,0.8-5.3,2.3-8.3,5.4c-3.4,3.6-5.2,7.3-7.2,14.8l-1.5,5.5H715v-7
		c0-10.2-1.9-15.3-6.5-17.7C706.4,564.8,701.6,564.3,699.2,564.9 M426.2,601.9c-2.1,2.5-2,4.9,0.2,7.2c2,2,4,2.2,6.6,0.9
		c3-1.6,3.5-6.3,0.9-8.5C431.5,599.4,428.2,599.6,426.2,601.9 M439.7,601.1c-4.4,3.1-1.8,9.8,3.8,9.8c2.1,0,5.1-3,5.1-5.1
		c0-1.8-1-3.9-2.3-4.9C444.8,599.8,441.3,599.9,439.7,601.1 M640.2,601.6c-2.2,2.2-2.1,5.7,0.4,7.7c2.5,2.1,4.9,2,7.2-0.2
		c1.3-1.3,1.7-2.3,1.7-3.8C649.5,600.7,643.5,598.3,640.2,601.6 M653.6,600.9c-2.8,2.1-3.1,5.8-0.6,8.2c2,2,4,2.2,6.6,0.9
		c3-1.6,3.5-6.3,0.9-8.5C658.8,600,655.2,599.7,653.6,600.9"/>
</g>
</svg>
