<?xml version="1.0" encoding="utf-8"?>
<!-- Generator: Adobe Illustrator 27.6.1, SVG Export Plug-In . SVG Version: 6.00 Build 0)  -->
<svg version="1.1" id="Layer_1" xmlns="http://www.w3.org/2000/svg" xmlns:xlink="http://www.w3.org/1999/xlink" x="0px" y="0px"
	 viewBox="0 0 660.2 660.2" style="enable-background:new 0 0 660.2 660.2;" xml:space="preserve">
<style type="text/css">
	.st0{fill:#F09F45;}
	.st1{fill:#927CF6;}
	.st2{fill:#62BE38;}
	.st3{fill:#ABABAB;}
	.st4{fill:#E7692B;}
	.st5{fill:#5FCEB0;}
	.st6{fill:#4D82F6;}
</style>
<g id="Layer_2_00000024714345255631593740000018057147817763596730_">
	<g id="Logo">
		<path d="M260.4,552.6c0-5.3-4-7.1-9.4-7.1h-8.6l-5.4,34.3h9.8c6,0,13.3-1.3,13.3-11c0.2-3.7-2.6-6.8-6.3-7.2
			C257.7,560.4,260.4,556.7,260.4,552.6z M256.1,569.1c0,6-3.9,7.5-9.6,7.5h-5.4l2.1-13.1h5.4C252.9,563.5,256.1,565.1,256.1,569.1z
			 M247.8,560.5h-4.1l1.9-11.9h4.7c3.4,0,6.1,1.2,6.1,4.8C256.4,558.6,252.7,560.5,247.8,560.5z"/>
		<path d="M268.5,556.5c0.2,1.4,0.2,2.7-0.1,4.1l-2.3,14.9c-0.3,1.4-0.4,2.9-0.2,4.3h3.6c-0.2-1.2-0.2-2.5,0.1-3.8l2.3-14.8
			c0.4-1.5,0.4-3.2,0.2-4.7H268.5z"/>
		<path d="M272.6,545.9c-1.6,0-3,1.3-3,2.9c0,1.2,0.9,2.2,2.1,2.2c0.1,0,0.1,0,0.2,0c1.6,0,3-1.3,3-2.9l0,0c0.1-1.1-0.8-2.1-2-2.2
			C272.7,545.9,272.7,545.9,272.6,545.9z"/>
		<path d="M297.3,560.5c-1.3-2.9-4.2-4.7-7.4-4.5c-7.1,0-12.9,6.1-12.9,14c0,6.1,3.7,9.6,9.2,9.6c3.4-0.1,6.6-1.6,8.7-4.3l-0.2,1.2
			c-0.3,2.6-1.3,5.1-2.9,7.2c-1.7,1.9-4.2,2.9-6.8,2.8c-2.8-0.1-5.5-1.2-7.6-3.1l-2.2,2.7c2.5,2.3,5.7,3.5,9.1,3.5
			c4.1,0.1,8-1.7,10.5-4.8c1.8-2,2.9-4.8,3.8-10.1l2.3-14.6c0.2-1.3,0.5-2.6,1-3.8h-3.4C297.9,557.6,297.4,559,297.3,560.5z
			 M287.4,576.5c-3.4,0-6.5-2-6.5-7.1c0-5.7,3.8-10.2,9.4-10.2c4.2,0,6.2,3.1,6.2,7.3C296.4,572.4,292.5,576.5,287.4,576.5z"/>
		<polygon points="339,545.5 316.4,545.5 315.9,548.7 325.4,548.7 320.5,579.8 324.2,579.8 329.1,548.7 338.5,548.7 		"/>
		<path d="M340.1,556.5c0.2,1.4,0.2,2.7-0.1,4.1l-2.3,14.9c-0.3,1.4-0.4,2.9-0.2,4.3h3.6c-0.2-1.2-0.2-2.5,0.1-3.8l2.3-14.8
			c0.4-1.5,0.5-3.2,0.2-4.7H340.1z"/>
		<path d="M344.2,545.9c-1.6,0-3,1.3-3,2.9c0,1.2,0.9,2.2,2.1,2.2c0.1,0,0.1,0,0.2,0c1.6,0,2.9-1.3,3-2.9c0.1-1.1-0.8-2.1-2-2.2
			C344.4,545.9,344.3,545.9,344.2,545.9z"/>
		<path d="M376.6,556c-3.2,0.2-6.2,2-7.8,4.7c-0.4-2.7-1.9-4.7-6-4.7c-2.9,0.2-5.6,1.8-7.1,4.2h-0.1c0.3-1.2,0.4-2.5,0.1-3.8H352
			c0.2,1.1,0.2,2.2,0,3.3l-3.2,20.1h3.7l2.1-13.6c0.5-3.6,3.4-7.1,7-7.1c3.2,0,3.9,2.9,3.3,6.8l-2.2,13.9h3.7l2.1-13.6
			c0.5-3.6,3.4-7.1,7-7.1c3.3,0,3.9,2.9,3.3,6.8l-1.5,9.8c-0.3,1.3-0.3,2.7,0,4.1h3.7c-0.3-1.1-0.3-2.3,0-3.5l1.7-10.6
			C383.3,560.8,382.8,556,376.6,556z"/>
		<path d="M401.3,556c-7.7,0.3-13.9,6.5-14,14.2c0,6.2,3.6,10.1,9.3,10.1c3.8,0,7.5-1.3,10.3-3.8l-1.2-2.2c-2.3,1.7-5.1,2.8-8,2.9
			c-3.5,0.2-6.5-2.4-6.7-5.9c0-0.3,0-0.6,0-0.9c0-0.5,0-1,0.1-1.5c1.8,0.3,3.7,0.4,5.5,0.5c7.4,0,12.1-2.9,12.1-7.3
			C408.7,558.3,405.7,556,401.3,556z M395.9,566.6c-1.5,0-2.9-0.1-4.3-0.4c1-4.3,4.8-7.3,9.2-7.3c2.7,0,4.5,1.3,4.5,3.2
			C405.3,564.7,401.4,566.6,395.9,566.6z"/>
		<polygon points="423.3,545.5 419.5,545.5 415.7,571.1 418.9,571.1 		"/>
		<path d="M416.7,574.8c-1.7-0.1-3.2,1.3-3.3,3c0,0.1,0,0.1,0,0.2c-0.1,1.2,0.9,2.2,2.1,2.3c0.1,0,0.2,0,0.3,0
			c1.8,0.1,3.2-1.3,3.3-3.1c0,0,0,0,0,0c0.1-1.2-0.9-2.3-2.1-2.3C416.9,574.8,416.8,574.8,416.7,574.8z"/>
		<path class="st0" d="M269.9,176.9c-2.5,5.8-4.2,12-4.9,18.3h-67.1c1-18,5.7-35.7,13.9-51.8L269.9,176.9z"/>
		<path class="st1" d="M290.9,150.3c-5.1,3.8-9.6,8.3-13.4,13.4L219.4,130c9.9-15.1,22.9-28,37.9-37.9L290.9,150.3z"/>
		<path class="st2" d="M322.5,70.6v67.1c-6.3,0.7-12.4,2.4-18.3,4.9l-33.5-58.1C286.8,76.4,304.4,71.6,322.5,70.6z"/>
		<path class="st3" d="M389.5,84.5L356,142.6c-5.8-2.5-12-4.2-18.3-4.9V70.6C355.8,71.6,373.4,76.4,389.5,84.5z"/>
		<path class="st4" d="M440.8,130l-58.1,33.6c-3.8-5.1-8.3-9.6-13.4-13.4l33.6-58.1C418,102.1,430.9,115,440.8,130z"/>
		<path class="st5" d="M462.3,195.2h-67.1c-0.7-6.3-2.4-12.4-4.9-18.3l58.1-33.6C456.6,159.5,461.3,177.1,462.3,195.2z"/>
		<path class="st6" d="M462.3,210.5c-4.2,73-66.8,128.8-139.9,124.6c-67.1-3.9-120.7-57.5-124.6-124.6H265
			c4.2,36,36.7,61.7,72.7,57.5c30.2-3.5,54-27.3,57.5-57.5L462.3,210.5L462.3,210.5z"/>
		<path d="M411.1,458.8c-14,0-25.4,11.3-25.4,25.3c0,14,11.3,25.4,25.3,25.4c14,0,25.4-11.3,25.4-25.3c0,0,0,0,0,0
			C436.4,470.2,425.1,458.8,411.1,458.8C411.1,458.8,411.1,458.8,411.1,458.8z M411.1,498c-7.7,0-13.9-6.2-13.9-13.9
			c0-7.7,6.2-13.9,13.9-13.9c7.7,0,13.9,6.2,13.9,13.9c0,0,0,0,0,0C425,491.8,418.8,498,411.1,498z"/>
		<rect x="229.8" y="388.4" width="11.5" height="49.1"/>
		<polygon points="285,437.5 296.5,437.5 296.5,417.7 314.5,388.5 301.7,388.5 290.8,408 279.8,388.5 267,388.5 285,417.7 		"/>
		<path d="M435.9,413c0-16.4-11.4-24.5-26.9-24.5h-16.6v49.1H409C424.5,437.5,435.9,429.4,435.9,413z M403.8,398h5.8
			c9.3,0,14.6,5.8,14.6,15s-5.5,14.8-14.6,14.8h-5.8V398z"/>
		<polygon points="488.4,388.5 488.4,407.4 468.7,407.4 468.7,388.5 457.2,388.5 457.2,437.5 468.7,437.5 468.7,417 488.4,417 
			488.4,437.5 499.9,437.5 499.9,388.5 		"/>
		<path d="M186.1,480.3c-1.6-0.6-5.2-1.9-7.3-2.8c-2.1-0.9-4.9-2-4.9-5c0-3,2.7-4.4,6.4-4.4c4.1,0.3,8,2,11,5l4.9-8
			c-4.3-3.8-9.8-5.9-15.6-6c-4.6-0.2-9.2,1.1-12.9,3.9c-3.2,2.6-5.1,6.6-5.1,10.7c-0.2,3.6,1.1,7.1,3.8,9.5c1.7,1.5,3.8,2.6,5.9,3.4
			c1.7,0.7,5.3,2,7.5,2.8c2.1,0.8,5.8,2.1,5.8,5.4s-2.9,5.1-6.5,5.1c-4.9-0.4-9.4-2.6-12.8-6.2l-5.8,8.4c4.7,4.5,10.9,7.2,17.4,7.4
			c9.5,0,19.1-5.2,19.1-15.8C196.8,486.6,192.4,482.6,186.1,480.3z"/>
		<polygon points="229,488 248.2,488 248.2,478.8 229,478.8 229,468.8 249.4,468.8 249.4,459.6 217.6,459.6 217.6,508.7 250,508.7 
			250,499.4 229,499.4 		"/>
		<path d="M356.9,480.3c-1.6-0.6-5.2-1.9-7.3-2.8s-5-2-5-5c0-3,2.7-4.4,6.4-4.4c4.1,0.3,8,2,10.9,5l4.9-8c-4.3-3.8-9.8-5.9-15.6-6
			c-4.6-0.2-9.2,1.1-12.9,3.9c-3.2,2.6-5.1,6.6-5.1,10.7c-0.2,3.6,1.2,7,3.8,9.5c1.7,1.5,3.7,2.7,5.8,3.5c1.7,0.7,5.3,2,7.5,2.8
			c2.1,0.8,5.8,2.1,5.8,5.4s-2.8,5.1-6.5,5.1c-4.9-0.4-9.4-2.6-12.8-6.2l-5.7,8.4c4.7,4.5,10.9,7.2,17.4,7.4
			c9.5,0,19.1-5.2,19.1-15.8C367.5,486.6,363.1,482.6,356.9,480.3z"/>
		<path d="M488.7,481.9c0,5.2,0.2,10.7,0.2,10.7l-21-33h-12.3v49.1h11.2v-22.2c0-5.2-0.2-11.1-0.2-11.1l21.5,33.3h11.8v-49.1h-11.2
			V481.9z"/>
		<path d="M200.9,403.2c0-10.7-9-14.7-18.3-14.7h-18.8v49.1h11.5v-18.8h4.9l10.3,18.7h13.4l-12.4-20.3
			C194.9,416.1,200.9,412.5,200.9,403.2z M180.9,410h-5.8v-12.6h5.8c4.3,0,8.4,1.1,8.4,6.3S185.2,409.9,180.9,410L180.9,410z"/>
		<path d="M342,388.4l-19.8,49.1h11.9l3.6-9.8h19.6l3.6,9.8h12.5l-19.6-49.1H342z M341.1,418.7l6.5-17.6l6.5,17.6H341.1z"/>
		<path d="M284.8,459.6l-19.7,49.1H277l3.6-9.8h19.7l3.6,9.8h12.6l-19.8-49.1H284.8z M284,489.9l6.5-17.6l6.5,17.6H284z"/>
	</g>
</g>
</svg>
