<svg id="Layer_1" data-name="Layer 1" xmlns="http://www.w3.org/2000/svg" viewBox="0 0 358.21 319.36"><defs><style>.cls-1{fill:#00758d;}.cls-2{fill:#3d3935;}</style></defs><polygon class="cls-1" points="36.52 318.43 48.98 318.43 60.66 280.57 56.47 280.57 36.52 318.43"/><polygon class="cls-1" points="66.63 280.57 62.44 280.57 74.12 318.43 86.58 318.43 66.63 280.57"/><path class="cls-2" d="M2.48,311.07v7.33H23.36a11.29,11.29,0,1,0-.17-22.58H12A3.93,3.93,0,0,1,8,291.9v-.09A3.91,3.91,0,0,1,12,287.89H30.79v-7.34H11.73a11.3,11.3,0,1,0,.18,22.59H23.13a3.93,3.93,0,0,1,3.93,3.92v.09a3.93,3.93,0,0,1-3.93,3.92Z"/><path class="cls-2" d="M92.49,318.43h7.15a.09.09,0,0,0,.09-.09h0V288a.11.11,0,0,1,.08-.1h12.72a4,4,0,0,1,4,4,3.93,3.93,0,0,1-3.92,3.93h-8.88s-.1,0-.09.09a.06.06,0,0,0,0,0l12.71,22.37a.09.09,0,0,0,.08,0h7.89a.09.09,0,0,0,.09-.09v0L116,303.62l-.4-.72a.09.09,0,0,1,0-.12h0l.79-.28a11.3,11.3,0,0,0-3-21.92l-.6,0H92.5a.09.09,0,0,0-.09.09v37.7a.09.09,0,0,0,.09.09h0"/><path class="cls-2" d="M136.23,318.56l.51-2.36a9.79,9.79,0,0,0,3.58.74c1.51,0,2.26-.52,2.26-1.56a1.42,1.42,0,0,0-.57-1.25,8.7,8.7,0,0,0-2.08-.89,7.09,7.09,0,0,1-2.74-1.54,3.4,3.4,0,0,1-.92-2.54,3.58,3.58,0,0,1,1.23-2.92,5.32,5.32,0,0,1,3.47-1,8.81,8.81,0,0,1,3.66.7l-.54,2.32a8,8,0,0,0-2.94-.6c-1.37,0-2.05.47-2.05,1.42a1.3,1.3,0,0,0,.47,1.11,6.3,6.3,0,0,0,1.73.84c.56.19,1.1.41,1.63.65a6.34,6.34,0,0,1,1.26.79,3,3,0,0,1,.9,1.2,4.38,4.38,0,0,1,.3,1.68,3.55,3.55,0,0,1-1.36,3,5.79,5.79,0,0,1-3.6,1,10,10,0,0,1-4.21-.8"/><path class="cls-2" d="M155.78,319.11l-.81-3h-5c-.27.91-.54,1.91-.82,3h-2.87A86.36,86.36,0,0,1,151,305.47h2.91a86.68,86.68,0,0,1,4.76,13.64Zm-3.31-10.68a47.44,47.44,0,0,0-1.84,5.3h3.65a45.34,45.34,0,0,0-1.81-5.3"/><path class="cls-2" d="M159.16,313.69v-8.22h2.78v8q0,3.39,2.63,3.39t2.61-3.39v-8H170v8.22a5.84,5.84,0,0,1-1.39,4.21,6.25,6.25,0,0,1-8,0,5.89,5.89,0,0,1-1.39-4.21"/><path class="cls-2" d="M172.68,319.11V305.47h4.56a6.75,6.75,0,0,1,4.95,1.82,6.66,6.66,0,0,1,1.84,5,6.78,6.78,0,0,1-1.85,5,6.65,6.65,0,0,1-4.94,1.84Zm4.49-11.28h-1.7v8.89h1.7q4,0,4-4.48t-4-4.41"/><rect class="cls-2" x="186.15" y="305.47" width="2.79" height="13.64"/><path class="cls-2" d="M204.71,319.11l-.82-3h-5c-.26.91-.54,1.91-.82,3h-2.86a87.51,87.51,0,0,1,4.73-13.64h2.91a85.58,85.58,0,0,1,4.77,13.64Zm-3.33-10.68a45.5,45.5,0,0,0-1.84,5.3h3.65a47.28,47.28,0,0,0-1.81-5.3"/><path class="cls-2" d="M212.91,314.05h-.84v5.06h-2.78V305.47h4a6.62,6.62,0,0,1,4,1,3.52,3.52,0,0,1,1.43,3,3.38,3.38,0,0,1-2.71,3.64,3.71,3.71,0,0,1,1.62,1.81l2,4.13h-3l-1.86-3.85a2.39,2.39,0,0,0-.73-.93,1.79,1.79,0,0,0-1.05-.28m.23-6.2h-1.11v3.86h1.07c1.77,0,2.65-.65,2.65-1.95a1.61,1.61,0,0,0-.66-1.48,3.63,3.63,0,0,0-2-.43"/><path class="cls-2" d="M229.85,319.11l-.81-3h-5c-.27.91-.54,1.91-.82,3h-2.86A87.51,87.51,0,0,1,225,305.47H228a85.58,85.58,0,0,1,4.77,13.64Zm-3.33-10.68a45.45,45.45,0,0,0-1.83,5.3h3.64a45.34,45.34,0,0,0-1.81-5.3"/><path class="cls-2" d="M239,319.11h-4.62V305.47h4.2a6.53,6.53,0,0,1,3.7.9,2.94,2.94,0,0,1,1.33,2.63,3.11,3.11,0,0,1-1.5,2.83,3.29,3.29,0,0,1,2,3.25,3.53,3.53,0,0,1-1.35,3,6.23,6.23,0,0,1-3.77,1m-1.92-11.28v3.3h2a1.54,1.54,0,0,0,1.76-1.72c0-1.05-.75-1.59-2.25-1.59Zm0,5.4v3.49h1.68a3.83,3.83,0,0,0,1.94-.4,1.37,1.37,0,0,0,.65-1.3c0-1.2-.78-1.8-2.35-1.8Z"/><rect class="cls-2" x="246.25" y="305.47" width="2.79" height="13.64"/><path class="cls-2" d="M260.26,319.11l-.82-3h-5q-.41,1.36-.81,3h-2.87a86.36,86.36,0,0,1,4.74-13.64h2.9a85.58,85.58,0,0,1,4.77,13.64Zm-3.33-10.68a45.45,45.45,0,0,0-1.83,5.3h3.64a47.28,47.28,0,0,0-1.81-5.3"/><path class="cls-2" d="M273,314.05h-.84v5.06h-2.81V305.47h4a6.62,6.62,0,0,1,4,1,3.51,3.51,0,0,1,1.42,3,3.37,3.37,0,0,1-2.71,3.64,3.62,3.62,0,0,1,1.62,1.81l2,4.13h-3l-1.86-3.85a2.37,2.37,0,0,0-.76-.93,1.77,1.77,0,0,0-1.05-.28m.26-6.22h-1.07v3.86h1.07c1.77,0,2.65-.65,2.65-1.95a1.6,1.6,0,0,0-.66-1.46,3.74,3.74,0,0,0-2-.45"/><path class="cls-2" d="M290,319.11l-.82-3h-5c-.27.91-.54,1.91-.82,3h-2.87a86.36,86.36,0,0,1,4.74-13.64h2.9a85.58,85.58,0,0,1,4.77,13.64Zm-3.33-10.68a45.5,45.5,0,0,0-1.84,5.3h3.65a45.39,45.39,0,0,0-1.82-5.3"/><rect class="cls-2" x="294.51" y="305.47" width="2.79" height="13.64"/><polygon class="cls-2" points="300.1 319.11 300.1 305.47 302.89 305.47 302.89 316.74 308.4 316.74 308.4 319.11 300.1 319.11"/><path class="cls-2" d="M321.29,316.48q.61-1.83,1.34-5c.49-2.08.86-4.1,1.13-6.06h2.85a57.8,57.8,0,0,1-3.68,13.64h-3.07a58.08,58.08,0,0,1-2.53-8.5,59.4,59.4,0,0,1-2.55,8.5h-3.06a48.08,48.08,0,0,1-2.13-6.44,72.57,72.57,0,0,1-1.53-7.2h2.82q.45,3,1.16,6.11a46.13,46.13,0,0,0,1.35,4.9,49.28,49.28,0,0,0,1.52-5.07,52.43,52.43,0,0,0,1.18-5.94h2.49a53.65,53.65,0,0,0,1.19,6,49,49,0,0,0,1.52,5"/><path class="cls-2" d="M335.69,319.11l-.81-3h-5c-.28.91-.55,1.91-.82,3h-2.87a84.37,84.37,0,0,1,4.74-13.64h2.9a85.58,85.58,0,0,1,4.77,13.64Zm-3.33-10.68a45.45,45.45,0,0,0-1.83,5.3h3.64a45.34,45.34,0,0,0-1.81-5.3"/><path class="cls-2" d="M343,319.11H340.2v-5.45a35.35,35.35,0,0,1-4.52-8.19h2.86a30.9,30.9,0,0,0,3.06,5.94,30.18,30.18,0,0,0,3-5.93h2.87a38,38,0,0,1-4.52,8.19Z"/><path class="cls-2" d="M348.32,318.56l.51-2.36a9.79,9.79,0,0,0,3.58.74c1.5,0,2.26-.52,2.26-1.56a1.42,1.42,0,0,0-.58-1.25,8.7,8.7,0,0,0-2.08-.89,7.05,7.05,0,0,1-2.73-1.54,3.4,3.4,0,0,1-.92-2.55,3.59,3.59,0,0,1,1.23-2.91,5.32,5.32,0,0,1,3.47-1,8.89,8.89,0,0,1,3.67.7l-.55,2.32a8,8,0,0,0-2.94-.6c-1.37,0-2.05.47-2.05,1.42a1.32,1.32,0,0,0,.47,1.11,6.6,6.6,0,0,0,1.73.84c.56.19,1.11.41,1.64.65a6.39,6.39,0,0,1,1.26.8,3,3,0,0,1,.9,1.19,4.42,4.42,0,0,1,.3,1.68,3.53,3.53,0,0,1-1.36,3,5.66,5.66,0,0,1-3.58,1,10.14,10.14,0,0,1-4.21-.79"/><polygon class="cls-2" points="142.73 282.8 144.25 284.26 146.06 282.43 144.21 280.57 142.73 282.05 141.21 280.57 139.38 282.43 141.23 284.26 142.73 282.8"/><path class="cls-2" d="M140.25,293.53c-1.15,0-1.8-.59-1.8-1.56,0-1.53,1.34-2.75,3.76-3.23V292a8.93,8.93,0,0,0,.1,1.16,5.36,5.36,0,0,1-2.06.4m5.81,2.55h1.61c2.88,0,4.37-1.52,4.37-3.89a41.79,41.79,0,0,0-.59-5.67H149a36.65,36.65,0,0,1,.59,5.26c0,1.1-.46,1.69-1.89,1.69h-1.62c-1,0-1.36-.51-1.36-1.38v-6.61h-2.48v1.06c-4.6.75-6.18,3.53-6.18,5.7,0,2.38,1.62,3.84,4.18,3.84a6.17,6.17,0,0,0,3-1,3.81,3.81,0,0,0,2.78,1"/><polygon class="cls-2" points="148.97 298.68 147.5 297.26 145.66 299.09 147.53 300.92 148.97 299.5 150.43 300.92 152.26 299.09 150.41 297.26 148.97 298.68"/><path class="cls-2" d="M156.73,286.52a20.68,20.68,0,0,1,2.09,5.82c0,.82-.61,1.14-2,1.14a12.77,12.77,0,0,1-3.25-.48l-.47,2.47a16,16,0,0,0,4.29.61c2.56,0,3.9-1.22,3.9-3.37a16.5,16.5,0,0,0-2-6.19Z"/><path class="cls-2" d="M179,293a23.26,23.26,0,0,0-2.6-3.78,6.56,6.56,0,0,1,2.34-.55c1.54,0,2.43.67,2.43,1.7A3.23,3.23,0,0,1,179,293m-10.79.51c-2,0-3.07-.75-3.07-2.27a2.16,2.16,0,0,1,2.1-2.32c1.16,0,1.85.73,2,2.26,0,.74.1,1.42.14,2.31l-1.12,0m36.36-1.75c0,1.16-.45,1.69-1.89,1.69a4.55,4.55,0,0,1-2.34-.59,16.15,16.15,0,0,0,.43-4.1v-1.37h-2.3v1.38a9.72,9.72,0,0,1-.44,3.76,1.59,1.59,0,0,1-1.71.93,4.44,4.44,0,0,1-2-.46,14.36,14.36,0,0,0,.48-4.23h-2.31a9.77,9.77,0,0,1-.43,3.76,1.59,1.59,0,0,1-1.71.93,4.75,4.75,0,0,1-2.09-.52,16.21,16.21,0,0,0,.45-4.17h-2.3a9.72,9.72,0,0,1-.44,3.76,1.42,1.42,0,0,1-1.49.93h0a17.64,17.64,0,0,1-2.62-.16,4.85,4.85,0,0,0,1.73-3.57c0-2-1.83-3.61-4.61-3.61a11.85,11.85,0,0,0-6.1,2.27l1,2.07.55-.3a17.31,17.31,0,0,1,2.24,3.08,28.89,28.89,0,0,1-3.84.22h-1.12c0-1.08,0-1.78-.08-2.46-.16-3-1.83-4.63-4.29-4.63a4.66,4.66,0,0,0-4.61,5c0,2.94,2,4.73,5.16,4.73h1.34c-.43,1.24-2.07,2-4.83,2v2.25c4.91,0,7-1.72,7.31-4.24h1.13a14.27,14.27,0,0,0,6.46-1.07,11.34,11.34,0,0,0,5.16,1.07h0a3.54,3.54,0,0,0,2.9-1.28,5.57,5.57,0,0,0,3.15,1.28,3.54,3.54,0,0,0,2.83-1.22,5.51,5.51,0,0,0,3.08,1.22,3.63,3.63,0,0,0,3-1.36,4.73,4.73,0,0,0,3.18,1.36h0c2.87,0,4.37-1.52,4.37-3.88V281.8h-2.47Z"/><rect class="cls-2" x="210.21" y="281.79" width="2.48" height="14.28"/><polygon class="cls-2" points="225.89 282.8 227.41 284.26 229.22 282.43 227.37 280.57 225.89 282.05 224.37 280.57 222.54 282.43 224.39 284.26 225.89 282.8"/><polygon class="cls-2" points="232.13 298.68 230.66 297.26 228.82 299.09 230.7 300.92 232.13 299.5 233.59 300.92 235.42 299.09 233.57 297.26 232.13 298.68"/><path class="cls-2" d="M223.41,293.53c-1.14,0-1.79-.59-1.79-1.56,0-1.53,1.34-2.75,3.76-3.23V292a6.41,6.41,0,0,0,.1,1.16,5.26,5.26,0,0,1-2.07.4m5.81,2.55h1.61c2.88,0,4.38-1.52,4.38-3.89a40.62,40.62,0,0,0-.6-5.67h-2.48a36.65,36.65,0,0,1,.59,5.26c0,1.1-.45,1.69-1.89,1.69h-1.61c-1.05,0-1.36-.51-1.36-1.38v-6.61h-2.48v1.06c-4.61.75-6.18,3.53-6.18,5.7,0,2.38,1.61,3.84,4.17,3.84a6.14,6.14,0,0,0,3-1,3.8,3.8,0,0,0,2.79,1"/><path class="cls-2" d="M246.1,296.08h1.62c2.87,0,4.37-1.52,4.37-3.88a41.89,41.89,0,0,0-.59-5.68H249a36.65,36.65,0,0,1,.59,5.26c0,1.11-.45,1.7-1.89,1.7h-1.61a2.09,2.09,0,0,1-2.09-1.7,37.42,37.42,0,0,1-1.05-5.26h-2.55a44.33,44.33,0,0,0,1.43,6.13l.24.61a10.92,10.92,0,0,1-5.39-.26l-.47,2.47a10.22,10.22,0,0,0,3.47.61,6.31,6.31,0,0,0,3.57-1.07,3.94,3.94,0,0,0,2.82,1.07"/><polygon class="cls-2" points="249.02 298.68 247.54 297.26 245.71 299.09 247.58 300.92 249.02 299.5 250.48 300.92 252.31 299.09 250.46 297.26 249.02 298.68"/><path class="cls-2" d="M277.3,291.78c0,1.16-.45,1.7-1.89,1.7-1.19,0-1.85-.28-2.15-.75l.62-.12.7-2.52c-3.6-.9-4.94-3.71-7.91-3.71a6.15,6.15,0,0,0-2.78.79l.68,2.21a5.08,5.08,0,0,1,2-.46c1.73,0,2.7,1.26,4.94,2.35-2.32.88-3.87,2.18-8.46,2.18h0a2.09,2.09,0,0,1-2.09-1.69,36,36,0,0,1-1.05-5.26h-2.56a46.22,46.22,0,0,0,1.44,6.13l.23.61a10.6,10.6,0,0,1-2.32.21,10.22,10.22,0,0,1-3.05-.47l-.47,2.46a10,10,0,0,0,3.42.64,6.35,6.35,0,0,0,3.58-1.07,3.91,3.91,0,0,0,2.81,1.07h0c5.22,0,6-1.81,8.71-2.88.23,1.89,1.51,2.88,3.7,2.88,2.88,0,4.37-1.52,4.37-3.88V281.8h-2.48Z"/><rect class="cls-2" x="282.95" y="281.79" width="2.48" height="14.28"/><path class="cls-2" d="M299.19,293.48c-1.07,0-2.05,0-3-.12,3.53-3.86,4.83-5.17,6.6-5.17a2.17,2.17,0,0,1,2.31,2.15c0,1.81-2.31,3.13-5.87,3.13m4-7.89c-2.08,0-3.76,1.15-6.75,4.44a18.4,18.4,0,0,0,.53-3.83V281.8h-2.48v10.46c-.22.27-.46.53-.69.79-.61-.08-1.19-.19-1.79-.31l-.5,2.45a33.86,33.86,0,0,0,7.44.89c5.5,0,8.55-2.44,8.55-6.09a4.22,4.22,0,0,0-4.31-4.39"/><polygon class="cls-2" points="342.07 283.33 340.22 281.5 338.38 283.33 340.24 285.16 342.07 283.33"/><path class="cls-2" d="M325.68,293.48h-3.05c3.43-3.8,4.84-5.28,6.58-5.28a2.16,2.16,0,0,1,2.28,2v.14c0,1.81-2.3,3.13-5.81,3.13m-11.19,0c-2,0-3.07-.75-3.07-2.27a2.17,2.17,0,0,1,2.11-2.32c1.16,0,1.85.73,2,2.26,0,.74.1,1.42.14,2.31l-1.13,0m35.06-1.75c0,1.16-.45,1.7-1.89,1.7-1.19,0-1.85-.28-2.15-.75l.62-.12.7-2.52c-3.6-.9-4.94-3.71-7.91-3.71a6.15,6.15,0,0,0-2.78.79l.69,2.21a4.9,4.9,0,0,1,2-.46c1.74,0,2.71,1.26,4.95,2.35-2.32.88-3.88,2.18-8.47,2.18h0a4.43,4.43,0,0,1-2.11-.47,5.26,5.26,0,0,0,.87-3,4.24,4.24,0,0,0-4.08-4.39h-.27c-2,0-3.78,1.19-6.62,4.48a19.4,19.4,0,0,0,.54-3.87V281.8h-2.48v10.62c-.28.35-.56.68-.83,1.06H318c0-1.08,0-1.78-.07-2.46-.16-3-1.84-4.63-4.3-4.63a4.67,4.67,0,0,0-4.63,5c0,2.94,2,4.73,5.17,4.73h1.34c-.44,1.24-2.07,2-4.83,2v2.25c4.9,0,7-1.72,7.3-4.24h7.88a9.71,9.71,0,0,0,5.86-1.64,5,5,0,0,0,3.48,1.64h0c5.22,0,6-1.81,8.71-2.88.24,1.89,1.52,2.88,3.7,2.88,2.88,0,4.37-1.52,4.37-3.88V281.8h-2.45Z"/><rect class="cls-2" x="355.21" y="281.79" width="2.48" height="14.28"/><polygon class="cls-1" points="103.87 109.57 139.9 109.57 173.69 0.05 161.59 0.05 103.87 109.57"/><polygon class="cls-1" points="190.96 0.05 178.86 0.05 212.64 109.57 248.67 109.57 190.96 0.05"/><path class="cls-2" d="M5.41,88.29v21.2H65.8a32.67,32.67,0,0,0-.5-65.34H32.82A11.35,11.35,0,0,1,21.48,32.8v-.25A11.36,11.36,0,0,1,32.82,21.2H87.28V0H32.17a32.68,32.68,0,0,0,.5,65.35H65.15A11.36,11.36,0,0,1,76.49,76.69V77A11.36,11.36,0,0,1,65.15,88.29Z"/><path class="cls-2" d="M265.76,109.57h20.68a.26.26,0,0,0,.26-.26V21.46a.26.26,0,0,1,.26-.26h36.77a11.6,11.6,0,0,1,11.6,11.6A11.35,11.35,0,0,1,324,44.14H298.3a.26.26,0,0,0-.23.39l36.84,64.71a.25.25,0,0,0,.22.13H358a.26.26,0,0,0,.23-.39L333.8,66.76l-1.17-2.11a.25.25,0,0,1,.14-.37l2.27-.81A32.68,32.68,0,0,0,326.35.07c-.57,0-1.16-.06-1.74-.07H265.76a.26.26,0,0,0-.26.26V109.31a.26.26,0,0,0,.26.26"/><polygon class="cls-2" points="16 132.99 18.42 135.31 21.3 132.4 18.36 129.45 16 131.8 13.59 129.45 10.68 132.4 13.62 135.31 16 132.99"/><path class="cls-2" d="M12.05,150.08c-1.81,0-2.85-.94-2.85-2.48,0-2.44,2.13-4.39,6-5.14v5.14a10.62,10.62,0,0,0,.16,1.85,8.67,8.67,0,0,1-3.3.63m9.25,4h2.57c4.58,0,7-2.41,7-6.17a65.23,65.23,0,0,0-.94-9H25.94a57.75,57.75,0,0,1,.94,8.37c0,1.85-.72,2.7-3,2.7H21.3c-1.66,0-2.16-.82-2.16-2.2V137.26h-4V139c-7.34,1.19-9.85,5.61-9.85,9.06,0,3.83,2.58,6.11,6.65,6.11a9.44,9.44,0,0,0,4.86-1.56,6.05,6.05,0,0,0,4.45,1.56"/><polygon class="cls-2" points="25.94 158.26 23.59 156 20.68 158.92 23.65 161.84 25.94 159.58 28.26 161.84 31.18 158.92 28.23 156 25.94 158.26"/><path class="cls-2" d="M38.29,138.92c2.14,4.45,3.33,8.09,3.33,9.25,0,1.32-1,1.82-3.23,1.82a20.55,20.55,0,0,1-5.18-.76l-.75,3.92a25.17,25.17,0,0,0,6.84,1c4.07,0,6.2-1.94,6.2-5.36,0-2.13-1.22-5.92-3.19-9.84Z"/><path class="cls-2" d="M73.72,149.27a35.52,35.52,0,0,0-4.14-6,10.14,10.14,0,0,1,3.73-.88c2.45,0,3.86,1.06,3.86,2.69s-1.38,3.26-3.45,4.21m-17.18.81c-3.17,0-4.89-1.19-4.89-3.6a3.44,3.44,0,0,1,3.35-3.7c1.85,0,3,1.15,3.11,3.6.06,1.16.15,2.26.21,3.67-.46,0-1,0-1.78,0m57.87-2.79c0,1.85-.72,2.7-3,2.7a7.28,7.28,0,0,1-3.73-.94,25.36,25.36,0,0,0,.69-6.52v-2.2h-3.67v2.2c0,3-.16,4.85-.69,6a2.59,2.59,0,0,1-2.73,1.48,7.11,7.11,0,0,1-3.1-.72,23.83,23.83,0,0,0,.75-6.74H95.26c0,3-.16,4.85-.69,6A2.6,2.6,0,0,1,91.84,150a7.53,7.53,0,0,1-3.32-.82,26,26,0,0,0,.72-6.64H85.57c0,3-.16,4.85-.69,6A2.26,2.26,0,0,1,82.5,150h-.07a28.51,28.51,0,0,1-4.16-.25A7.74,7.74,0,0,0,81,144c0-3.2-2.91-5.74-7.33-5.74-2.73,0-6.18,1.29-9.72,3.61l1.63,3.29c.31-.16.6-.31.88-.47a28.47,28.47,0,0,1,3.57,4.92,43.33,43.33,0,0,1-6.11.35H62.15c0-1.73-.06-2.83-.12-3.92-.25-4.71-2.92-7.37-6.84-7.37-4.2,0-7.34,3.35-7.34,7.9s3.24,7.52,8.22,7.52H58.2c-.69,2-3.29,3.17-7.68,3.17v3.57c7.8,0,11.1-2.72,11.63-6.74h1.79c4.82,0,7.08-.34,10.28-1.69a18,18,0,0,0,8.21,1.69h.07a5.66,5.66,0,0,0,4.61-2c2.07,1.38,3.41,2,5,2a5.65,5.65,0,0,0,4.55-1.94c2,1.32,3.32,1.94,4.89,1.94a5.76,5.76,0,0,0,4.76-2.16,7.56,7.56,0,0,0,5.08,2.16c4.58,0,7-2.41,7-6.17V131.4h-4Z"/><rect class="cls-2" x="123.41" y="131.39" width="3.95" height="22.73"/><polygon class="cls-2" points="148.36 132.99 150.78 135.31 153.66 132.4 150.71 129.45 148.36 131.8 145.95 129.45 143.03 132.4 145.98 135.31 148.36 132.99"/><polygon class="cls-2" points="158.3 158.26 155.95 156 153.03 158.92 156.01 161.84 158.3 159.58 160.62 161.84 163.53 158.92 160.59 156 158.3 158.26"/><path class="cls-2" d="M144.41,150.08c-1.82,0-2.85-.94-2.85-2.48,0-2.44,2.13-4.39,6-5.14v5.14a11.75,11.75,0,0,0,.15,1.85,8.62,8.62,0,0,1-3.29.63m9.25,4h2.57c4.58,0,7-2.41,7-6.17a65.23,65.23,0,0,0-.94-9H158.3a57.75,57.75,0,0,1,.94,8.37c0,1.85-.72,2.7-3,2.7h-2.57c-1.66,0-2.16-.82-2.16-2.2V137.26h-3.95V139c-7.34,1.19-9.85,5.61-9.85,9.06,0,3.83,2.57,6.11,6.65,6.11a9.5,9.5,0,0,0,4.86-1.56,6,6,0,0,0,4.45,1.56"/><path class="cls-2" d="M180.52,154.12h2.58c4.57,0,7-2.41,7-6.17a65.69,65.69,0,0,0-.95-9h-4a58.25,58.25,0,0,1,1,8.37c0,1.85-.73,2.7-3,2.7h-2.58a3.35,3.35,0,0,1-3.32-2.7,57.7,57.7,0,0,1-1.66-8.37h-4.07a70.44,70.44,0,0,0,2.28,9.75l.38,1a17.1,17.1,0,0,1-3.7.35,16.9,16.9,0,0,1-4.86-.76l-.75,3.92a16,16,0,0,0,5.52,1,10.11,10.11,0,0,0,5.7-1.69,6.27,6.27,0,0,0,4.48,1.69"/><polygon class="cls-2" points="185.16 158.26 182.81 156 179.9 158.92 182.88 161.84 185.16 159.58 187.48 161.84 190.4 158.92 187.45 156 185.16 158.26"/><path class="cls-2" d="M230.18,147.29c0,1.85-.72,2.7-3,2.7-1.91,0-2.94-.44-3.42-1.19l1-.19,1.12-4c-5.73-1.44-7.86-5.89-12.6-5.89A9.72,9.72,0,0,0,208.8,140l1.1,3.51a7.89,7.89,0,0,1,3.13-.72c2.76,0,4.3,2,7.87,3.73-3.7,1.41-6.17,3.48-13.48,3.48h0a3.34,3.34,0,0,1-3.32-2.7,57.7,57.7,0,0,1-1.66-8.37h-4.08a71.73,71.73,0,0,0,2.29,9.75l.38,1a17.16,17.16,0,0,1-3.7.35,16.8,16.8,0,0,1-4.86-.76l-.75,3.92a16,16,0,0,0,5.51,1,10.17,10.17,0,0,0,5.71-1.69,6.26,6.26,0,0,0,4.48,1.69h0c8.31,0,9.63-2.88,13.86-4.57.37,3,2.41,4.57,5.89,4.57,4.58,0,7-2.41,7-6.17V131.4h-3.95Z"/><rect class="cls-2" x="239.18" y="131.39" width="3.95" height="22.73"/><path class="cls-2" d="M265,150c-1.69,0-3.26-.07-4.83-.19,5.61-6.15,7.68-8.21,10.5-8.21a3.44,3.44,0,0,1,3.67,3.41c0,2.89-3.67,5-9.34,5m6.43-12.54c-3.33,0-6,1.81-10.79,7.05a29.47,29.47,0,0,0,.85-6.08v-7h-3.95V148c-.35.44-.72.85-1.1,1.29-1-.13-1.91-.32-2.85-.5l-.75,3.88a53.34,53.34,0,0,0,11.85,1.42c8.74,0,13.6-3.89,13.6-9.69a6.72,6.72,0,0,0-6.86-7"/><polygon class="cls-2" points="333.26 133.84 330.31 130.93 327.39 133.84 330.34 136.76 333.26 133.84"/><path class="cls-2" d="M307.17,150h-4.85c5.45-6.06,7.71-8.41,10.47-8.41a3.42,3.42,0,0,1,3.63,3.42c0,2.88-3.66,5-9.25,5m-17.8.09c-3.17,0-4.89-1.19-4.89-3.6a3.44,3.44,0,0,1,3.35-3.7c1.85,0,2.95,1.15,3.11,3.6.06,1.16.15,2.26.22,3.67-.48,0-1,0-1.79,0m55.8-2.79c0,1.85-.72,2.7-3,2.7-1.91,0-3-.44-3.42-1.19l1-.19,1.12-4c-5.73-1.44-7.87-5.89-12.6-5.89a9.72,9.72,0,0,0-4.45,1.29l1.1,3.51a7.85,7.85,0,0,1,3.13-.72c2.76,0,4.3,2,7.87,3.73-3.7,1.41-6.17,3.48-13.48,3.48h0a7.15,7.15,0,0,1-3.35-.76,8.57,8.57,0,0,0,1.37-4.79,6.74,6.74,0,0,0-6.86-7c-3.17,0-6,1.88-10.54,7.11a30,30,0,0,0,.85-6.14v-7h-4v16.89c-.44.57-.88,1.1-1.32,1.7H295c0-1.73-.06-2.83-.13-3.92-.25-4.71-2.91-7.37-6.83-7.37-4.2,0-7.34,3.35-7.34,7.9s3.23,7.52,8.22,7.52H291c-.69,2-3.29,3.17-7.68,3.17v3.57c7.81,0,11.1-2.72,11.63-6.74h12.54a15.5,15.5,0,0,0,9.31-2.6,7.93,7.93,0,0,0,5.55,2.6h0c8.31,0,9.62-2.88,13.86-4.57.37,3,2.41,4.57,5.89,4.57,4.58,0,7-2.41,7-6.17V131.4h-3.95Z"/><rect class="cls-2" x="354.17" y="131.39" width="3.95" height="22.73"/><path class="cls-2" d="M5.82,190.5l.81-3.75a16.15,16.15,0,0,0,5.71,1.18q3.6,0,3.6-2.49a2.27,2.27,0,0,0-.92-2,14.14,14.14,0,0,0-3.3-1.41,11.3,11.3,0,0,1-4.36-2.45,5.41,5.41,0,0,1-1.47-4,5.67,5.67,0,0,1,2-4.61,8.41,8.41,0,0,1,5.52-1.63,14.1,14.1,0,0,1,5.83,1.12l-.87,3.69a12.8,12.8,0,0,0-4.68-1c-2.17,0-3.26.76-3.26,2.26a2.11,2.11,0,0,0,.75,1.77,10.29,10.29,0,0,0,2.76,1.31,24.91,24.91,0,0,1,2.6,1,9.51,9.51,0,0,1,2,1.27,4.76,4.76,0,0,1,1.44,1.92,7.06,7.06,0,0,1,.46,2.68,5.56,5.56,0,0,1-2.15,4.7,9.13,9.13,0,0,1-5.72,1.66,16,16,0,0,1-6.71-1.27"/><path class="cls-2" d="M36.94,191.4l-1.3-4.78h-8c-.43,1.45-.87,3-1.3,4.78H21.77a136.91,136.91,0,0,1,7.54-21.72h4.62A134.79,134.79,0,0,1,41.5,191.4Zm-5.31-17a73.38,73.38,0,0,0-2.91,8.44h5.8a71.67,71.67,0,0,0-2.89-8.44"/><path class="cls-2" d="M42.31,182.78V169.69h4.43v12.78q0,5.39,4.19,5.39t4.16-5.39V169.69h4.43v13.09q0,4.36-2.2,6.68a8.42,8.42,0,0,1-6.39,2.31,8.48,8.48,0,0,1-6.41-2.31c-1.48-1.54-2.21-3.77-2.21-6.68"/><path class="cls-2" d="M63.83,191.4V169.68h7.26a10.87,10.87,0,1,1,0,21.72ZM71,173.47h-2.7v14.15H71q6.33,0,6.33-7.14t-6.33-7"/><rect class="cls-2" x="85.27" y="169.69" width="4.44" height="21.72"/><path class="cls-2" d="M114.8,191.4l-1.3-4.78h-8q-.64,2.17-1.3,4.78H99.63a137.92,137.92,0,0,1,7.54-21.72h4.62a134.79,134.79,0,0,1,7.57,21.72Zm-5.3-17a71,71,0,0,0-2.92,8.44h5.8a74.21,74.21,0,0,0-2.88-8.44"/><path class="cls-2" d="M127.86,183.34h-1.33v8.06h-4.47V169.68h6.39a10.39,10.39,0,0,1,6.3,1.68,5.59,5.59,0,0,1,2.26,4.78c0,3.12-1.43,5.05-4.31,5.8a5.75,5.75,0,0,1,2.57,2.88l3.17,6.58h-4.78l-2.95-6.14a4,4,0,0,0-1.18-1.47,2.86,2.86,0,0,0-1.67-.45m.37-9.87h-1.7v6.14h1.7c2.82,0,4.22-1,4.22-3.1a2.6,2.6,0,0,0-1-2.36,6,6,0,0,0-3.17-.68"/><path class="cls-2" d="M154.82,191.4l-1.3-4.78h-8q-.64,2.17-1.3,4.78h-4.56a137.92,137.92,0,0,1,7.54-21.72h4.62a134.79,134.79,0,0,1,7.57,21.72Zm-5.31-17a73.38,73.38,0,0,0-2.91,8.44h5.8a71.67,71.67,0,0,0-2.89-8.44"/><path class="cls-2" d="M169.43,191.4h-7.35V169.69h6.7a10.48,10.48,0,0,1,5.88,1.42,4.74,4.74,0,0,1,2.12,4.19,5,5,0,0,1-2.39,4.5,5.26,5.26,0,0,1,3.2,5.18,5.63,5.63,0,0,1-2.16,4.81,9.88,9.88,0,0,1-6,1.61m-3-17.93v5.24h3.19c1.87,0,2.8-.91,2.8-2.73q0-2.5-3.57-2.51Zm0,8.59v5.55h2.67a6.23,6.23,0,0,0,3.09-.61,2.24,2.24,0,0,0,1-2.08q0-2.86-3.75-2.86Z"/><rect class="cls-2" x="180.91" y="169.69" width="4.44" height="21.72"/><path class="cls-2" d="M203.21,191.4l-1.3-4.78h-8c-.44,1.45-.87,3-1.31,4.78H188a137.92,137.92,0,0,1,7.54-21.72h4.62a134.79,134.79,0,0,1,7.57,21.72Zm-5.3-17a71,71,0,0,0-2.92,8.44h5.8a74.21,74.21,0,0,0-2.88-8.44"/><path class="cls-2" d="M223.5,183.34h-1.33v8.06H217.7V169.68h6.39a10.34,10.34,0,0,1,6.29,1.68,5.6,5.6,0,0,1,2.27,4.78q0,4.68-4.31,5.8a5.75,5.75,0,0,1,2.57,2.88l3.17,6.58H229.3l-3-6.14a4,4,0,0,0-1.18-1.47,2.89,2.89,0,0,0-1.67-.45m.37-9.87h-1.7v6.14h1.7q4.22,0,4.22-3.1a2.59,2.59,0,0,0-1.06-2.36,5.91,5.91,0,0,0-3.16-.68"/><path class="cls-2" d="M250.46,191.4l-1.31-4.78h-8c-.43,1.45-.87,3-1.3,4.78h-4.56a138,138,0,0,1,7.53-21.72h4.63A135.77,135.77,0,0,1,255,191.4Zm-5.31-17a71.45,71.45,0,0,0-2.91,8.44H248a73.64,73.64,0,0,0-2.89-8.44"/><rect class="cls-2" x="257.71" y="169.69" width="4.44" height="21.72"/><polygon class="cls-2" points="266.62 191.4 266.62 169.69 271.05 169.69 271.05 187.62 279.83 187.62 279.83 191.4 266.62 191.4"/><path class="cls-2" d="M300.34,187.21q1-2.91,2.14-7.88t1.8-9.64h4.53q-2.21,13.4-5.87,21.71h-4.87a91.85,91.85,0,0,1-4-13.52A95.11,95.11,0,0,1,290,191.4h-4.87a79.91,79.91,0,0,1-3.39-10.25q-1.55-5.88-2.45-11.46h4.5c.48,3.16,1.09,6.4,1.85,9.72a73.65,73.65,0,0,0,2.12,7.8,82.33,82.33,0,0,0,2.46-8.08,84.5,84.5,0,0,0,1.86-9.44h4a86.09,86.09,0,0,0,1.89,9.55,75.19,75.19,0,0,0,2.42,8"/><path class="cls-2" d="M323.26,191.4l-1.3-4.78h-8c-.44,1.45-.87,3-1.31,4.78h-4.56a139,139,0,0,1,7.54-21.72h4.62a134.79,134.79,0,0,1,7.57,21.72Zm-5.3-17a71,71,0,0,0-2.92,8.44h5.8A74.21,74.21,0,0,0,318,174.4"/><path class="cls-2" d="M334.86,191.4h-4.43v-8.69a56.11,56.11,0,0,1-7.2-13h4.56a48.83,48.83,0,0,0,4.87,9.44,48.2,48.2,0,0,0,4.84-9.44h4.56a58.94,58.94,0,0,1-7.2,13Z"/><path class="cls-2" d="M343.36,190.5l.81-3.75a16.15,16.15,0,0,0,5.71,1.18q3.6,0,3.6-2.49a2.27,2.27,0,0,0-.92-2,14.14,14.14,0,0,0-3.3-1.41,11.3,11.3,0,0,1-4.36-2.45,5.41,5.41,0,0,1-1.47-4,5.67,5.67,0,0,1,1.95-4.61,8.41,8.41,0,0,1,5.52-1.63,14.18,14.18,0,0,1,5.84,1.12l-.87,3.69a12.89,12.89,0,0,0-4.69-1c-2.17,0-3.26.76-3.26,2.26a2.11,2.11,0,0,0,.75,1.77,10.29,10.29,0,0,0,2.76,1.31,24.91,24.91,0,0,1,2.6,1,9.51,9.51,0,0,1,2,1.27,4.76,4.76,0,0,1,1.44,1.92,7.06,7.06,0,0,1,.46,2.68,5.56,5.56,0,0,1-2.15,4.7,9.13,9.13,0,0,1-5.72,1.66,15.94,15.94,0,0,1-6.71-1.27"/></svg>