<?xml version="1.0" encoding="utf-8"?>
<!-- Generator: Adobe Illustrator 25.0.0, SVG Export Plug-In . SVG Version: 6.00 Build 0)  -->
<svg version="1.1" id="Layer_1" xmlns="http://www.w3.org/2000/svg" xmlns:xlink="http://www.w3.org/1999/xlink" x="0px" y="0px"
	 viewBox="0 0 512 512" enable-background="new 0 0 512 512" xml:space="preserve">
<g>
	<g id="Shape_3">
		<g>
			<path fill="#191919" d="M357.904,206.476c0,48.968,0,97.95,0,146.918c7.681,0,15.364,0,23.045,0c0-48.79,0-97.594,0-146.384
				C373.516,209.665,364.518,210.359,357.904,206.476z"/>
		</g>
	</g>
	<g id="Shape_4">
		<g>
			<path fill="#023EDC" d="M368.917,144.516c-18.002,0-29.115,14.529-29.115,29.159c0,14.401,10.939,29.057,29.115,29.057
				c18.74,0,29.113-14.484,29.113-29.057C398.03,159.131,386.351,144.516,368.917,144.516z M378.621,183.573
				c-10.968,2.98-17.573,4.715-23.183,12.304c0.363-6.476,2.693-9.411,5.392-13.374c-17.247-8.828-0.945-29.307,10.783-33.171
				c8.128-0.438,8.668,0.254,10.244,2.14c-1.438,4.102-2.876,8.204-4.314,12.305c-5.937-1.659-10.407-0.51-14.556,2.139
				c-0.179,0.179-0.36,0.358-0.539,0.536c3.83,5.961,13.346,5.912,21.027,3.745C381.857,174.655,380.238,179.114,378.621,183.573z"
				/>
		</g>
	</g>
	<g id="Shape_2">
		<g>
			<path fill="#FFCC00" d="M393.007,328.676c0,8.24,0,16.482,0,24.723c29.314,0,58.639,0,87.954,0c0-8.241,0-16.482,0-24.723
				C451.646,328.676,422.322,328.676,393.007,328.676z M118.955,328.676c-29.315,0-58.639,0-87.955,0c0,8.24,0,16.482,0,24.723
				c35.751,0,71.511,0,107.261,0c0-0.179,0-0.359,0-0.538C125.734,351.776,118.453,342.791,118.955,328.676z M156.281,170.671
				c-13.249,0.015-23.199,0-23.199,1.613c0,3.977,11.467,3.054,32.53,3.761c27.813,0.935,44.017,31.22,55.24,53.743
				c0.179,0.179,0.358,0.359,0.536,0.538c2.86-4.837,6.365-10.965,9.224-15.8c-0.309-3.09-5.562-9.811-8.688-13.758
				C196.583,168.773,181.466,170.643,156.281,170.671z"/>
		</g>
	</g>
	<text transform="matrix(1.3291 0 0 1 224.9601 353.399)" fill="#FFCC00" font-family="'Arial-Black'" font-size="33.4407px">TAXI</text>
	<g id="Shape_5">
		<g>
			<path fill="#191919" d="M319.463,237.992c-3.747-5.688-16.23-20.282-28.272-20.282c-5.364,0-35.008,0-49.876,0
				c-3.034,5.904-6.011,10.467-9.503,16.371c17.733,0,32.66,0,50.327,0c21.108,10.681,21.063,32.137,33.578,45.759
				c0.434,0.472,0,1.547,0.017,2.281c-39.079,0-78.17,0-117.249,0c17.493,29.343,3.149,57.292-28.375,71.389
				c8.286-0.134,20.782,0.311,22.076-0.134c19.149-6.575,31.463-31.32,31.463-48.174c41.399,0,81.74,0,123.139,0
				c0-8.23,0-17.133,0-25.363C333.06,268.804,322.219,242.174,319.463,237.992z"/>
		</g>
	</g>
	<g id="Shape_9">
		<g>
			<rect x="31.015" y="362.805" fill="#191919" width="449.985" height="4.678"/>
		</g>
	</g>
	<g id="Shape_6">
		<g>
			<path fill="#191919" d="M168.474,280.562c-16.166,0-41.97,15.368-41.97,43.364c0,16.32,13.261,25.373,26.648,25.373
				c24.363,0,42.103-22.892,42.103-42.289C195.255,292.892,185.208,280.562,168.474,280.562z M173.27,311.169
				c0,8.589-9.737,18.529-20.385,18.529c-3.85,0-8.261-4.833-8.261-9.265c0-12.484,10.126-22.686,17.988-22.686
				C175.002,297.747,173.27,307.664,173.27,311.169z"/>
		</g>
	</g>
	<g id="Shape_7">
		<g>
			<path fill="#191919" d="M335.165,312.388c-6.944,0-12.573,2.875-12.573,6.419c0,3.545,5.628,6.42,12.573,6.42
				s12.574-2.875,12.574-6.42C347.739,315.263,342.109,312.388,335.165,312.388z"/>
		</g>
	</g>
</g>
</svg>
