<?xml version="1.0" encoding="utf-8"?>
<!-- Generator: Adobe Illustrator 24.2.0, SVG Export Plug-In . SVG Version: 6.00 Build 0)  -->
<svg version="1.1" id="Layer_1" xmlns="http://www.w3.org/2000/svg" xmlns:xlink="http://www.w3.org/1999/xlink" x="0px" y="0px"
	 viewBox="0 0 1007.9 820.8" style="enable-background:new 0 0 1007.9 820.8;" xml:space="preserve">
<style type="text/css">
	.st0{fill:#009AAC;}
	.st1{fill:#3DC2C2;}
</style>
<g>
	<path class="st0" d="M520.5,475.4c-1.7,0.9-3.2,0.9-4.7,0.9c0.3,3.2,0.5,7.8,0.6,8.2v1.7c0,0,0,0.2,0.2,0.2v0.2
		c0,0.2,0,0.3,0.2,0.5c0.9,4.4,0.8,11-0.8,14c-1.4,2.6-2,9-3.2,11.7c-1.4,3.4-2.1,4.9-2.7,5.9c4.3-4.4,8.7-9.1,11.7-14.3
		c4-7,6.3-11,8.1-18.8c0.5-2,1.4-8.1,2-12.2c-3.4,0.8-6.7,2-10.2,2C521.1,475.2,520.8,475.2,520.5,475.4L520.5,475.4z M687.1,455.6
		v-0.9c0-0.5-0.2-1.2,0-1.7v-2.7c0.2-0.5,0.3-0.9,0.3-1.4v-0.5c0.2-0.6,0.5-1.4,0.8-2.1c0.5-1.7,0.9-3.4,1.5-4.9
		c0.2-0.5,0.3-0.8,0.6-1.1c0.5-0.8,0.8-1.4,1.2-2.1v0.5c0.8-1.4,1.2-3,2-4.3c0.6-0.9,1.5-1.7,2.3-2.4c0.3-0.5,0.8-0.9,1.2-1.2
		l-5.8,3.8c-1.8,1.2-3.5,2.6-5.2,4c-0.6,0.2-1.1,0.2-1.7,0.3c-2.6,1.7-5.5,2.3-7.8,4.3c-0.3,0.3-1.4,0-1.5,0
		c-3.4,0.6-6.7,1.7-9.8,2.9c-1.1,0-2,0-2.9,0.2c-0.5,0-0.9,0.2-1.4,0.3c-0.5,0.2-0.9,0.3-1.4,0.6c-0.9-0.6-2-0.6-2.9-0.6v0.6
		c-1.7-0.6-3.4-0.9-5.2-0.8c-0.3,0-1.1,0.3-1.4,0.6l-0.5-0.9c-1.5,0-3-0.6-4.6-1.1c-0.8-0.3-1.5-0.5-2.3-0.6
		c-0.8-0.2-1.5-0.3-2.3-0.3c-0.2-0.2-0.2-0.3-0.3-0.6c-0.6-0.2-1.1-0.6-1.7-0.8c-0.6,0-1.1,0.3-1.7,0.2c-1.2-0.5-1.7-1.5-2.9-2
		c-1.2-0.6-3-1.2-4.1-2.6c-0.9-0.6-1.7-1.1-2.6-1.7l-0.6-0.5c-1.8-1.4-3.7-2.6-5.5-4l-0.8-0.9c-0.9,1.1-2.1,2-3.5,2.7s-2.7,2-4.1,3
		c-0.5,0.3-0.8,1.1-1.4,1.2c-1.1,0.5-2,0.3-2.9,0.9s-1.5,1.8-2.3,2.6c-0.5,0.5-1.1,0.8-1.7,0.9c-2.7,0.6-5.2,0.9-7.9,1.4
		c-0.9,0.2-1.7,0.5-2.1,1.5c-0.3,0.6-0.5,1.1-0.9,1.4c0.8,1.1,1.5,2,2.6,2.7c0.3,0.3,0.8,0.2,1.1,0.5c0.5,0.5,0.6,0.9,0.9,1.5
		l1.2,2.1l0.9-0.3l0.5,0.5c0.6,0.5,1.2,0.9,1.7,1.5c1.1,1.1,2.3,2.1,3.5,3c0.5,0.3,0.8,0.2,1.1,0.3c0.9,0.3,1.1,1.5,1.8,2.1
		c2,1.5,9.3,2.9,11.4,4c0.8,0.8,7.6,3.4,8.4,4.1c2.3,1.1-6.3,1.1-3.8,2.1c2.4,1.1,2.1,1.2,4.6,1.8c0.6,0.2,2.7,1.4,3.4,1.5
		c0.6,0.2,2-0.8,2.4-0.6c1.1,0.5,2.3,0.8,3.4,1.1c1.1,0.5,2.3,0.6,3.4,0.9c1.2,0.2,2.3,0.3,3.5,0.2c0.6,0,7-1.2,8.2-1.4
		c1.4-0.2,2-0.6,3.4-0.8c0.6-0.2,1.2-0.2,1.8-0.2c0.6,0,1.4-0.2,2-0.2c1.1-0.5,2-1.1,2.9-1.7c2.1,0.2,4.3-0.9,5.9-2.6l1.7-0.5
		c0.5-0.6,0.9-1.4,1.4-2.1c0.2,0.2,0.3,0.3,0.6,0.3v0.5l0.2,0.3c1.1-0.6,2.6-2.6,3.4-3c0.8-0.5,0.8,0.2,1.4-0.2
		c0.3-0.5,0.6-1.1,0.9-1.5c0.3-0.2,0.6,0.2,1.1,0c0.5-0.2,0.9-0.6,1.2-0.9l0.3-0.3l0.2-0.2l0.2-0.2l0.5-0.5c0.2-0.2,0.3-0.3,0.5-0.6
		c0.3-0.5,0.5-0.5,0.6-0.6c0.2-0.2,0.5-0.3,0.6-0.5c0.5-0.3,0.8-0.6,0.9-1.2c0.8-0.5,0.6-0.9,0-1.2v-0.2c0.3,0.2,0.5,0.5,0.8,0.9
		c0.2-0.2,0.3-0.3,0.3-0.5v-0.3C687,456,687.1,455.9,687.1,455.6L687.1,455.6z M604.2,417.4c-2.4-1.2-4.9-3.5-6.9-5.3
		c-0.6-0.6-0.6-0.8-1.2-1.4c-1.5-0.8-2.6-2.1-4.1-2.9l-1.2-1.4c-1.1-0.6-2.1-1.2-3.2-2c-0.5-0.5-0.9-0.8-1.5-1.2l-0.5-0.3l-0.2-0.2
		c0,0-0.2-0.2-0.3-0.2c-0.5-0.3-0.9-0.6-1.2-0.9c-0.2,0.2-0.3,0.3-0.3,0.6c-0.9-0.8-2.1-1.2-3.4-1.4c-0.5,0.2-0.8,0.3-1.2,0.5
		s-0.8,0.5-1.2,0.5c-2.4,0.3-4.4,1.2-6.6,2.3c-1.8,0.9-3.5,1.8-5.3,2.7c-0.5,0.3-0.9,0.6-0.9,1.2c-5,1.2-9.6,3.2-14.3,5
		c-2.7,0.9-5.6,1.7-8.1,3.4c-0.8,0.5-1.5,1.2-2.1,1.8v0.2c2,0.9,8.1-1.8,10.5-0.9c2.4,0.9,6.3-0.5,7.6,0.3c2.7,1.5,4.4,0.8,6.6,2.1
		c0.5,0.3,0.8,0.6,1.1,1.1s0.8,0.8,1.2,1.2c0.3,0.2,0.5,0.5,0.8,0.6l0.8,0.6c0.5,0.3,0.9,0.8,1.5,1.1c0.3,0.2,0.3,0.3,0.5,0.3
		l0.5,0.3l0.8,0.6c1.1,0.8,1.8,2.7,3,2.9c0,0.3-0.2,0.5,0.2,0.8c0.9,0.9,2.1,1.8,3.2,2.7c1.2-0.6,2.4-1.4,3.8-2.1l21.7-11.6
		C604,417.9,604,417.8,604.2,417.4L604.2,417.4z M526.4,448.1c0.3-0.2,0.5-0.2,0.8-0.2c1.4-0.2,2.7-0.3,4.1-0.6
		c-0.2-0.6-0.2-1.2-0.3-1.8c-1.2-6.3-2-12.7-4.4-18.5c-0.9-2.1-2.1-4.3-3-6.4c-1.5-3.4-4-4.1-5.3-7.6c-0.9-2-1.2-3.8-3.4-4
		c-1.4-0.2-2.3-2.9-3.4-3.8c-4.6-4.6-9.1-6.7-15.6-7.3c-0.8,0-1.5,0.2-2.1,0c-2.7-1.2-4.7,0.3-6.7,2.4c0.8,1.4,1.4,2.7,2.1,4.3
		c-0.3,0.2-0.8,0.5-1.1,0.6c0,0.2,0.2,0.3,0.2,0.6c-0.3,0.5-0.5,1.1-0.5,1.5c-0.9,0.3-1.7,0.9-2.1,1.7c-0.9,1.8-1.8,3.7-2.6,5.5
		c-0.9,2.3-1.7,4.7-2.4,7.2c-0.3,1.1-0.6,2.1-0.9,3.4c-0.8,3-2.1,6.3-2.7,9.5c0.3-0.2,0.8-0.6,1.8-1.4c2.3-1.7,1.7-2.3,4.1-2.1
		c2,0.2,3.2-0.9,4.7,0.2c3.2,2.1,6.6,3.8,9,6.7c3.5,4.1,6.1,8.1,7.9,13.1c0.9,0,2,0,2.9-0.2c3-0.2,6.3-0.6,9.1-0.9
		C522.1,448.9,526.4,447.9,526.4,448.1z M440.7,435.3c-0.3-0.6-0.6-1.1-0.9-1.8c-0.3-0.8-0.5-1.5-0.3-2.3c0-0.2,0.3-0.2,0.3-0.3
		c0.2,0,0.3,0.2,0.5,0.2h0.2c0,0,0.2,0,0.2-0.2s0.2-0.5,0.2-0.6h-0.9c0,0,0,0.3-0.2,0.3s-0.3-0.2-0.5,0l0.2,0.2l-0.2,0.2H439
		c-0.5-0.3-0.9-0.6-0.8-1.1c0-0.2,0.3-0.2,0.3-0.3c0-0.2-0.2-0.2-0.2,0c-0.2,0-0.2,0.2-0.5,0.3c-0.2-0.3-0.3-0.5-0.5-0.8l-0.3,0.3
		l-1.4,1.4c-1.2,1.2-3,2.4-4.3,3.7c-1.2,1.2-1.5,1.5-3,2.4c-0.3,0.2-2,1.2-2.1,1.4c-0.3,0.2-1.2,1.8-1.5,2c-1.7,1.1-2.1,1.4-3.8,2.6
		c-0.5,0.3-0.8,0.8-1.2,1.1c-0.2,0.2-0.5,0.3-0.5,0.5c-0.2,0.6-0.9-0.2-1.4,0.2c-1.5,1.1-2.7,2-4.3,3c-1.5,1.2-2.6,2.7-4.6,3.5
		c-0.3,0.2-0.8,1.2-1.1,1.5c-0.6,0.5-1.4,0.9-2.3,0.9c-0.2,0-0.8,0.6-0.9,0.8c-1.2,1.2-2.4,1.5-3.7,2.6c-0.2,0.2-0.2,0.3-0.3,0.5
		c-1.1,0.5-2,0.9-2.9,1.8c-0.6,0.6-1.5,0.9-2.3,1.2c-0.9-0.2-1.2,0.3-1.5,1.1c-1.2,0.6-2.6,1.4-3.8,2.1c-1.7,0.9-3,1.8-4.3,3.2
		c-1.5,0.3-2.1,1.2-3.5,2.1c-0.5,0.3-1.5,0.3-2,0.6c-0.5,0-0.8,0.8-1.2,1.2c-0.8,0.6-1.5,0.2-2,1.2c0,0.2-0.3,0.3-0.5,0.5
		c-1.4,0.9-2.6,1.7-4,2.6c-0.2,0.2-0.9,0.2-1.1,0.2c-0.9,0-0.9,0.8-1.5,1.2c-0.5,0.3-1.5,0.5-2,0.8c-0.8,0.5-2,0.9-2.6,1.5
		c-0.2,0.2-1.1,0.8-1.2,0.9c-0.8,0.3,0.5,0.6,0,1.4c-0.2,0.3-0.5,0.5-0.6,0.6c-0.3-0.5-0.5-0.8-1.1-0.5c-0.3,0.2-1.1,0.2-1.4,0.3
		c-0.9,0.5-1.5,0.5-2.1,1.4c-0.5,0-0.6,0.6-1.1,0.6c-0.3,0.3-0.5,0.8-0.6,1.1c-0.2,0.3,0,0.8-0.5,0.8s-1.1-0.8-1.7-0.8
		c-1.2,0.2-2.4,1.2-3.8,1.7c-0.8,0.2-1.4,0.6-2,1.1c-0.3,0.3-0.8,0.3-1.1,0.5c-0.6,0.2-0.6,0.6-1.4,0.6h-0.6c0,0,0.2,0,0.2,0.2
		c0.2,0.2,0.3,0.5,0.3,0.3c-0.2,0.3-0.9-0.3-1.1,0c-0.3-0.3-1.2,0.2-1.7,0.5c-1.1,0.5-2.1,0.2-3.2,0.5c-0.5,0.2-2,0-2.3,0.5
		c-0.2,0.3-0.2,0.2-0.2,0h-0.8c-0.2,0-0.5,0.2-0.5,0.2c-0.8-0.5-0.5,0.2-1.2-0.2c-0.5-0.3-1.5-0.3-2-0.2c-0.9,0.2-1.2,0.6-1.7-0.2
		c-0.8,0.3-1.7-0.2-2.1-0.9c-0.6-0.6-1.7-0.3-2.1-1.2c-0.3,0-1.1-0.8-1.4-0.5c-0.3,0.2-0.3-1.1-0.9-1.2c-1.7-2.4-1.2-1.1-2.3-3.5
		c-1.2-2.6-1.5-4.3-2.1-7c-0.2,0.2-0.3,0.3-0.3,0.5c0,0.9-0.3,1.4-0.3,2.4s0.3,2.3,0.5,3.5c0,0.5,0.2,1.1,0.2,1.5
		c0.2,2.3,0.2,3.5,0.9,5.6c0.2,0.3,0.5,1.7,0.5,1.8c0,0.9,0.5,2.9,0.6,3.7c0.8,2.1,1.2,3.2,1.8,5.3c0.3,1.1,0.8,2.1,1.1,3
		c0.3,0.9,0.6,1.4,1.2,2.1c0.6,0.8,1.2,1.5,1.8,2.4c0.8,1.4,1.5,2.6,3,3.4c0.2,0.2,0.3,0.3,0.6,0.5c0.8,0.5,1.4,0.9,2.1,1.2
		c0.3,0.2,0.6,0.2,0.8,0.6c0.2,0.5,0.8,0.6,1.1,0.5c1.4-0.2,2.3,0,3.4,0.6c0.3,0,0.6-0.2,0.9-0.2c0.5,0,1.2-0.2,1.7-0.2
		c0.9,0.2,1.5,0,2.3-0.3c0.2-0.2,0.5-0.2,0.6-0.2c0.6,0,1.2,0.2,1.8,0.3c0.9-0.9,2-1.1,3.2-1.7c0.8,0.5,1.4,0,2.1,0
		c0.3,0,0.6-0.2,0.9-0.3c0.6-0.5,1.1-0.6,1.8-0.5c0.2-0.3,0.5-0.8,0.6-0.9c1.1-0.3,1.8-0.8,2.9-0.6h0.3c1.7-0.9,2.7-1.7,3.5-3.4
		c0,0,0-0.2,0.3-0.2c0.3,0,0.3,0.5,0.2,0.8c0,0.5,0.3,0.9,0.6,0.8c0.8-0.3,1.5-0.8,2.4-1.1c2.1-0.9,4.4-1.8,6.4-3
		c0.2-0.2,0.3-0.2,0.6-0.3s0.9-0.3,1.2-0.6c0.8-0.6,1.8-1.4,2.7-1.7c0.8-0.5,1.4-0.8,2.1-1.2c0.8-0.5,1.4-0.9,2.1-1.4
		c0.3-0.3,0.8-0.5,1.1-0.6c0.6-0.2,1.2-0.6,1.8-0.9c0.9-0.6,1.7-1.2,2.6-1.5c1.5-0.6,2.9-1.2,4.3-2.1c2.1-1.2,4.3-2.7,6.6-4
		c0.5-0.3,0.9-0.5,1.4-0.9c0.5-0.3,0.6-0.8,0.9-1.1c0.3-0.3,0.8-0.8,1.2-1.1s0.9-0.5,1.4-0.8s0.8-0.6,1.2-1.1
		c0.8-0.8,1.5-1.7,2.3-2.4c0.8-0.8,1.7-1.5,2.6-2c0.9-0.6,1.8-0.9,2.7-1.5s1.7-1.2,2.4-2c1.5-1.4,3.2-2.7,4.9-4
		c0.9-0.6,1.7-1.2,2.6-1.7c0.2-0.2,0.5-0.3,0.6-0.3l0.2-0.2c0.2,0,0.2-0.2,0.2-0.2l0.3-0.3c0.2-0.2,0.3-0.5,0.5-0.6s0.5-0.3,0.6-0.3
		c0.2,0,0.5-0.2,0.5-0.3l0.2-0.2c0.6-0.6,0.9-1.1,1.5-1.7c0.6-0.6,1.5-1.4,2.1-1.8c1.5-1.4,2.9-2.6,4.3-4l0.2-0.2
		c1.4-1.5,2.6-3.2,3.8-4.9c0.6-0.9,1.8-2.1,2.4-3s0.9-1.2,1.5-2.3c0.6-1.2,1.7-2.6,2.1-3.8V446c0.2-0.5,0.3-0.8,0.3-1.2
		c0-1.4,0.2-2.7,0.3-4.1c0-0.3-0.5-0.5-0.5-0.8C441.8,438.3,441.3,436.8,440.7,435.3L440.7,435.3z M322.5,453.1
		c0.3-0.3,0.6-0.8,0.9-1.1l0.3-0.3l0.3-0.5c0.2-0.3,0.5-0.6,0.6-0.9l1.2-0.9l0.6-0.5l0.2-0.2c0.2-0.8,0.5-1.4,0.6-2.3
		c0.2-1.2,0.2-2.4,0-3.7c0-0.5,0-0.9,0.2-1.2v-1.4c-0.3-1.8-1.2-3.8-1.7-5.5c-0.3-0.9,0-2.1-0.5-2.7c-0.2-0.3-0.3-0.6-0.6-0.9
		l-5.3,4.4c-0.6,0.5-1.2,0.9-1.7,1.7c-0.3,0.3-1.4,0.3-1.4,0.3c-3,1.1-5.9,2.7-8.5,4.3c-0.5,0.2-0.9,0.2-1.2,0.2
		c-0.2,0-0.5,0.2-0.6,0.2c-0.3,0-0.5,0.2-0.8,0.2c-0.9,0.3-1.8,0.6-2.6,1.2c-0.9-0.5-2,0-3,0.2l0.2,0.6c-1.8-0.2-3.4,0.2-5,0.6
		c-0.3,0.2-0.9,0.5-1.1,0.9c-0.3-0.2-0.5-0.5-0.8-0.6c-2.9,0.8-5.9,0.2-8.8,1.1c-0.3-0.2-0.3-0.2-0.5-0.5c-0.6,0.2-1.2-0.2-1.7-0.2
		c-0.5,0.2-0.9,0.6-1.4,0.6c-0.6,0-1.1-0.2-1.5-0.3c-0.5-0.2-0.9-0.3-1.7-0.3c-1.4,0-3,0-4.3-0.8c-3-0.6-5.9-1.4-8.8-2.4
		c-0.3-0.2-0.6-0.5-0.9-0.6c-0.3-0.3-0.6-0.6-0.9-0.8c-2.4-1.1-4.4-2.3-6.9-3.8c-0.5-0.3-1.1-0.8-1.5-1.2s-1.1-1.1-1.7-1.5
		c-1.1-1.1-2.3-2-3.5-2.4c-0.2-0.3,0-0.5,0-0.8c-2-1.4-3.7-3.7-4.9-5.6c-0.5-0.6-0.3-0.8-0.8-1.4c-1.1-1.1-1.7-2.4-2.7-3.5l-0.6-1.5
		c-1.5-1.7-3.8-5.5-4-5.5c-0.5-1.8-2-3.4-2.9-5c-0.5-0.9-0.6-1.7-0.9-2.6l-1.5-2.1l-0.3-0.5c-0.2,0.2-0.5,0.3-0.5,0.6
		c0,0.2,0,0.5,0.2,0.6c0.2,0.2,0.5,0,0.6,0.3c0.2,0.3,0.3,0.9,0.5,1.4v0.3c-1.2-0.9-2.6-1.7-4-2.1l-0.3-0.3
		c-0.3-0.3-0.6-0.5-0.9-0.8c-0.8-0.9-2.1-1.2-3.2-0.9c-0.5-0.3-1.1-0.5-1.5-0.6c-1.2-0.5-2.4-0.6-4,0c-1.4,0.5-1.8,1.4-2.6,2.4
		c-2.3,3.2-4.9,4.9-7.5,7.9c-1.4,1.5-2.7,3.2-4.1,4.9c0.9,0.6,1.8,1.2,2.7,1.5c0.2,0.2,0,0.3,0,0.5s0.2,0.3,0.5,0.6l0.5,0.5
		c0.2,0.2,0.3,0.5,0.3,0.5c0.2,0.2,0.3,0.3,0.5,0.6c0.3,0.3,0.6,0.8,0.8,1.1c0.6,0.8,1.2,1.4,1.8,2.1c0.2,0.3,0.2,0.8,0.3,1.1
		c0.6,1.1,1.4,2,2.3,3c0,1.4,0.8,2.4,1.5,3.7c1.4,2.1,3.2,4.6,4.7,6.6c1.2,1.5,1.5,3.2,2.9,4.4c0.3,0.3,0.8,0.3,1.1,0.6
		c0.6,0.8,0.6,1.8,1.4,2.4c2,2,3.8,4.4,5.8,6.6c0.3,0.3,0.8,0.2,1.1,0.5c0.8,0.5,0.9,1.5,1.5,2.1c0.9,0.8,1.8,1.7,2.7,2.3
		c1.1,0.8,2,1.4,3,2c0.8,0.8,1.4,1.5,2.1,2.3c1.1,0.6,2.1,1.2,3.4,1.8c1.2,0.6,2.3,1.2,3.5,1.7c2.3,1.1,4.6,2,6.9,2.6
		c2.3,0.6,4.3,1.5,6.4,2.4c2.1,0.8,4.3,1.5,6.6,1.5c0.6,0,0.8-0.5,1.4-0.5c0.2-1.4,1.2-2.3,1.5-3.5c0-0.3-0.3-0.3-0.3-0.5v-0.6h1.2
		c0,0.2,0.2,1.1,0.6,1.4c0.3,0.3,0.3,0.8,0.8,1.1c0.3,0.2,1.2,0,1.5,0.3c0.5,0.3,1.1,0.2,1.1,0.3c0,0.3-0.5,0.5-1.1,0.6
		c-0.3,0.2-0.8,0.2-1.1,0.3c-0.6,0.2-1.1,0.3-1.1,0.6c1.2,0,2.3,0,3.5,0.2c1.2,0,2-0.3,3.2-0.3c1.1,0,2.4,0.2,3.7,0.3
		c0.9-0.3,2-0.6,2.9-1.1c2.1,0.5,4.3-0.3,5.8-1.5l1.7-0.2l1.5-1.5c0.2,0.2,0.3,0.3,0.5,0.3v0.3c0,0,0,0.2,0.2,0.3
		c0.9-0.5,2.6-1.7,3.4-2c0.8-0.3,0.8,0.3,1.4,0.2c0.3-0.3,0.8-0.8,1.1-1.2c0.3,0,0.6,0.3,0.9,0.2c0.9-0.2,1.7-0.8,2.6-1.2
		c0.8-0.5,1.8-0.2,2.4-1.1c0.8-0.2,0.8-0.5,0.3-1.1l0.2-0.2l0.5,0.9c1.2-0.8,2.6-1.5,3.7-2.3c0.5-0.3,0.8-0.2,1.1-0.5
		c0.2-0.2,0.2-0.5,0.3-0.6c1.5,0,3.5-1.7,4.4-2.7c1.7-0.6,3.2-1.7,4.7-2.9C321.2,454.5,321.9,453.7,322.5,453.1L322.5,453.1z"/>
	<path class="st1" d="M228.6,313.6c18.5-6.3,83.3-29.3,98-34.9l-3.7,7c-14.8,5.8-76.5,28.2-95.8,34.5
		C227.2,320.2,228.6,313.6,228.6,313.6z M196.3,358.6c-0.6-0.6-0.9-2.1-2.4-1.7c-0.5,0.2-0.9-0.2-1.8-0.3c1.1-0.9,1.8-1.5,2.7-2.3
		c0.8,0.3,1.8,0.6,2.7,1.1c0-0.8-0.2-1.1-0.5-1.2c-1.2-0.8-2.7-1.4-4-2.3c-1.5-1.1-2.9-2.3-4.3-3.4c-0.6-0.5-1.5-0.8-2.1-1.4
		c-2.4-2.3-4.9-4.7-7.2-7.2c-1.8-2.1-3.7-4.4-5.9-6.1c-1.2-1.1-2.4-2.1-2.7-3.7c-1.1,0.2-1.8,0.3-2.6,0.5c-0.3,0-0.6,0.2-0.8,0.5
		c-0.9,1.5-1.7,2.9-2.6,4.6c-2.7,0.5-4.7,2.6-5.9,4.7c-1.4,2.4-3.5,4.1-5.3,6.1c-0.6,0.6-3.5,0.9-4,0.3c-1.8-2.1-4.1-3.5-6.9-4.3
		c-0.6-0.2-1.1-1.1-1.7-1.4c-0.5-0.3-1.4-0.9-1.7-0.8c-1.2,0.9-2.1,0-2.9-0.5c-1.8-1.1-3.5-2.4-5.3-3.5c-0.9-0.6-1.4-1.2-1.1-2.1
		l-3.2-1.4c-0.3,0.3-0.6,0.6-0.8,0.9c-0.8,1.5-1.8,2.6-3.5,3.5c-1.5,0.9-2.6,2.6-3.8,4c-1.7,1.5-2.4,3.7-4.3,5.2
		c-1.4,1.1-2.4,2.7-1.7,4.7c1.1,3,2.7,5.9,5,8.2c3.2,3.2,6.6,6.1,10.7,8.2c0.5,0.2,0.6,0.8,0.9,1.1c0.3,0.3,0.5,0.9,0.8,0.9
		c1.7,0.5,3.4,0.8,4.3,2.4c0.2,0.2,0.6,0.2,0.9,0.3c2.1,0.5,4.3,1.2,6.3-0.6c0.2-0.2,0.5-0.2,0.8-0.3c2.3-1.5,4.7-2.6,6.6-4.9
		c2.3-2.7,4.7-5.3,7.5-8.2c5.2,7.5,11.7,13,20.1,16.3c0.3-1.1,1.1-1.2,2.1-0.9c0.3,0.2,0.6,0.2,0.9,0.3c-0.2,0.5-0.2,0.8-0.3,0.9
		c1.4,1.4,1.7-0.6,2.6-0.6c1.1,0,2,0.5,2.9,0.8c0.2-0.2,0.3-0.2,0.5-0.3c-1.1-0.8-1.2-1.4-0.6-2.4c0.6-0.9,0.6-2.1,0.9-3.2
		c0.3-1.1,1.1-1.2,2.1-0.9l1.4,0.5c0.3-1.1,0.6-2,1.1-2.9c0.9,0,2.6,0.6,2.4-1.1c0-0.9,0.3-1.1,0.8-1.5c0.6-0.8,1.4-1.5,2-2.3
		C196.4,360.3,197,359.2,196.3,358.6z M304.7,505.6c-1.2-1.2-2.6-2.4-3.8-3.5c-1.2-0.9-2.4-2-3.8-2.7c-1.8-1.1-4.6-4-7.8-5.9
		c-2-1.2-5.3-4.9-7.8-5.3c-2.9,2.6-5.9,4.6-8.2,7.3c-1.1,1.4-3,2.9-4.6,3.8c-2.1-2-4.9-2.9-7-4.7c-1.7-1.5-3.7-2.7-5.5-4.1
		c-0.8-0.6-1.5-1.4-1.8-2.3c-0.5-1.4-1.2-1.1-2.1-0.3c-1.1,0.8-2.1,1.7-3,2.6c-0.9,0.9-1.8,2-2.4,3c-0.6,1.5-2.1,1.7-3,2.7
		c-0.9,0.9-2,1.7-2.7,2.7c-1.8,2.7-4.1,4.9-6.6,7.2c-1.4,1.4-1.7,2.4-0.5,3.7c1.1,1.2,2.3,2.1,3.7,3c2.3,1.7,4.6,3.4,7,5
		c2.6,1.8,5,3.8,7,6.1c0.6,0.8,1.5,1.4,2.3,2c1.8-1.5,3.5-2.9,5.5-4.6c0.2,0,0.6,0,0.8,0.2c0.9-1.1,1.7-1.8,2.4-2.6
		c0.3-0.3,0.6-0.8,0.9-1.2c0.8-1.1,1.7-1.7,2.9-1.4c0.8,0.2,1.5,0.3,2.1,0.5c2.7,1.2,3.7,3.7,5,4c2.3,0.6,3.8,3.2,6.4,2.9
		c0.3,0,0.6,0.6,0.9,0.8c1.1,0.5,1.8,1.4,3.4,0.5c0.3-0.3,1.1,0,1.5,0c1.4,0.2,2.6,0,3.5-1.4c0.3-0.5,0.9-1.4,1.1-1.2
		c1.4,0.5,0.3-1.2,1.2-1.4c1.2-0.3,3.8-3.7,4.3-4.4c0.9-1.5,1.5-3.2,3.7-3.5c0.2,0,0.3-0.2,0.5-0.3c0.9-1.2,1.8-2.3,2.9-3.4
		C303.6,508,304.5,507.1,304.7,505.6L304.7,505.6z M298.4,510.2c-1.4-1.2,0.2-2.6,0.2-4.1c0.6,0.6,1.1,0.9,1.5,1.4
		C298.7,508.6,298.7,508.6,298.4,510.2z M932.6,458c0.5-0.3,1.2-0.8,1.2-1.4c0-2.3,1.2-3.7,0-5.9c-0.2-0.2,0-0.5,0-0.6
		c0.6-2.6-0.5-5-0.2-7.8c0-0.5-0.3-1.2-0.6-1.5c-0.5-0.6-0.8-1.4-0.3-2c1.2-1.7,0.8-3.5,0.3-5.3c-0.5-1.8-1.1-3.5-0.8-5.5
		c0.2-1.1-0.3-2.3-0.8-3.4c-0.3-1.1-0.8-2.4-1.2-3.5c-0.6-1.7-1.8-3.2-1.1-5c-0.9-2.1-0.6-3.4-0.2-5.6c0.3-1.7,0.6-2.6-0.8-4
		c-0.2-0.2-0.2-0.6-0.2-0.9c0.2-1.1,0.2-2,0.2-3c0-1.1-0.3-2.4-1.1-3.2c-0.9-1.2-0.2-2.1-0.8-3.2c-0.6-1.1-0.6-1.7-0.2-2.7
		c0.5-1.1,0-1.8-0.8-2.4c-0.8-0.8-0.9-1.5-0.8-2.4c0.6-3,1.1-5.8,1.5-8.8c0.2-0.8,0-1.5-0.3-2.3c-0.5-1.2-1.4-2.6-1.7-3.8
		c-0.3-1.4,0.3-2.4,0.2-3.8c0-0.6-0.5-1.5-0.6-2.1c-0.5-2.1-1.1-4.4-1.4-6.6s-0.6-4.3-1.2-6.1c-0.3-0.9-0.9-2.3-0.6-3
		c2-3.8-1.1-3.7-0.2-7.6c0.2-0.5-0.3-3.4-0.5-3.8c-0.5-1.1-0.9-2.7-0.8-3.8c0.2-1.5-0.5-4.4-0.6-5.6c-0.2-1.7-0.9-4-1.2-5.6
		c0.8,0.6,1.8,1.5,3,2.4c0.8,0.8,1.4,1.8,2.3,2.4c1.5,1.2,2.7,2.1,3.5,2.3c0.3,0.2,0.8-0.6,1.4-1.5c0.2-0.3-0.5-1.2-0.2-1.5
		c0.3-0.5,1.4-0.5,1.7-0.9c0.3-0.6,0.2-1.5,0.5-2c0.5-0.8,1.2-0.9,1.2-1.1c0-0.5-0.9-2.9-2.4-6.6c-0.8-2-1.8-4.3-2.9-6.7
		c-1.1-2.4-3.4-6.4-4.6-9.1c-1.1-2.3-1.2-5.8-2.3-8.1c-1.4-2.9-2.3-3.8-3.7-6.6c-1.4-2.9-3.4-6.9-4.6-9.3c-0.9-1.8-1.1-2.4-1.8-4
		c-2-3.8-3.4-6.1-3.8-6.1c-0.5,0-1.7,2.9-3.8,6.6c-0.6,1.1-1.7,2.3-2.3,3.5c-0.6,1.1-1.2,2.3-1.8,3.4c-0.9,1.4-3,4.7-3,5.8
		c0,0.2,0,0.3-0.2,0.5c-1.7,3.5-3,6.6-3.2,7.5c-0.2,0.3-0.2,0.6-0.2,0.8c0,0,0.3,0.3,0.6,0.8c0.5,0.8,0.9,1.5,1.5,2.1
		c0.9,1.4,1.8,2.6,1.8,2.6c3,12.8,0.9,17.4,5,30.8s4.7,34.5,6.4,46.8c1.4,10.1,4.9,21.5,4.7,31.9c0,1.5,0.2,2.9,0.2,4.4
		c0,2.1-0.2,3.8,0.5,5.9c0.9,3.8,0.5,6.9,1.2,11c1.1,6.3,1.7,9.9,2.3,17.5c0.6,5.8,3.4,17.4,2.4,24.2c-0.2,0.6,0.2,0.9,0.2,1.4
		c-0.2,1.4-0.6,25.6,1.1,31.6c0.2,0.5-0.2,9.9,0,10.4c1.8,5-3.8,24.6-1.8,23.3c1.5-1.1,4.3-8.7,5-10.4c1.4-2.9,0.8-4.9,3.2-6.6
		c2-1.4,1.8-6.1,2.6-7.9c1.7-3.7,2.7-6.1,3.8-9.6c0.6-1.8,1.2-3.4,1.2-5.3c0-2.6-0.2-3,0.6-6.4c0.8-3.4,0.6-16.6,0.6-19.1
		c0.2-5.6,0.3-5.9,0.8-9.9C934.8,463,934.9,460.9,932.6,458L932.6,458z M743.1,359.5c-2.3,0-6.6-0.5-9-1.1
		c10.2-4,21.5-8.5,28.4-13.7l2.6-2l-3.2-0.6c-9.6-1.7-13.6-5-13.6-11.1c0-8.7,8.2-15.4,15.2-15.4c4.3,0,9.1,4.1,9.1,16
		c0,1.7-0.2,3.2-0.6,4.7l-0.5,1.5l1.7,0.3c0.9,0.2,1.8,0.3,2.4,0.6l-4.1,5.6c-0.8-0.3-1.4-0.6-2.1-0.8l-0.9-0.3l-0.6,0.8
		C760.8,352.9,747.7,357.8,743.1,359.5L743.1,359.5z M759.6,320.5c-4.3,0-8.5,3.2-8.5,6.4c0,3.4,2.9,7.8,16.5,10.5l1.2,0.3l0.5-1.2
		c0.3-0.9,0.5-1.8,0.5-2.6C769.3,326.3,764.1,320.5,759.6,320.5L759.6,320.5z M321.6,558c18.5-6.3,59.2-20.7,74-26.4l-3.7,7
		c-14.8,5.8-52.5,19.7-71.7,25.9L321.6,558z"/>
	<path class="st1" d="M516.3,487c0-0.2,0-0.3-0.2-0.5v-0.2c0,0,0-0.2-0.2-0.2v0.6c0,0.2,0,0.2-0.2,0.2v0.2
		c-4.6,7.9-14.6,18-15.1,18.9c-0.2,0.3-0.3,0.5-0.5,0.6c-1.8,1.7-3.7,3.5-5.5,5c-2.9,2.4-5.9,4.9-8.8,7c-1.1,0.8-2,2.1-3.2,2.6
		c-1.7,0.6-3.2,2-4.9,3.2c-3.5,2.3-6.9,4.7-10.4,7c-0.8,0.6-1.7,0.9-2.3,2.3c-0.9,1.5-1.8,2.1-2.9,2.6c-0.8,0.3-1.7,0.6-2.4,1.7
		c-0.8,1.1-1.5,1.5-2.3,2c-2.7,1.4-5.3,3-8.1,4.6c-0.8,0.5-1.7,0.5-2.4,0.8c-0.5,0.2-0.9-0.2-1.4,0.3c-1.4,1.5-2.9,1.5-4.3,2.1
		c-0.9,0.5-1.7,0.9-2.6,1.5c-2.1,1.5-4.4,3-6.4,3.2c-2.1,0.2-4.1,2.1-6.1,2.6c-2,0.5-4,2.3-5.9,2.6c-3,0.6-5.9,1.7-9,3
		c-1.4,0.8-2.9-0.2-4.3,2c0,0-0.2,0-0.2-0.2c-0.8-1.5-1.7-0.2-2.4,0.5c-0.9,0.8-1.5,1.2-2.4,0.9c-0.3-0.2-0.5-0.2-0.8-0.2l-5.9,2.3
		c-1.7,0.6-3.4,1.8-4.9,1.7c-2.3-0.2-4.7,1.8-7,1.4c-0.8-0.2-1.4,0.8-1.7,2.4c-0.2,1.1-0.8,2.1-1.1,3.4c-0.9-0.8-1.7-1.4-2.6-2.1
		l-0.8,4.3c1.5-0.3,3-0.8,4.4-1.1c0.9-0.2,1.5-1.1,2.3-2.6c0.8,2,2,2.1,3.5,1.7c1.2-0.5,2.4-0.5,3.8-1.4c0.3-0.2,0.6,0.2,0.9,0.3
		c-2.3,5.3-5.2,7.6-7.9,10.7c-1.7-1.4-3.4-0.5-5.2,0.5c-2.3,1.4-4.6,3.2-6.9,2c-0.6-0.3-1.5,0.5-2.4,0.6c-1.1,0.3-2.1,0.8-3.2,0.9
		c-1.5,0.2-3.2,0.3-4.9,0.9c-3,1.1-6.1,2.9-9.3,3.4c-1.2,0.2-2.3,0.9-3.5,1.2c-0.6,0.2-1.4,0.5-1.8,0.3c-1.1-0.6-2,0-3.2,0.9
		c-1.5,1.5-3.2,2-4.7,1.1c-2-1.2-4.3-0.9-6.6,0.5c-1.2,0.8-2.4,0.5-3.7,0.6c-0.6,0-1.1-0.3-1.5,0c-2.1,1.1-4,0.5-5.8-0.3
		c-1.5-0.6-3-0.6-4.3,0.9c-0.9-0.3-1.5-0.9-2.3-0.8c-0.9,0.2-1.8,0.5-2.7,0.9c-2.3,1.5-4.3,1.1-6.4,0.5c-0.9-0.3-1.7-0.3-2.6,0.6
		c-0.5,0.5-1.2,0.8-1.5,0.5c-0.9-0.8-1.8-0.5-2.9-0.3c-1.4,0.2-2.9,0.3-4.3,0.3c-3.7-0.2-7.2-0.6-10.8-0.8c-2.3-0.2-4.4-1.5-6.7-0.6
		c-1.1-1.2-2.4-0.5-3.7-0.5c-0.8,0-1.5-0.3-2.3-0.3c-2.3-0.5-4.1-2.6-6.6-1.8c-0.3,0.2-0.6-0.5-0.9-0.5c-1.5-0.5-3-1.7-4.7-1.4
		c-2.6,0.3-4.4-1.8-6.7-2.4c-1.1-1.7-2.6-1.8-4-2.6c-0.9-0.5-1.8-0.6-2.7-1.1c-2-1.2-3.8-2.7-5.8-3.8c-1.1-0.6-2.3-1.1-3.4-2
		c-2.4-2.4-4.9-4.7-7.3-7c-0.8-0.6-1.4-1.7-2.3-1.7c-1.2,0-1.8-1.1-2.6-2.3c-1.2-2-2.3-4.7-4.1-5.3c-0.3-0.2-0.5-0.5-0.6-0.8
		c-0.9-1.5-2-3-2.9-4.7c-0.9-1.5-1.8-3-2.4-5c-1.5-4.7-3-9.8-4.4-14.6c-0.5-1.4-0.5-2.9-0.8-4.4c-0.6-3.2-0.6-6.7-1.1-9.9
		c-0.6-4.3-0.6-8.7-0.5-13.3c0.2-3.7,0.5-7.5,0.9-11.3c0.2-2,0.6-4.1,0.9-6.1l0.9-4.6c0.6-2.6,1.1-5.2,1.8-7.5
		c0.2-0.6,0.3-1.1,0.6-1.7c0.3-1.7-1.7,0.5-2.6,1.8c-0.3,0.9-2.1,4.3-2.6,5.2c-1.8,4.3-2,5.6-3.5,10.2c-0.9,2.9-1.5,5.9-2.3,9
		c-0.6,2.7-1.2,5.5-1.4,8.2c-0.5,5.6-0.6,11.3-0.9,16.9c-0.3,7.3,0.2,14.3,1.2,20.7c1.4,8.1,3.4,15.4,6.1,21.7
		c2.4,5.5,6.1,8.4,8.8,13.1c0,0.2,0.2,0.2,0.2,0.2c2.3,2.4,4.4,4.9,6.7,7.3l0.6,0.6c0.6,0.3,1.4,0.6,2.6,1.2
		c-0.8-1.5-1.1-2.3-1.5-2.9c-0.9-1.1-1.8-2-2.7-2.9c-1.4-1.4-2.6-3.2-4-4.4c-1.4-1.2-2.1-3.8-3.7-4.9c-1.2-0.9-2-3-3-4.3
		c-0.6-0.8-0.9-2-1.2-3.4c-0.2-0.8,0-1.2,0.6-1.8c0.5,0.9,1.1,2,1.7,2.9c2.1,3.8,4.3,7.6,7.2,10.1c2.1,1.8,4.4,3.5,6.6,5.2
		c1.4,1.1,2.9,1.7,4.1,2.9c3.4,3.5,7.3,4.7,11.1,7c2,1.2,4.1,1.4,6.3,2.3c4.4,1.8,8.8,3.5,13.4,4.3c4.3,0.8,8.5,2.4,13.1,1.5
		c0.5-0.2,1.1,0.3,1.5,0.3c1.5,0.3,3,0.9,4.7,0.6c4.3-0.6,8.4-0.5,12.5-0.5c2,0,3.8,0.9,5.8,0c0.2,0,0.3,0.2,0.5,0
		c3.7-0.5,7.3-0.8,11-1.2c0.2,0,0.3,0,0.6-0.2c0.9-0.8,1.5-0.2,2.3-0.2c2.3,0.2,4.6,0.6,6.9-0.2c1.7-0.5,3.5-1.4,5.2-1.4
		c2.4,0,5-0.6,7.5-1.1c1.4-0.3,2.7-0.6,4.1-1.2c2.3-1.1,4.6-2.3,6.7-1.2c0.3,0.2,0.5,0,0.8,0c3.2-0.6,6.6-1.7,9.6-1.5
		c0.3,0,0.8-0.3,1.1-0.3c0.9-0.3,2-0.5,2.9-0.8c0.6-0.2,1.1,0,1.5-0.2c2.3-0.6,4.7-2.3,7-2.7c0.5-0.2,1.2-0.8,1.5-1.4
		c0.5-1.5,1.1-2,1.8-2.3c1.4-0.6,2.7-1.1,3.8,0.6c0.6,0.9,1.5,0.6,2.3,0c0.3-0.2,0.6-1.1,1.1-1.8c0.8,0.5,1.2,1.8,2.3,1.4
		c1.1-0.5,2-1.1,2.7-3c0.2-0.2,0.3-0.3,0.5-0.3c0.6,0.8,1.2,1.4,1.5,1.8c2.3-0.6,4.1-0.9,6.1-1.5c3-1.1,6.3-2.4,9.3-3.2
		c2-0.5,3.8-2.3,5.6-2.3c0.9,0,1.8-0.6,2.7-0.8c0.8-0.2,1.4-0.3,2.1-0.3c-0.2,1.2-0.2,2-0.3,2.9c0.3,0,0.5,0.2,0.8,0
		c2.4-0.5,4.9-2.6,7.3-3.5c4.3-1.4,8.5-3.5,12.8-5.5c2.9-1.2,5.6-2.7,8.5-4.1c2.4-1.2,4.9-3,7.3-4c2.4-1.1,4.9-3.7,7.3-3.8
		c0.3,0,0.8-0.2,1.1-0.6c1.8-2.1,3.8-1.7,5.6-3.2c2.1,0.3,4.9-1.7,7-3.2c0.5-0.3,0.6-1.2,1.2-2.4c0.6,0,2.1,0.9,2.7,0.3
		c0.9-0.9,3.2-2.6,4.1-3.4c8.2-6.3,13.3-10.7,21.2-20c3-3.7,6.4-6.6,9.8-10.7c2.6-3,3.2-3.7,4.1-5.2c0.6-1.1,1.2-2.6,2.7-5.9
		c1.2-2.7,1.8-9.1,3.2-11.7C517.1,498,517.3,491.4,516.3,487L516.3,487z M201.8,550.9c0.2-0.2,0.5-0.3,0.6-0.6
		c0.6,2.4,1.1,4.9,1.7,7.2s1.4,4.4,2,6.7s1.7,3.7,2.1,7.5C204.7,565.5,201.9,559.9,201.8,550.9L201.8,550.9z M405.5,572.4
		c-0.9,1.5-1.4,0-2.4-0.6c0.8-0.9,0.9-1.2,1.2-1.4c0.6-0.5,1.2-0.8,1.8-1.1C406.7,570.8,405.9,571.6,405.5,572.4L405.5,572.4z
		 M346.3,488.2C346.2,488,346.2,488,346.3,488.2z"/>
	<path class="st1" d="M338.2,489.9h0.2C338.4,489.7,338.4,489.6,338.2,489.9z M446,414.9c-0.5-2.3-1.1-4.1-1.7-6.4
		c-0.2-0.5-0.3-0.6-0.8-0.9c-0.6-0.5-1.2-1.1-1.7-1.8l0.2-0.5c0.2-0.5,0.2-1.1-0.5-1.2c-0.6-0.2-0.8-0.3-1.2-0.8
		c-0.2-0.3-0.5-0.2-0.9-0.3c-0.5-0.2-0.9-0.5-1.4-0.6c-0.5-0.3-1.1-0.5-1.1-1.2c0.3-0.3,0.6-0.6,1.1-0.9c-0.5-0.9-0.6-1.5-1.4-2.1
		c-0.8-0.6-1.5-1.7-2.3-2.4c-0.2-0.2-0.3-0.5-0.5-0.6c-1.5-1.1-2.9-2.1-4.4-2.9c-1.1-0.5-1.7-1.4-2.6-2c-0.8-0.6-1.4-0.9-2.1-1.2
		c-1.2-0.5-2.1-1.2-3-2c-0.5-0.3-0.9-0.6-1.4-0.8c-1.1-0.3-2-0.6-3-1.1c-1.1-0.3-2-0.8-2.7-1.4c-0.8-0.6-1.7-0.9-2.7-1.2
		c-1.2-0.5-2.3-1.2-3.4-1.8c-0.9-0.3-1.8-0.5-2.7-0.9c-0.3-0.2-0.6-0.3-0.9-0.3c-1.1-0.5-2.1-0.9-3.4-1.5c-1.1-0.6-2.1-1.1-3.2-1.7
		c-0.5-0.3-1.2-0.8-1.8-1.1c-0.9-0.5-1.5-0.9-2.4-1.4c-0.6-0.5-1.2-0.8-1.8-1.1c-1.1-0.6-2-1.1-3-1.7c-0.8-0.5-2.1-1.2-2.9-1.7
		c-1.1-0.6-2-1.2-2.9-2c-0.3-0.2-0.5-0.3-0.8-0.5l-0.2-0.2c-1.5-1.1-2.7-2.1-4.1-3.4c-0.2-0.2-0.3-0.2-0.5-0.3s-0.3-0.2-0.5-0.3
		c-0.5-0.2-0.9-0.5-1.2-0.8c1.2-0.2,2.3-0.3,3.2-0.2c2,0.2,2.7,0.3,4.3,0.5c-0.8-0.6,0.6-0.8,0.3-1.2c-0.9-1.4,1.7-1.5,0.9-2.1
		c0.6-0.2-1.1-0.9-0.6-1.5c0.5-0.6,1.2-0.5,1.7-0.6c-1.1-0.9,0.6,0-0.8-1.2c1.2-0.2,0.9-0.2,1.5-0.2c0,0-1.5-1.4-1.7-1.4
		c-0.9-1.8-3.2-2-5.2-3.2c-1.8-1.1-2.7-2.7-4.9-3.8c-0.9-0.5-2-0.6-4.4-1.8c-1.4-0.8-4.6-2.1-6.1-3c-2-1.1-4.6-2.4-6.4-3.4
		c-2.3-1.1-3.2-2-4.1-2.3c-0.5,1.8-1.5,3.8-2,6.4c-0.5,2-0.2,4.9-1.4,6.1c0.2,0-2.4,5.3-1.2,5.8c0.6,0.2-1.8,4.3-1.2,4.6
		c0.8,0.3-1.4,4.3-0.6,4.6c0.9,0.3,2.1,0.5,3.2,0.6c1.1,0.2,2.1,0.2,3.2,0.3v0.3c0,0.8,0.2,1.4,0.2,2.1c0.2,0.8,0.2,1.4,0.5,2.1
		c0.2,0.6,0.5,1.4,0.8,2c0.8,1.5,2.1,3.2,2.9,4.6c1.7,3,3.7,5.3,6.1,7.6c0.8,0.8,0.9,1.8,1.8,2.4c1.5,0.9,2.6,2.3,4,3.4
		c0.6,0.6,1.7,0.8,2.3,1.2c0.5,0.3,0.6,0.9,1.1,1.2c2.3,1.5,4.6,2.9,7.2,4.1c0.2,0.2,0,0.5,0.3,0.6c1.8,0.9,3.4,1.7,5.3,2.4
		c0.5,0.2,0.8,1.1,1.4,1.4c1.1,0.8,2.6,1.2,4,1.8c0.6,0.3,1.1,0.9,1.7,1.2c2,0.8,3.7,1.7,5.6,2.4c0.9,0.3,1.5,1.5,2.4,2
		c0.5,0.3,1.1,0.2,1.5,0.3c0.6,0.6,1.2,1.2,2.1,1.5c0.5,0.2,0.9-0.2,1.2,0.2c0.6,0.6,1.1,1.2,1.8,1.5c1.1,0.5,2.3,0.9,3.2,1.7
		c0.2-0.2,0.2-0.3,0.3-0.5c2.9,2,6.3,3.4,9,5.5c0.2-0.2,0.2-0.3,0.3-0.3c0.8,1.1,2.3,1.2,3.2,1.5c0.9,0.5,1.5,1.5,2.3,1.8
		c1.1,0.3,1.2,0.8,2.1,1.2c0.9,0.5,1.5,0.6,2.1,1.2c0.5-0.5,0.8-0.9,1.2-1.4c0,0.3-0.3,0.5-0.2,0.8s0.3,0.3,0.3,0.5
		c-0.3,0-0.6,0.2-1.1,0.2c0.3,0.6,0.8,0.9,1.4,1.2c0.2,0.6,0.8,0.3,1.1,0.9c0.8,1.4,2.1,2.4,3.2,3.7c0.2,0.2,0.2,0.3,0.3,0.3
		c0.2,0.3,0.3,0.5,0.5,0.8c0.2,0,0.3-0.2,0.5-0.3h0.2c0,0.2-0.3,0.2-0.3,0.3c0,0.5,0.5,0.8,0.8,1.1h0.2c0.2,0,0.2-0.2,0.2-0.2
		l-0.2-0.2c0.2-0.2,0.3,0,0.5,0s0.2-0.3,0.2-0.3h0.9c0,0.2-0.2,0.5-0.2,0.6c0,0.2-0.2,0.2-0.2,0.2h-0.2c-0.2,0-0.3-0.2-0.5-0.2
		c-0.2,0-0.3,0.2-0.3,0.3c-0.2,0.8,0,1.7,0.3,2.3c0.3,0.6,0.8,1.2,0.9,1.8c0.6,1.5,1.1,3,1.4,4.6c0,0.3,0.6,0.6,0.5,0.8
		c-0.2,1.4-0.3,2.7-0.3,4.1c0,0.5-0.2,0.8-0.3,1.2c-0.2,0.3-0.2,0.6,0,0.9c0.5-0.9,0.9-2,1.4-3l0.5-1.8c0.2-0.2,0.3-0.5,0.5-0.6
		c0.5-3.7,0.9-7.3,1.8-10.8c0-1.2,0-3,0.2-4.3C446.3,422.3,446.8,418.7,446,414.9L446,414.9z M337.8,421.6c0.2-1.1-0.2-1.2-0.2-2.3
		V419c0-0.2,0.2-0.2,0.2-0.5c0.2-0.3,0.2-0.6,0.2-0.9c-0.2-0.8-0.3-1.4-0.6-2c-0.3-0.6-0.5-1.1-0.8-1.7c-0.3-0.6-0.3-1.1-0.3-1.7
		c-0.2-0.6-0.3-1.2-0.8-1.5c0.2-0.3,0.3-0.3,0.2-0.6c-0.6-1.4-1.4-2.7-2.3-3.8c-0.2-0.3,0-0.6-0.2-0.9c-0.5-0.9-1.1-1.7-1.5-2.4
		c0.2-1.1-0.3-2-0.9-2.7c-0.9-1.7-2.1-3.5-3.2-4.9c-0.8-1.2-0.8-2.4-1.7-3.4c-0.2-0.2-0.6-0.3-0.8-0.5c-0.3-0.6-0.2-1.4-0.6-1.8
		c-1.4-1.5-2.3-3.4-3.4-5c-0.2-0.3-0.5-0.2-0.8-0.3c-0.6-0.5-0.3-1.2-0.6-1.7c-0.9-1.4-2-2.6-3.2-3.8c-0.2-0.6-0.5-1.4-0.6-2
		c-2.1-2.6-3.4-5.3-5.5-7.8l-0.9-1.4c1.7,1.4,3.4,1.1,5.2,1.5c2.1,0.5,2.9,1.7,4.6,2.1c-0.8-0.8,0.9-1.5,0.8-2.1
		c-0.9-1.5,2.6-1.1,1.7-1.8c0.6-0.2,0.9-1.1,1.4-1.5c0.6-0.5,0.6-1.4,1.4-1.5c-0.6-0.6,0.8-0.3,0.8-1.1c1.4,0.2,0.8-2.4,0.8-1.7
		l-2.4-1.8c-1.1-2-3.7-3.2-5.9-4.6c-2.1-1.4-3-3.2-5.5-4.7c-1.1-0.6-2.1-0.9-4.9-2.6c-1.7-1.1-5-2.9-6.9-4.1
		c-2.3-1.4-5.2-3.4-7.2-4.6c-2.6-1.5-3.5-2.6-4.7-3c-0.6,1.8-1.8,3.7-2.4,6.4c-0.5,2.1-0.3,5-1.8,6.1c0.2,0.2-2.9,5.3-1.5,5.9
		c0.8,0.3-2.3,4.1-1.5,4.6c0.8,0.3-1.7,4.3-0.9,4.7c1.2,0.6,2.9,0.9,4.3,1.2c-0.3,2.1,0,4.1,0.3,5.8c0.5,2.3,1.1,4.4,1.8,6.3
		c0.8,1.8,1.5,3.7,2.7,5.2c1.4,2,3.2,4,4.6,5.8c2.7,4.1,5.6,7.6,8.5,11.1c1.1,1.2,1.2,2.7,2.3,3.8c2,1.8,3.2,4.1,4.9,6.1
		c0.8,1.1,2,1.8,2.7,2.7c0.5,0.6,0.6,1.5,1.1,2.1c2.7,3.2,4.9,6.6,7.3,9.9c0.2,0.2-0.2,0.6,0.2,0.9c1.4,2.1,2.4,4.1,3.8,6.3
		c0.2,0.3,0.3,0.6,0.6,0.9c0.3,0.6,0.2,1.8,0.5,2.7c0.5,1.7,1.4,3.8,1.7,5.5v1.4c0,0.5-0.2,0.9-0.2,1.2c0.2,1.2,0.2,2.4,0,3.7
		c-0.2,0.8-0.5,1.4-0.6,2.3c0.8-0.6,1.5-1.2,2-2.1c0.8-1.7,1.8-2.9,3.2-4.3l-0.5-0.5c0.6-0.5,1.1-1.2,1.4-1.8
		c0.3-0.8,0.6-1.5,0.9-2.1c0.3-0.8,0.9-1.1,1.4-1.8c1.1-3.5,2.1-7.2,2.7-10.8C338.1,424.3,337.5,422.6,337.8,421.6L337.8,421.6z
		 M329.2,429c0-0.2-0.2-0.5-0.2-0.8h0.2C329.4,428.6,329.4,428.9,329.2,429C329.4,429,329.2,429,329.2,429z M330.2,435
		c0,0-0.2,0-0.2-0.2c0,0,0.2-0.2,0-0.3h0.2V435z M333.1,428.4h-0.3v-0.2h0.5C333.2,428.1,333.2,428.3,333.1,428.4z M335.8,428.7
		h-0.3v-0.2C335.6,428.6,335.8,428.6,335.8,428.7C335.9,428.6,335.8,428.7,335.8,428.7z M335.9,427.4c-0.2,0,0-0.3,0-0.3
		s0.3,0,0.3,0.2C336.1,427.1,335.9,427.4,335.9,427.4L335.9,427.4z M230.7,406.6c0-0.5-0.2-1.1-0.5-1.4c-0.2-0.3-0.5,0-0.6-0.3
		c-0.2-0.2-0.2-0.5-0.2-0.6c0-0.2,0.3-0.5,0.5-0.6c-0.2-0.3-0.5-0.6-0.5-0.6c-0.5-1.1-0.9-2.3-1.5-3.4c-1.2-2.1-2.7-4.3-4.3-6.3
		c-0.8-1.1-1.5-1.8-2.4-2.7c-0.8-0.9-1.7-1.7-2.7-2.1c-0.6-0.2-1.1-0.6-1.4-0.9c-0.5-0.3-0.9-0.6-1.5-0.8c-1.1-0.3-2.1-0.8-3.2-1.1
		c-2.1-0.8-4.1-1.4-6.3-1.4c-1.1,0-2.1,0.2-3.2,0.5c-1.1,0.3-2.1,0.8-3,1.4c-1.1,0.6-2,1.2-2.9,2.1c-0.8,0.6-2,1.5-2.7,2.3
		c-0.9,0.9-2,1.7-2.9,2.4c-0.9,0.8-2,1.4-2.9,2.1c-1.8,1.5-3.5,3.4-5,5c-3.2,3.4-6.4,6.3-9.5,9.6c-0.8,0.8-1.5,1.7-2.3,2.7
		c-0.3,0.5-0.5,1.2-0.8,1.8c-0.3,0.6-0.8,0.9-1.2,1.4c-0.5,0.5-0.9,0.8-1.4,1.1s-0.9,0.9-1.2,1.4c0,0.6,0,1.2-0.2,2
		c-1.2,0.9-2.6,2.1-3.4,3.5c-2,3.2-4.3,5.6-7,8.2c-0.2,0.2-0.5,0.5-0.6,0.8c-1.1,1.2-1.8,2.6-2.9,4c-0.9,1.4-2,2.6-3,3.8
		c-1.7,1.8-3,4-4.4,5.9c-1.1,1.5-2.1,2.9-3.4,4.1c-0.6,0.6-1.2,1.4-1.5,2c-0.9,2-2.1,3.2-3.8,4.6c-0.5,0.3-0.6,0.6-0.9,1.2
		c-0.3,0.5-0.6,1.2-0.8,1.8c-0.8,0.3-1.4,0.6-2.1,0.9l-2.7,5.5c-1.4,0.3-2.6,0.8-4,1.1c-1.1,1.5-1.7,2.7-3.4,3.7
		c-1.4,0.9-2.7,2.3-3.8,3.5c-0.6,1.7-2,2.4-3.2,3.8c-0.5,0.6-1.4,0.6-1.8,1.2c-2.7,2.6-5.3,4.7-9.1,5.6l-1.8,0.5
		c0.2,0.5,0.5,0.9,0.6,1.4c-1.1,0.3-2.3,0.3-3.4,0.3c-0.3-0.8,0.5-0.8,0.6-1.4c-2.3,0.5-4.4,1.1-6.7,2c0,0.5-0.2,1.2-0.2,1.7
		s-0.2,1.1-0.6,0.9c-0.5-0.2-0.3-0.6-0.3-0.9c0.2-0.3,0.5-0.8,0-1.1c-0.8,0.6-1.8,1.8-2.4,2.4l-0.2,0.2c-0.6-0.2-1.2-0.3-1.7-0.6
		c-0.6-0.3-0.9-0.6-1.4-1.1c-0.3,0.6-0.6,1.1-1.1,1.7c-0.2,0.2-0.5,0.2-0.5,0.2c-0.3-0.5,0-0.6,0.3-0.8c0,0,0.2-0.5,0-0.5
		c-0.5-0.2-0.8,0-1.4,0c-2,0-2.4,0.2-4.9-0.9c-1.2-0.5-5.2-1.5-6.9-0.8c0.9,0.6,2.4,1.5,3.4,2c2.7,1.2,4.7,2.9,7.6,3.7
		c0,0,0,0.2,0.2,0.2c1.1,0.9,2.1,1.5,3.5,1.8c4,1.2,7.9,1.7,11.7,3.2c0.8,0.3,1.7,0.5,2.4,0.2c0.2-0.2,0.5-0.2,0.6,0
		c1.4,0.8,2.7,0.8,4.3,0.9c0.2,0,0.3,0,0.5-0.3c0.2-0.2,0.6-0.5,0.9-0.2c0.8,0,1.4-0.2,2.1,0c1.1,0.2,2.3,0.5,3.4,0.3
		c2.3-0.3,4.4-0.6,6.7-0.8c0.6,0,1.2-0.2,1.8-0.5c1.5-0.6,3-1.4,4.7-1.5c0.3,0,0.6-0.3,0.8-0.5l4.1-2.3c0.3-0.6,0.5-1.2,0.8-1.8
		c-0.5-0.2-0.9-0.3-1.5-0.5c-0.2,0.6-0.9,1.7-1.4,1.8c-0.2,0-0.3,0.2-0.3,0.2c-3.8,2-7.3,3-11.7,3.4c0-0.2-0.2-0.3,0-0.3
		c0-0.2,0.2-0.2,0.2-0.2c3.4-1.1,6.6-2.1,9.9-3.4c0.6,0.2,1.1,0.5,1.7,0.6c-0.5-0.6-0.6-0.9,0-1.5c0.6-0.6,1.4-1.2,2.1-1.8
		c2.4-1.5,4.7-3.4,6.9-5.3c2.9-2.6,5.8-5.3,8.7-8.1c0.5-0.5,1.2-0.3,1.5-0.9c0.6-0.8,1.1-1.7,2-2.1c0.2,2.4-0.6,3.7-2.7,4.6
		c-0.5,0.2-0.9,0.6-0.9,0.9c-0.2,0.3,0,0.8-0.2,0.9l-3.2,3.2c-0.3,0.3-0.8,0.6-1.2,0.9c-1.1,1.1-2,2-3.4,2.6c-0.9,1.2-2,1.7-3.4,2.4
		c-0.3,0.2-0.5,0.2-0.8,0.3c-0.6,0.2-0.9,0.3-1.1,1.1c-0.2,0.6-0.3,1.2,0.3,1.8c1.1-0.6,2.3-1.2,3.2-2c0.9-0.8,1.8-1.7,2.6-2.6
		c0.2-0.2,0.5-0.5,0.8-0.6c2.1-1.2,3.8-2.9,5.5-4.4c3.2-3,6.1-6.1,8.5-9.9c0.8-0.2,1.4-0.3,2.1-0.5c0-1.2,0.6-1.8,1.4-2.6
		c0.8-0.8,1.7-1.4,2.7-1.8c0.8-1.8,2-2.7,3.4-4.1c0,0-0.5-0.6-0.2-0.8l0.3-0.2c0,0-0.2,0.2-0.3,0.2c0.9-1.1,1.8-2.3,2.7-3.4
		c0.5-0.6,0.8-1.2,1.2-1.7c1.4-1.1,1.8-2,2.3-3.7c0.3,0,1.1-0.2,1.1-0.3c0.8-1.2,1.8-2,2.6-2.9c0.5-0.6,0.6-1.4,0.9-2
		c0.6-0.9,0.9-1.8,1.8-2.6c1.8-1.7,3.4-3.5,4.6-5.8c0.3-0.6,0.8-1.1,1.2-1.5c1.8-1.7,3.5-3.7,4.9-5.6c1.5-2,2.9-3.7,5-4.9
		c0.5-0.3,0.9-0.6,1.2-0.9c1.7-1.8,3.2-4,4.7-5.8c1.2-1.5,2.6-3,4-4.7c1.4-1.7,2.7-3.4,4.1-4.9c2.6-3,5.2-4.7,7.5-7.9
		c0.8-1.2,1.4-2,2.6-2.4c1.5-0.6,2.9-0.5,4,0c0.6,0,1.1,0.3,1.5,0.6c1.2-0.3,2.4,0,3.2,0.9c0.3,0.2,0.6,0.5,0.9,0.8l0.3,0.3
		c1.4,0.5,2.7,1.2,4,2.1L230.7,406.6L230.7,406.6z M87.7,491.7c-0.2,0-0.2-0.2-0.2-0.2c0-0.2,0.2-0.3,0.3-0.3c0.2,0,0.3,0.2,0.3,0.2
		C88,491.6,87.7,491.7,87.7,491.7z M90.6,492.5c-0.8,0.2-1.2,0.2-1.4-0.6c0.6-0.2,1.1-0.3,1.7-0.5C90.8,491.7,90.6,492.2,90.6,492.5
		z M91.8,496.4h-0.2c0-0.2,0-0.3,0.2-0.5c0,0,0.2,0,0.2,0.2L91.8,496.4z M96.2,489.3c0,0-0.5,0.2-0.6,0.2c-0.2,0-0.3,0-0.2-0.2
		s0.6-0.3,0.6-0.3C96.2,489,96.4,489.1,96.2,489.3z M98.4,492.9c-0.2,0-0.6,0.2-0.9,0.2v-0.2c0.2,0,0.6-0.2,0.9-0.2V492.9z
		 M98.4,487.4c-0.2,0-0.3-0.2-0.2-0.3c0-0.2,0.3-0.2,0.3-0.2l0.2,0.2C98.7,487.3,98.4,487.4,98.4,487.4z M99,489.4
		c-0.2,0-0.2-0.3,0-0.3h0.9v0.3H99z M99.9,493.5C99.7,493.5,99.7,493.5,99.9,493.5c-0.2-0.2,0-0.5,0-0.5s0.2,0,0.2,0.2L99.9,493.5z
		 M102.3,493.2c-0.3,0.3-0.8,0.6-1.1,0.9c-0.2-0.5-0.3-0.8-0.5-1.2c0.5-0.2,0.9-0.5,1.4-0.5c0.2,0,0.5,0,0.5,0.3
		C102.6,492.8,102.6,492.9,102.3,493.2z M105.2,499.2c-0.2,0-0.5-0.2-0.5-0.3c0-0.2,0.3-0.3,0.3-0.3c0.2,0,0.5,0.2,0.5,0.3
		C105.5,499,105.4,499.2,105.2,499.2z M105.7,488.5c-0.2,0.2-0.8,0.5-0.9,0.6c0.2-0.3,0-0.5,0.2-0.8c0.2-0.2,0.5-0.3,0.9-0.2
		C105.8,488.2,105.8,488.4,105.7,488.5L105.7,488.5z M107.8,494c0,0-0.2,0-0.2-0.2c0,0,0.2-0.2,0.3-0.2l0.2,0.2
		C108.1,493.8,108,494,107.8,494z M111.9,497.4c-0.2,0-0.2-0.2-0.2-0.2s0.3-0.2,0.5-0.2c0.2,0,0.2,0.2,0.2,0.2
		C112.3,497.4,111.9,497.4,111.9,497.4z M113,494.1c0,0-0.2,0-0.2-0.2l0.2-0.2c0,0,0.2,0,0.2,0.2C113.2,494.1,113,494.1,113,494.1z
		 M113.6,497.5c-0.2,0-0.3-0.2-0.2-0.2c0-0.2,0.5-0.2,0.5-0.2c0.2,0,0.3,0.2,0.2,0.2C114.1,497.4,113.8,497.5,113.6,497.5z
		 M115.9,497.7l-0.3-0.2c0-0.2,0.3-0.2,0.5-0.2h0.3C116.2,497.4,115.9,497.7,115.9,497.7L115.9,497.7z M118.2,493.1
		c0,0-0.2-0.2,0-0.2l0.2-0.2c0,0,0.2,0.2,0,0.3L118.2,493.1L118.2,493.1z M121.7,490.2c-0.2,0-0.2-0.2-0.2-0.2
		c0.3-0.3,0.6-0.3,1.1,0C122.3,490,121.9,490.2,121.7,490.2z M128.1,487.1c-0.2,0-0.5,0-0.5-0.2s0.3-0.3,0.5-0.3
		c0.2,0,0.5,0,0.5,0.2C128.4,487,128.1,487.1,128.1,487.1z M135,465.9c0,0,0.5-0.2,0.5,0c0.2,0,0.2,0.2,0,0.2c0,0-0.3,0.2-0.5,0.2
		S134.8,465.9,135,465.9L135,465.9z M133.8,467.5c0,0,0.2,0.2,0,0.2l-0.2,0.2c0,0-0.2-0.2,0-0.3S133.8,467.5,133.8,467.5
		L133.8,467.5z M136.8,482.3c-1.4,0.9-2.4,1.5-3.4,2.9c-0.2,0.2-0.9,0.3-1.2,0.5c-0.6-1.2-0.5-2,0.3-2.7h0.2
		c0.9-1.2,1.7-2.3,2.7-3.5c0.3-0.3,1.1-0.5,1.5-0.6c-0.3,0.6-0.6,1.4-0.9,2l1.1,1.1C137.1,481.8,137,482.1,136.8,482.3z
		 M138.8,477.8c-0.2,0.2-0.6,0.2-0.8,0.2c-0.2,0-0.2-0.6,0-0.8c0.5-0.8,0.9-1.4,1.7-1.2c0.2,0,0.2,0.2,0.2,0.2
		C139.9,477.1,139.4,477.5,138.8,477.8L138.8,477.8z M140.9,478.4c-0.2,0-0.6,0-0.6-0.2s0.3-0.5,0.5-0.6c0.2-0.2,0.3,0,0.3,0.2
		C141.2,478.1,141.1,478.4,140.9,478.4z M157.4,459.1c0.2,0,0.2,0,0.2,0.2s-0.2,0.5-0.2,0.5c-0.2,0-0.2-0.2-0.2-0.3
		S157.4,459.1,157.4,459.1L157.4,459.1z M152.4,472.8c0,0.8,0,1.5,0.2,2.3C151.9,474.2,152.1,473.6,152.4,472.8z M161.8,464
		c-1.1,0.6-1.4,1.4-1.7,2.6h-1.8c-1.2,1.8-2.3,3.7-3.5,5.5c-0.8,0.2-1.7,0.3-2.4,0.3c2.6-2.9,5-5.8,7.6-8.7c0.5-0.6,1.1-1.2,1.7-1.7
		s0.9,0.5,1.1,0.9C162.6,463.3,162.1,463.7,161.8,464z M164.4,459.4c-0.2,0-0.5,0-0.6-0.2c-0.2-0.2,0-0.3,0.2-0.3
		c0.2,0,0.6-0.2,0.8-0.2C164.7,458.9,164.6,459.4,164.4,459.4L164.4,459.4z M169.7,452.7c-0.8,0.8-1.7,1.4-2.4,2
		c-0.2,1.2-0.9,1.5-2,2c0.6-0.8,1.2-1.4,1.8-2.1c0.8-1.7,1.8-3,3-4.6C170.7,451.1,170.5,451.9,169.7,452.7L169.7,452.7z
		 M171.1,448.9c0.5-1.2,0.6-1.7,2-1.2C172.5,448.1,172,448.7,171.1,448.9z M665.2,388.8c-0.2-1.1-0.2-2.1-0.2-3.2
		c-1.1-0.5-2.1-0.8-2.9-1.8l-0.3-0.3c-1.8-0.6-3.4-1.4-5.2-1.2l-1.4-0.5l0.2-0.2c0.5-0.5,0.3-0.9-0.2-1.1c-1.1-0.6-2.1-1.1-3.2-1.5
		c-3.2-1.5-6.1-3.2-9.6-4c-0.3,0-0.6-0.2-0.9-0.3c-0.6-0.2-1.4-0.5-2-0.6c-1.7-0.3-3.4-0.6-5-1.1c-1.2-0.3-2.6-0.6-3.8-0.9
		c-1.2-0.3-2.6-0.5-3.8-0.8c-0.6-0.2-1.4-0.2-2-0.3c-1.1-0.3-2-0.5-3-0.6c-1.5-0.2-2.9-0.2-4.4-0.3c-2.3-0.2-4.6-0.3-7-0.2
		c-3.5,0.2-7,0.6-10.5,0.9c-0.8,0-1.5,0.2-2.1,0.3c-0.6,0.2-1.1,0.5-1.7,0.6c-0.6,0.2-1.2,0.5-2,0.5c-0.6,0.2-1.4,0-2.1,0.2
		c-0.6,0-1.4,0.3-2,0.5c-1.2,0.3-2.4,0.9-3.8,1.4c-1.2,0.5-2.6,0.8-3.8,1.1c-1.4,0.3-2.6,0.5-3.8,0.9s-2.4,0.9-3.7,1.5
		c-2.4,1.2-4.9,2.4-7.3,3.5c-1.2,0.6-2.4,1.1-3.8,1.5l-0.9,0.5l-0.2,0.2c-0.2,0-0.2,0.2-0.3,0.2c-0.2,0.2-0.2,0.2-0.5,0.3
		c-0.2,0.2-0.5,0.5-0.8,0.6c-0.3,0.2-0.6,0.3-0.9,0.3s-0.6,0.2-0.8,0.3l-0.2,0.2c-0.9,0.6-1.4,1.2-2.3,1.8s-2.4,1.5-3.2,2.1
		c-1.8,1.2-3.5,2.4-5,3.8v0.2c-0.2,0.3-1.1,2.1-1.2,1.2c-0.3,1.7-1.1,3-2.7,3.5c-0.6,0.9-1.1,1.8-1.4,2.7c-0.2,0.5-0.5,0.9-0.8,1.4
		c-1.7,4.6-3,9.3-4,14c0.2,0.2-0.3,1.1-0.2,1.4c0.2,0.3,0.6,0.5,0.8,0.9l0.6-0.2c0.3,0,0.5-0.2,0.6-0.2c0.6-0.6,1.4-1.2,2.1-1.8
		c2.4-1.7,5.3-2.3,8.1-3.4c4.9-1.7,9.5-3.8,14.3-5c0-0.6,0.5-0.9,0.9-1.2c1.8-0.9,3.5-1.8,5.3-2.7c2.1-1.1,4.1-2,6.6-2.3
		c0.5,0,0.8-0.3,1.2-0.5c0.5-0.2,0.8-0.3,1.2-0.5c0.5-0.2,0.9-0.2,1.5,0c0.2,0,0.5,0,0.6-0.2c1.7-0.8,3.5-0.9,5-1.8
		c0.2-0.2,0.5-0.2,0.6-0.2c1.2,0,2.3-0.3,3.5-0.9c0.9-0.5,1.8-0.3,2.7-0.3c0.9,0.5,1.5,0.3,2.1-0.5c1.5-0.2,3.4-0.3,4.7-0.6
		c1.8-0.3,3.5-0.3,5.2-1.1c1.5,0.6,2.9,0.9,4.6,1.1c0.5,0,1.1-0.2,1.5-0.3c0.3,0.3,0.5,0.8,1.1,0.8c1.1,0,2,0.3,3-0.3
		c0.2-0.2,0.5,0,0.6,0c2.1,0.2,4.1,0.5,6.3,0.8c0.2,0,0.5,0.2,0.6,0.3c0.8,0.8,1.7,0.9,2.6,1.1c0.6,0.2,1.2,0.2,1.7,0.5
		c1.1,0.5,2,0.8,3,0.9c0.3,0,0.8,0.2,1.1,0.3c0.9,0.5,1.7,0.6,2.6,0.6c-0.6,0.5-1.2,0.9-2,1.2c0,0,0.2,0,0.2,0.2
		c-5.9,3.5-20.4,12.2-27.4,15.2l-1.5,0.8l-21.7,11.6c-1.2,0.8-2.4,1.4-3.8,2.1c-16.2,8.8-31.1,13.1-47.4,15.6
		c-1.4,0.2-2.7,0.5-4.1,0.6c-0.3,0-0.5,0.2-0.8,0.2c-0.2-0.2-4.3,0.8-9.5,1.5c-2.9,0.5-6.1,0.8-9.1,0.9c-1.1,0-2,0.2-2.9,0.2
		c-1.5,0-2.9,0-4-0.3c-25.2,0.5-25-10.8-24.2-14.6c0.2-0.3,0.3-0.5,0.3-0.6c0.2-0.3,0.2-0.5,0.2-0.5v-0.2c0,0,0-0.2,0.2-0.2
		c0.6-3.2,1.8-6.3,2.7-9.5c0.3-1.1,0.6-2.3,0.9-3.4c0.8-2.4,1.5-4.9,2.4-7.2c0.8-1.8,1.5-3.7,2.6-5.5c0.5-0.8,1.2-1.4,2.1-1.7
		c0-0.6,0.2-1.1,0.5-1.5c-0.2-0.2-0.2-0.3-0.2-0.6c-2.3,1.1-5.6,1.2-7.2,2.1c-2.4,1.4-5,1.4-5.9,4.6c-0.3,0.8-3,2-3.7,2.6
		c-5,4.3-5,12.2-8.8,17.5c-0.8,1.2-1.2,5.6-1.7,6.9c-1.7,3.8-0.3,7.8-2.1,11.4c-1.1,2.1,1.1,4.3,0.5,6.7c-0.3,1.4,1.2,2.9,0.9,4.3
		c1.4,1.5,0.5,3,1.7,4.4c0.2,1.2,0.5,2.4,0.8,3.7c0.8,0.9,1.5,1.7,2.4,2.4l-0.2,0.2c0.5,0.3,0.8,0.5,1.2,0.8
		c0.8,0.6,1.4,1.1,2.1,1.5c0.5,0.3,0.9,0.8,1.4,1.2c0.3,0.5,0.6,0.8,0.9,1.2c1.5,0.9,3,1.5,4.6,2.3c0.6-0.2,1.1-0.3,1.5-0.3
		c2.1,0.3,3.8,0.8,5.8,0.9c1.1,0.2,1.7,0.3,2.7,0c1.4-0.3,1.5-0.8,3.4-0.3c1.8,0.5,8.5-0.8,9.9-0.9c3.4-0.3,4-0.2,6.7-0.2
		c2.4,0,4.7-0.2,6.3-2.6c0.5,0.5,0.8,1.1,1.5,0.9c1.1-0.2,2.1-0.2,3-0.2c1.5,0,3,0,4.7-0.9c0.2-0.2,0.6-0.2,0.9-0.2
		c3.5,0,6.7-1.2,10.2-2c0.8-0.2,1.4-0.3,2.1-0.3c0.8-0.2,1.8-0.6,2.6-1.1c1.1-0.8,2.3-1.2,3.4-0.9c3.2,0.6,6.1-0.6,8.8-1.8
		c2.7-1.1,5.2-2.3,8.2-2.9c1.7-0.3,3.2-1.2,4.7-2s3.2-1.7,4.6-2.4c2-1.2,3.4-2.9,5.6-2.7c1.8-1.5,3.2-1.8,5.6-2.1
		c1.7-0.3,2.7-0.3,3.5-2.3c0.2-0.3,0.5-0.5,0.8-0.6c1.1-0.5,2-0.6,3-1.2c1.1-0.6,2.3-1.5,2.7-2.4c0.8-1.5,2-1.2,2.9-2.1
		c0.9-1.1,1.5-1.2,2.7-1.1c0.5,0,0.9,0,1.1-0.3c0.5-0.3,0.8-0.8,0.9-1.4c0.5-1.1,1.2-1.4,2.1-1.5c2.9-0.5,5.2-0.8,7.9-1.4
		c0.6-0.2,1.2-0.5,1.7-0.9c0.8-0.8,1.4-2,2.3-2.6c0.9-0.6,2-0.6,2.9-0.9c0.5-0.2,0.9-0.9,1.4-1.2c1.4-1.1,2.7-2.3,4.1-3
		c1.4-0.8,2.6-1.7,3.5-2.7c0.5-0.6,1.2-1.4,1.8-1.4c3.4,0.8,5.5-1.8,8.7-1.8c0.3,0,0.8-0.5,1.1-0.8c0.6-0.8,1.2-2.3,2.1-2.4
		c1.2-0.3,1.8-0.8,2.9-1.2c1.4-0.8,2.7-1.5,4-2.3c1.8-1.1,3.4-2.3,5.3-3c1.1-0.5,2.1-1.1,2.9-1.8c1.1-0.9,2.1-1.8,3.4-2.7
		c1.8-1.1,3.4-2,4.6-2.7c0.6,0.5,1.1,0.6,1.5-0.2c0.2-0.2,0.3-0.2,0.6-0.2c0.2,0,0-0.2,0-0.5c0-0.2,0.2-0.9,0.3-1.1
		c-0.3-0.3-0.5-0.5-0.6-0.8h0.9c0.3-0.6,0.6-1.1,1.1-1.7c0.8-2.1,1.7-4.4,2.3-6.6c0.2-0.8,0.2-1.4,0.3-2c0-0.2-0.2-0.2-0.2-0.3
		c-0.5-0.6-0.6-1.5-1.1-2.1c0.5,0.2,0.9,0.5,1.4,0.6C664.1,393.8,664.3,391.2,665.2,388.8L665.2,388.8z M579.2,399.3
		c-0.2,0.2-0.6,0.3-0.8,0.3c-0.2,0-0.3,0-0.3-0.2s0-0.3,0.2-0.5c0.2,0,0.8-0.2,0.9-0.2C579.2,399,579.3,399.2,579.2,399.3z
		 M584.5,396.9c0.6,0.2,1.1,0.3,1.7,0.5C585.3,397.9,584.8,397.8,584.5,396.9z M594.6,392.9C594.6,392.9,594.6,392.7,594.6,392.9
		c0.3-0.2,0.5-0.2,0.6-0.2c0,0.2-0.5,0.5-0.6,0.5C594.6,393.2,594.6,392.9,594.6,392.9z M591.8,395.8c-0.2-0.5,0.3-0.6,0.6-0.8
		c1.4-0.3,2.6-0.6,4-0.8c0.2,0,0.8,0.3,0.9,0.5C595.3,395.3,593.6,395.9,591.8,395.8z M630.1,396.4c-4.3-2-9-2.3-13.3-3.4
		c-2.4-0.6-4-1.1-6.1-1.4c-0.6-0.2-1.1-0.2-1.7,0.6c-0.6-1.1-1.4-1.2-2.1-0.8c-1.2,0.6-2.3,0.5-3.5,0.5c-0.2,0-0.5-0.6-0.6-0.8
		c1.2-0.2,2.6-0.5,3.8-0.6c0.2,0,0.3-0.2,0.5-0.2c1.1,0,2,0,3-0.2h0.2c0.6,0,1.1,0,1.7-0.2c0,0.3,0.2,0.6,0.5,0.6h1.2
		c0.3,0,0.6,0,0.9,0.2c1.2,1.1,2.1,0.9,3.7,1.1c2,0.2,4.1-0.5,6.1,0.5c0.2,0.2,0.5,0.2,0.6,0.2c1.2-0.3,2.1,0.2,3.4,1.4
		c0.3,0.3,0.9-0.2,1.2-0.3c0.5,0.8,0.8,1.5,1.1,2.3C630.4,396.1,630.2,396.4,630.1,396.4L630.1,396.4z M634.2,398.8
		c-1.2-0.3-2-1.2-3-2.1c-0.2-0.2-0.2-0.6-0.2-0.9c0.2,0,0.5-0.2,0.6,0c0.8,1.1,1.4,1.8,2.3,1.8c0.3,0,0.8,0.5,1.1,0.8
		C635,398.7,634.5,399,634.2,398.8z M636.7,399.5c-0.3-0.2-0.8-0.5-1.2-0.9c0.5,0,0.9,0,1.5,0.2h0.3
		C637,399,636.8,399.3,636.7,399.5L636.7,399.5z M891.1,344c0,0-1.4-3.2-1.4-3.4c-0.3-2.6-2-5.6-3.5-8.8c-1.4-3-1.7-5.6-3.4-9.3
		c-0.8-1.5-1.7-2.9-3.7-7c-1.2-2.6-4-7.9-5.3-11c-1.8-4-4.3-9-5.9-12.7c-2.3-4.7-3-7.2-4.1-9.1c-1.1,2-2.7,3.5-4,6.7
		c-0.9,2.4-1.4,6.6-3,6.6c0.2,0.3-3.8,4.1-2.6,6.3c0.6,1.1-2.9,3.2-2.1,4.3c0.2,0.2,0.2,0.5,0.2,0.6c-0.6,1.2-1.4,2.3-2.1,3.5
		c0.9,2.7,3.8,4.7,4,5.8c0.2,0.5,0.2,0.9,0.3,1.4l0.5-0.5c0.3,2.1,0.6,3.7,1.8,4.4c0.9,0.6,0.8,3.2,1.1,4.7l-1.1,2.1
		c0.3,1.1,0.5,2.3,0.8,3.5c0.3,0.2,0.6,0.3,0.8,0.8c1.8,5.3,3.2,11.4,4.1,18c0.3,2.7,0.3,5.8,0.9,8.2c1.2,5,1.7,10.8,2.6,16
		c1.4,7.6,1.8,16,2.4,24.2c0.5,5.2,0.5,10.7,0.8,15.9c0.3,3.7,1.4,16.6,1.2,18.6c-0.2,1.1-0.2,2.4-0.2,2.9c-0.6,0.5-3.4,3-3.2,3
		c-6.7,4.1-17.1,3.8-24.9,4c-0.3-0.5-4-0.3-4.9-0.5c-1.7-0.3-3.2-0.8-4.9-1.4c-5.6-2.1-11-5-13.6-10.5c-3.8-7.9-2-14.3-2-14.3
		c-2.4,2-3.2,3.5-4.3,5.3c-1.1,1.2-2.1,2.6-3.2,3.7c0,0.3-2.6,3-2.7,3.4c-0.3,0.6-0.9,1.2-1.5,1.5c-0.6,1.1-1.4,2.1-2.1,3
		c0,0,0,0.2-0.2,0.2c-0.2,0.8-0.8,1.5-1.4,2c-0.2,0.2-0.3,0.2-0.5,0.2c-0.8,1.5-3,2-3.8,3.4c-0.6,1.1-3.8,4.6-9.5,6.4
		c-2.4,0.8-3,2.1-5.6,1.7c-0.2,0-0.2,0-0.3,0.2c-2.4,0.8-5-0.6-7-2.1c-0.3-0.2-0.5-0.5-0.8-0.6c-3.5-2.1-6.4-5.8-7-9.8
		c-0.2-0.3-0.2-0.5-0.3-0.8c0.5-1.1,0.9-2,1.4-3c0.2-0.8,0.3-1.5,0.6-2.6c0.3-0.9,0.3-2.1,0.6-3c0.3-0.8,1.1-1.2,1.4-2v-0.5
		c-0.2-0.3-0.5-0.5-0.6-0.5c-1.5,1.4-3.2,2.6-4.6,4.1c-2.6,2.6-4.6,5.6-7.3,7.9c-3.2,2.7-5.9,5.9-9.1,8.8c-1.1,0.9-2.7,3-4.6,3.5
		c-0.2,0.2-0.2,0.3-0.3,0.3c-0.8,0.3-0.5,1.2-1.4,1.4c-0.2,0.6-0.9,0.6-1.2,1.1c-0.5,0.5-0.8,0.8-1.2,1.1c-0.5,0.3-0.9,0.5-1.2,0.8
		l-0.3,0.3c-8.7,4.4-19.8,5.2-28.2-0.8c-0.3-0.3-0.8-0.5-1.1-0.8c-2.7-1.4-4.9-3.7-6.3-6.6c-2.1-4.7-1.4-9.6-0.9-14.5
		c0-0.3,0.2-0.6,0.5-0.8c0.3-1.4,1.1-2.7,1.4-4.3c0-0.2,0.2-0.3,0.2-0.3v-0.5c0-0.3,0.2-0.5,0.3-0.6c0-0.2,0.2-0.2,0.2-0.3
		c0,0,0-0.2,0.2-0.2v-0.3c-1.7,1.8-3.5,3.4-6.4,6.6l-1.7,1.7l-1.2,1.2c-0.6,0.8-1.7,1.5-2.3,2.4c-0.8,1.1-1.4,2.9-2,4.3v-0.5
		c-0.5,0.8-0.8,1.4-1.2,2.1c-0.2,0.3-0.5,0.6-0.6,1.1c-0.6,1.5-1.1,3.4-1.5,4.9c-0.2,0.6-0.5,1.5-0.8,2.1v0.5
		c-0.2,0.5-0.3,0.9-0.3,1.4v5.3c0,0.3-0.2,0.5-0.2,0.8v0.3c0,1.1,0,2,0.3,3c0.2,1.1,0.3,2.3,0.6,3.4c0.3,1.2,0.8,2.3,1.1,3.5
		c0.3,0.9,0.5,1.8,0.8,2.7c0.3,0.6,0.6,1.2,0.9,1.7c1.5,2.6,3.5,4.7,5.9,6.6c0.6,0.6,1.2,1.2,1.8,1.7c1.5,1.2,2.9,2.1,4.6,3
		c0.5,0.2,0.8,0.3,1.1,0.5s0.8,0.3,1.1,0.5s0.8,0.3,1.1,0.5c0.3,0.2,0.8,0.6,1.1,0.6h0.5c0.2,0,0.5,0.2,0.6,0.3
		c0.3,0.3,0.8,0.5,1.1,0.3c0.8,0,1.2,0,2,0.2c0.6,0.2,1.4,0.2,2,0.3s1.4,0.3,2,0.5c0.6,0,1.2,0,1.8-0.2c0.3-0.2,0.5-0.3,0.8-0.3
		c0.3-0.2,0.5,0,0.9,0c0.5,0,1.2,0.3,1.7,0.3c0.9,0,1.8-0.2,2.6-0.6c0.8-0.3,1.5-0.3,1.5-1.4c0.3-0.2,0.8-0.3,1.1-0.5
		c1.4-0.5,2.4-0.8,3.7-1.5c0.5-0.3,0.8-0.6,1.4-0.5c0.2,0,0.5-0.2,0.6-0.3c0.3-1.2,1.2-1.2,2.3-1.4c0.5,0,0.9,0,1.4-0.3
		c0.5-0.3,1.1-0.6,1.7-0.8c1.1-0.5,2.3-1.1,3.4-1.7c0.2,0,0.2-0.3,0.2-0.3c-0.5-0.2-1.1-0.2-1.4-0.2c-0.3,0-0.5,0.2-0.5,0.3
		c-0.2,0.5-0.5,0.5-0.8,0.6c-1.1,0.5-2.1,0.6-3,1.5c-0.2,0.2-0.2,0.2-0.3,0.2c-0.6-0.2-0.9-0.2-1.5,0c-0.2,0-0.3-0.2-0.5-0.2
		c0.5-0.6,0.8-1.1,1.1-1.5c0.2-0.2,0.3-0.3,0.6-0.2s0.6,0.3,0.9,0s0.6-0.3,0.9-0.6c-0.8-0.3-0.8,0.3-1.4,0.2c-0.2,0-0.2-0.5,0-0.5
		c0.5-0.3,1.1-0.6,1.5-0.9h0.3c0.2,0.3,0,0.6,0.2,0.9c0.3-0.2,0.8-0.5,1.1-0.6c0,0,0.2-0.3,0-0.3h-0.6c0.2-0.5,0.9-0.9,1.2-1.2
		c0.3-1.1,1.7-1.1,2.4-1.5c0.3-0.2,0.6-0.3,1.1-0.2c0.5,0.5,0.9,0.3,1.2,0c0.8-0.6,1.2-1.1,2-1.5c1.7-0.8,2.6-2,3.2-3.7
		c0.9,0,1.4,0,1.8-0.9l-0.6-0.6c0.6-0.6,0.8-0.8,1.5-0.5c0.2,0,0.5,0,0.3-0.2c0-0.8,0.5-1.1,0.3-1.8c0-0.5,0.5-0.5,0.9-0.3
		c0.2,0,0.3-0.2,0.3-0.3c-0.2-0.6,0-0.9,0.5-1.2c0.2-0.2,0.5-0.5,0.6-0.8c0,0,0.5-0.9,1.1-2c0.2,0.5,0.2,0.9,0.2,1.5
		c-0.2,0.5-0.2,0.9-0.3,1.2v3.8c0.2,0.3,0.3,0.5,0.3,0.8c0.3,0.5,0.5,0.9,0.6,1.5c0.6,1.1,1.2,2.3,2,3.2c0.8,0.8,1.7,1.4,2.4,2
		c1.1,0.9,2.1,1.7,3,2.6c5.9,2.9,13.7,2.6,19.5-0.5c4.7-2.4,8.5-6.6,12.2-10.4c0.2-0.3,0.3-0.8,0.8-1.1l0.3-0.3
		c0.5-1.1,1.2-2.3,2.1-3.2c0.3-0.6,0.6-1.1,1.1-1.4c0.3-0.9,0.8-1.8,1.2-2.7c0.2-0.3,0.3-0.5,0.5-0.6c0.2-0.6,0.3-1.2,0.3-1.8
		c0-1.1,0.6-2,1.4-2.4c0.5-1.1,0.9-2.1,1.2-3.2c0-0.3,0.2-0.5,0.3-0.8v0.2c0,0.2,0.2,0.8,0.2,0.9c0,0.6,0,0.8,0.3,1.4
		c0,0.2,0.2,0.2,0.2,0.5s0,0.9-0.2,1.2c0.6,0.5,0.5,1.2,0.9,1.8c-0.2,0.5,0.2,0.9,0.2,1.4c0,0.2,0,0.3,0.2,0.6
		c0.2,0.2,0.3,0.8,0.3,1.1c0,0.2,0.5,0.2,0.5,0.3c0.2,0.6,0.6,1.1,0.6,1.7v0.2c0.6,0.8,0.9,1.2,2,1.4c0,0,0.2,0,0.2,0.2
		c0,0.2-0.2,0.2-0.3,0.2c-0.2,0-0.5,0.2-0.2,0.5c0.2,0.3,0.5,0.6,0.8,1.1c0.8,0.9,1.4,2,2.3,2.7c0.2,0,0.2,0.2,0.2,0.3l0.5,0.5
		c0.5,0.3,0.9,0.8,1.2,1.1l0.9,0.9c0.3,0.3,0.8,0.6,1.1,0.8s0.3,0.2,0.6,0.5c0.3,0.3,0.5,0.5,0.9,0.6s0.9,0.5,1.4,0.8
		c0.6,0.5,1.4,0.8,2.1,1.1c1.1,0.5,2.3,0.8,3.5,1.2c0.3,0.2,0.5,0.2,0.8,0.2h1.5c0.3,0,0.5,0.2,0.8,0.3h0.8c0.5,0,1.1,0,1.7-0.2h1.7
		c0.6,0.2,1.1,0.3,1.5,0.3h1.7c1.2,0,2.4-0.2,3.7-0.2h2.9c0.2,0,0.3-0.2,0.5-0.2h1.1c0.5-0.2,1.1,0,1.4-0.3c1.1-0.9,5-3.4,5.5-3.5
		c1.4-0.2-1.2,2.7,0,2.4h0.2c1.2-0.3,2.4-0.9,3.7-1.4c0.6-0.3,1.2-0.5,1.8-0.8c0.6-0.2,1.2-0.5,1.8-0.8c1.2-0.6,2.3-1.2,3.4-2
		c1.1-0.8,2-1.5,2.9-2.3c1.5-1.4,2.7-2.7,3.8-4.1c1.4-1.8,2.4-3.7,3.4-5.3c2.4-4.3,4.9-7.9,6.6-12.5c0.9-2.9,1.7-6.1,2.7-8.8
		c2.3-5.9,3.8-11.7,4.4-18.1c0.2-1.1,0.5-2.1,0.6-3c0.2-0.5,0.3-1.1,0.3-1.5v-1.5c-0.3-3.4,0.2-6.9,0-10.4c0-1.7-0.6-3.5-0.6-5.2
		c0-1.1,0.3-2.1,0.3-3.2c-0.5-5.6-0.9-11.1-1.8-16.8c0-0.3,0.3-0.8,0.3-1.2c-0.6-4-1.1-7.8-2.1-11.7c-0.3-0.9,0.2-2.7,0-4.1
		c-0.3-2.7-1.2-5.9-1.8-8.8c-0.3-1.4-0.2-2.9-0.5-4.3l-0.5-1.8c0.6,0.6,1.1,1.2,1.7,1.8c1.7,2,1.8,3.4,3.2,4.9
		c-0.5-1.2,1.2-0.8,1.1-1.4c-0.2-0.5,0-0.8,0.3-0.8c0.5,0.3,0.8,0.5,1.1,0.6h0.3c0.3,0.2,0.5,0.2,0.3-0.2c0.5,0.3,0.9-0.3,1.5-0.5
		c0.6-0.2,0.9-0.8,1.5-0.5c-0.3-0.9,0.8,0.3,0.9-0.3C891.1,345.9,891.5,343.3,891.1,344L891.1,344z M722.7,482.6c0,0,0.2,0,0.3,0.2
		v0.2c0,0-0.2,0-0.2-0.2C722.7,482.7,722.7,482.6,722.7,482.6z M721.3,485.2c0.5-0.6,0.9-0.8,1.7-0.6
		C722.3,484.8,721.7,485,721.3,485.2z M730.7,480.1c-0.6,0-0.9,0.3-1.4,0.5l-2.3,0.9l-2.7,0.9c0-0.2-0.3-0.2-0.2-0.3
		c0.2-0.2,0.5-0.5,0.8-0.6c1.1-0.3,1.8-1.1,2.7-1.5c0.3-0.6,0.8-0.6,1.4-0.6c1.1,0,2-0.3,3-0.6C731.6,479.5,731.3,480,730.7,480.1
		L730.7,480.1z M745.1,470.2c0.3-1.1,1.1-1.2,1.8-1.7C746.6,469.4,745.8,469.8,745.1,470.2z"/>
	<g>
		<path class="st0" d="M704.2,238.3c-0.5-4-1.8-10.5-3.8-13.7c-0.2-0.2-0.2-0.3-0.2-0.5c-0.5-0.5-0.9-1.1-0.9-1.2
			c-0.2-0.3-0.2-0.6-0.3-0.8c-0.2-0.3-0.2-0.5-0.3-0.6l-0.2-0.2c-0.2,0.2-0.3,0-0.3-0.3c-0.2-0.2-0.2-0.5-0.3-0.6
			c0-0.2-0.2-0.3-0.3-0.3h-0.2c0-0.2,0-0.2-0.2-0.3c-0.2-0.3-0.3-0.6-0.5-0.8c-0.2-0.3-0.3-0.5-0.6-0.6l-0.2-0.2
			c0-0.2,0-0.3-0.2-0.3c-0.2-0.3-0.2-0.5-0.3-0.5h-0.3c0-0.6-0.2-0.9-0.5-0.9c-0.2-0.2-0.5-0.3-0.6-0.5l-0.5-0.5
			c-0.2-0.3-0.3-0.8-0.5-1.1c-0.5-0.5-2.4-1.5-3-1.8c-0.2-0.2-0.3-0.3-0.5-0.3c-4.6,2.7-8.5,8.1-10.8,15.1c0.9-2.1,2.4-2.9,4.6-2.7
			c1.7,0.2,4,1.4,5,3.2c0.2,0,0.2,0.2,0.3,0.2c0.2,0.2,0.5,0.3,0.5,0.8v0.2c0.2,0,0.3,0,0.5,0.3c0.2,0.2,0.3,0.5,0.5,0.6l0.5,0.5
			c0.2,0.2,0.3,0.5,0.5,0.6c0.2,0.3,0.5,0.6,0.6,0.9c0.2,0.3,0.3,0.5,0.5,0.6c-0.2,0-0.3-0.2-0.3-0.2c5.9,6.9,9.6,16.3,10.7,26.2
			c0.2-0.3,0.2-0.6,0.3-1.1c0.2-0.5,0.3-1.1,0.3-1.7c0-0.6,0.5-1.1,0.8-1.4c0.3-0.3,0-0.3,0.2-0.8c0.2-0.6,0.2-1.8,0.2-2.4v-1.5
			c0-0.3,0.2-0.5,0.2-0.8v-0.3C704.5,245,704.7,241.5,704.2,238.3 M626.9,238.3c-0.6-4-2.3-10.5-4.7-13.7c-0.2-0.2-0.2-0.3-0.2-0.5
			c-0.5-0.5-1.2-1.1-1.1-1.2c-0.2-0.3-0.3-0.6-0.3-0.8c-0.2-0.3-0.3-0.5-0.3-0.6l-0.2-0.2c-0.2,0.2-0.3,0-0.3-0.3
			c-0.3-0.3-0.5-0.5-0.5-0.6c-0.2-0.2-0.2-0.3-0.5-0.3h-0.2c0-0.2-0.2-0.2-0.2-0.3c-0.2-0.3-0.3-0.6-0.6-0.8
			c-0.2-0.3-0.5-0.5-0.8-0.6l-0.2-0.2c0-0.2-0.2-0.3-0.2-0.3c-0.2-0.3-0.3-0.5-0.3-0.5h-0.5c0-0.6-0.3-0.9-0.6-0.9
			c-0.3-0.2-0.5-0.3-0.8-0.5c-0.2-0.2-0.5-0.3-0.6-0.5c-0.2-0.3-0.3-0.8-0.6-1.1c-0.6-0.5-3-1.5-3.7-1.8c-0.2-0.2-0.5-0.3-0.6-0.3
			c-5.6,2.7-10.4,8.1-13.3,15.1c1.1-2.1,3-2.9,5.6-2.7c2,0.2,4.7,1.4,6.1,3.2c0.2,0,0.2,0.2,0.3,0.2c0.3,0.2,0.5,0.3,0.6,0.8
			c0,0.2,0,0.2,0.2,0.2c0.3,0,0.5,0,0.6,0.3c0.2,0.2,0.3,0.5,0.5,0.6l0.5,0.5c0.2,0.2,0.3,0.5,0.5,0.6c0.3,0.3,0.5,0.6,0.6,0.9
			c0.2,0.3,0.3,0.5,0.6,0.6c-0.2,0-0.3-0.2-0.5-0.2c7.2,6.9,11.7,16.3,13.1,26.2c0.2-0.3,0.3-0.6,0.3-1.1c0.2-0.5,0.3-1.1,0.3-1.7
			c0-0.6,0.6-1.1,0.9-1.4c0.3-0.3,0-0.3,0.2-0.8c0.2-0.6,0.2-1.8,0.2-2.4v-1.5c0-0.3,0.2-0.5,0.2-0.8v-0.3
			C627.3,245,627.5,241.5,626.9,238.3 M484,293.8c-0.3-2.6-0.5-5.2-0.5-7.8c0.2,0.3,0.3,0.5,0.5,0.8c0.2-0.3,0.2-0.6,0.3-0.9v-0.2
			l1.4-4.6c-0.2-0.2-0.2-0.5,0-0.6c0.3-0.9,0.5-1.7,0.9-2.6c0.2-0.3,0.3-0.5,0.6-0.6v-0.2c-0.2-0.3-0.2-0.6,0-0.9
			c0.3-0.5,0.5-0.9,0.6-1.5c0,0,0-0.2,0.2-0.2v-0.5c0.2-0.8,0.6-1.4,0.9-2v-0.5c0.3-0.6,0.6-1.4,0.9-2c0-0.2,0.2-0.3,0.2-0.5
			c0.9-1.1,1.7-2.1,2.4-3.2c0-0.2,0-0.2,0.2-0.3c0.8-0.9,1.5-2,2.1-2.9c0.2-0.3,0.5-0.5,0.8-0.5c0.5-0.5,0.9-0.8,1.4-1.1
			c0-0.2,0-0.2,0.2-0.3c0.3-0.3,0.6-0.5,0.8-0.8v-0.2c1.4-1.7,2.6-3.2,4.1-4.6c1.2-0.9,2.4-1.5,3.8-2.3c0,0,0-0.2,0.2-0.2l0.3-0.3
			c0-0.3,0.2-0.6,0.6-0.8c1.4-0.5,2.3-2.3,3.4-3.2c1.1-0.9,2.3-1.7,3.5-2.4c2.4-1.2,6.9-1.5,8.5-3.8c0.2-0.2,0.3-0.3,0.6-0.3
			c3.8-3.2,8.5-4.3,13.1-5.3c9-2.1,18.3-5.5,27.4-6.4v-1.1c0-0.6-0.2-1.5-0.2-2.1c0-0.5-0.2-0.8-0.2-1.1c0-0.5,0.5-0.3,0.8-0.3
			s0.6-0.2,0.5-0.6c0-0.3-0.2-0.8,0-1.1v-0.8c0-0.3,0.2-0.2,0.5-0.5c0.3-0.2,0.3-0.8,0.3-1.1c0-0.5-0.3-0.9-0.6-1.2
			c-0.3-0.3-0.5-0.6-0.6-0.9c-0.2-0.3,0.2-0.6,0.2-0.8s0.3-0.8,0-0.8c-1.1,0.2-2.4,0.6-3.7,0.8c-1.2,0.2-2.9,0.5-4.1,0.8
			c-1.2,0.2-2.7,0.3-3.8,0.5c-1.1,0.2-2.3,0.2-3,0.3c-0.8,0.3-1.2,0.5-1.5,0.3l-0.2-0.2c-0.2,0-0.3,0-0.5,0.2
			c-0.2,0-0.2-0.2-0.2-0.2c-0.6,0.6-1.4,1.1-2.3,1.4c-0.9,0.2-1.8,0.3-2.6,0.5c-0.8,0.2-1.1,0.3-1.7,0.5c-0.6,0.3-1.1,0.5-1.7,0.6
			c-0.8,0.2-1.4,0.3-2.3,0.6c-0.8,0.3-1.2,0.3-2.3,0.6c-1.1,0.3-3.7,1.5-4.9,2s-2.1,0.8-3.2,1.2l-3.2,1.4c-1.1,0.5-2.3,0.9-3.4,1.5
			c-1.1,0.5-2.4,1.1-3.4,1.5s-1.4,0.8-2.3,1.1c-0.9,0.3-1.5,0.6-2.4,1.2s-1.8,1.4-2.7,2c-0.9,0.6-2,1.5-2.7,2
			c-0.8,0.6-1.1,0.8-1.7,1.2c-0.6,0.5-1.1,0.9-1.7,1.2c-0.5,0.5-0.9,0.8-1.4,1.1c-0.5,0.3-0.8,0.8-1.2,1.1c-1.5,1.4-2.9,3-4.3,4.6
			c-0.6,0.6-1.2,1.2-1.8,2c-0.6,0.6-1.4,1.2-1.8,2c-0.2,0.2-0.3,0.8-0.5,1.1c0,0.2,0,0.2,0.2,0.3c0,0.2,0,0.3,0.3,0.2
			c0.2,0,0.5-0.3,0.8-0.5c-0.3,0.3-0.6,0.8-0.9,1.2c0-0.2-0.2-0.3-0.3-0.5c-0.2-0.2-0.6-0.2-0.8,0c-0.6,1.1-1.2,2-1.8,3
			c-0.6,1.1-1.2,1.8-2,2.9c-0.8,1.1-1.7,2.7-2.3,4.1c-0.6,1.4-1.4,3.5-1.8,4.7c-0.5,1.2-0.6,1.7-0.9,2.7c-0.3,0.9-0.6,1.4-0.8,2.4
			C480.2,280.7,480.2,287.4,484,293.8 M487.4,264.7c0-0.2,0.2-0.3,0.3-0.5c0.8-1.4,1.5-2.6,2.4-3.8c-0.9,1.5-1.8,3.2-2.6,4.9h-0.3
			C487.2,265,487.2,264.8,487.4,264.7"/>
	</g>
	<g>
		<path class="st1" d="M702.7,258.3v0.3c-0.2,0.5-0.2,0.6-0.3,1.2c-0.2,0.6-0.5,1.4-0.8,2c-0.3,0.6-0.6,1.5-0.8,2.1
			c-0.9,2.3-1.8,4.3-3.4,6.3c-0.3,0.5-0.5,0.8-0.8,1.2s-0.3,0.9-0.8,1.4c-0.3,0.5-0.9,1.2-1.4,1.8c-0.3,0.6-1.1,1.1-1.4,1.2
			c-0.5,0.3-0.3,0.2-0.6,0.5c-0.3,0.3-0.6,0.9-0.8,1.4c-0.3,0.5-0.6,0.8-0.9,1.2c-0.3,0.3-0.8,0.6-1.1,0.9s-0.6,0.6-1.1,0.9
			c-0.3,0.3-0.6,0.6-0.9,1.1s-0.5,0.6-0.9,1.1s-1.5,1.8-2,2.1c-0.5,0.5-0.2,0.8-0.6,1.1s-0.9,0.3-1.2,0.8c-0.8,1.1-1.7,1.8-2.7,2.4
			c-0.2,0-0.2,0.2-0.3,0.2c-0.3,0.6-0.9,1.2-1.4,1.5c-0.5,0.3-1.2,0.8-1.5,0.9c-0.3,0.2-0.3,0.2-0.3,0.3c-0.3,0.5-0.8,1.1-1.2,1.1
			c-0.6,0-1.1,0.3-1.4,0.5c-0.3,0.2-0.2-0.9-0.3-0.8c-0.3,0.2-0.9,0.6-1.2,0.8c-0.2,0.2,0.8,0.5,0.6,0.8c-0.2,0.3-0.6,0.8-0.9,1.1
			c-0.3,0.3-0.8,0.6-0.9,0.8c-0.3,0.2-0.2,0.2-0.5,0.2c-0.3,0-0.6,0.2-0.8,0.5c-0.2,0.3-0.5,0.5-0.8,0.8c-0.3,0.3-0.6,0.3-0.9,0.3
			s-0.2,0-0.3,0.2l-0.5,0.5c-0.3,0.3-1.1,0.8-1.4,1.2c-0.5,0.3-1.2,0.8-1.7,0.8c-0.3,0.2-0.3,0.2-0.5,0.3c-0.2,0.2-0.2,0.3-0.5,0.5
			c-0.2,0.2-0.6,0.5-0.8,0.8c-0.3,0.2-0.6-0.2-0.8,0c-0.3,0.6-0.9,1.2-1.5,1.4c-0.6,0.2-1.1,0.5-1.5,0.8c-0.5,0.3-1.1,0.8-1.7,0.9
			c-0.6,0.2-1.1,0.3-1.7,0.2c-0.5-0.2-0.9-0.2-1.2,0.2c-0.5,0.3-0.8,0.6-1.1,0.9c-0.3,0.3-0.5,0.5-0.9,0.6c-0.3,0.2-0.5,0.2-0.9,0.3
			c-0.5,0-1.1,0.2-1.4,0.5c-0.5,0.3-0.8,0.3-1.2,0.5c-0.5,0-0.9,0.2-1.4,0.2c-0.5,0-0.9,0.2-1.4,0.2c-0.5,0.2-0.9,0.2-1.5,0.2h-2
			c-0.6,0-1.4-0.3-1.8-0.5s-0.6-0.2-0.9-0.3l-0.9-0.5c-0.3-0.3-0.3-0.5-0.8-0.6c-0.3-0.2-0.5-0.2-0.9-0.5c-0.5-0.3-1.2-0.8-1.7-1.1
			c-0.5-0.3-1.2-0.8-1.7-1.2c-0.5-0.3-0.8-0.6-1.1-1.1s-0.8-1.1-1.1-1.4c-0.3-0.3-0.2-0.3-0.3-0.6c-0.2-0.3-0.2-0.5-0.3-0.8
			l-0.6-0.6c-0.3-0.3-0.3-0.5-0.5-0.9c-0.3-0.5-0.8-1.2-1.1-1.8c-0.3-0.6-0.8-1.2-1.1-1.8c0-0.2-0.2-0.3-0.2-0.5
			c0-0.2-0.2-0.3-0.2-0.5c-0.6-0.8-1.1-1.7-1.4-2.6c-0.3-0.9-0.6-2.1-0.9-2.9s-0.5-1.2-0.6-1.8c-0.2-0.8-0.3-1.2-0.6-2
			c-0.3-1.4-0.8-2.9-0.9-4.3c-0.3-1.4-0.5-2.9-0.6-4.4v-4.3c0.2,1.1,0.5,2.3,0.8,3.4c0.5,1.5,0.9,3.5,1.5,5c0.2,0.3,0.5,0.6,0.6,0.9
			v0.5c0.2,0,0.3,0.2,0.5,0.5c2.4,5.6,7.5,8.7,12.8,10.2c0.2,0,0.3,0.2,0.5,0.2c2.1,0.6,4.3,0.9,6.3,1.1c0.6-0.2,1.2-0.3,1.7-0.3
			c0.6,0,1.5-0.3,2-0.6c0.5-0.3,0.8-0.3,1.1-0.5c0.5-0.2,0.6-0.2,1.2-0.3c0.5-0.2,1.2-0.5,1.8-0.8c0.6-0.3,1.2-0.6,1.7-0.8
			c0.6-0.2,1.2-0.5,1.7-0.6c0.6-0.2,1.2-0.8,1.5-1.1c0.3-0.3,0-0.3,0.3-0.3c0.5,0,0.9-0.2,1.4-0.5c0.5-0.3,0.9-0.6,1.4-0.8
			c0.5-0.2,0.9-0.5,1.4-0.8c0.5-0.3,0.8-0.6,1.4-0.9c0.5-0.3,1.2-0.8,1.8-1.2c0.6-0.3,1.4-0.9,1.8-1.2c0.5-0.3,0.6-0.3,0.9-0.5
			c0.5-0.2,0.5-0.6,0.6-0.9c0.2-0.2,0.3,0.2,0.6,0c0.2-0.2,0.3-0.2,0.5-0.3c0.2-0.2,0.2-0.3,0.5-0.5c0.2-0.2,0-0.2,0.5-0.3
			c0.5-0.3,1.2-0.9,1.7-1.4c0.5-0.5,1.1-1.1,1.7-1.5s1.1-0.9,1.7-1.4s1.1-1.1,1.7-1.5s1.2-1.1,1.8-1.5c0.6-0.5,1.4-1.2,1.8-1.7
			c0.3-0.3,0.2-0.2,0.5-0.3c0.3-0.2,0,0,0.5-0.3c0.3-0.3,1.2-1.1,1.7-1.4l1.5-1.5c0.5-0.5,0.6-0.6,1.2-1.1c0.5-0.5,0.6-0.5,1.2-1.2
			c0.8-0.6,1.8-2,2.7-2.9c0.9-0.9,2.1-2.1,3-3.2c0.5-0.5,1.1-1.1,1.4-1.7c0.2-0.2,0.2-0.3,0.3-0.3c0.2,0,0.2-0.2,0.3-0.2
			c1.1-1.1,2.3-2,3.2-3.5c0-0.2,0.5-0.6,0.5-0.8c0.3-0.6,1.4-1.8,1.4-1.8l0.3-0.3L702.7,258.3L702.7,258.3z M612.1,232
			C612.1,232,611.9,232,612.1,232c-2.3-0.8-4.7-1.1-7-0.9c-0.9,0-8.5,0-9.3-1.8c0-0.2-0.2-0.3,0-0.5l0.2-0.2c0-0.2,0-0.2,0.2-0.2
			v-0.5c0-0.3,0.2-0.6,0.5-0.8c2.7-6.9,7.5-12.4,13.3-15.1c-1.2-0.6-2.3-0.9-3.5-1.5c-0.2-0.2-1.1,0.2-1.2,0H603c-3,0.8-5.6,2-7.5,4
			l-0.6,0.5c-0.2,0-0.5,0.6-0.6,0.6c-0.6,0.2-0.6,0.6-0.9,1.1l-0.6,0.6c-0.9,1.4-2,2.9-2.6,4.4c-0.2,0.2-0.2,0.3-0.3,0.5
			c-0.2,0.3-0.3,0.6-0.5,1.1v0.6l-0.2,0.5c0,0.2-0.2,0.3-0.2,0.3v0.3h0.2c0,0.2-0.2,0.3-0.3,0.5v0.2c0,0.2-0.2,0.2-0.2,0.3v0.3
			c0,0.2-0.2,0.3-0.2,0.3v0.6c0,0.2,0,0.3-0.2,0.5v0.8c0,0.3-0.2,0.6-0.3,0.8c0,0.2,0,0.3-0.2,0.5v0.2c0,1.4-0.2,2.7-0.3,4.3
			c0.2,1.4,0.3,2.7,0.5,3.7c-0.2,2.1,1.7,4.9,3.4,6.4c0.3,0,0.8,0.3,0.8,0.6l0.2,0.2h0.2c1.5,1.1,3.2,1.5,5,1.7
			c0.3-0.2,0.6-0.2,0.9,0h0.3c0.2,0,0.3,0,0.5,0.2c2,0.2,4.1-0.2,5.9-0.2c0.2-0.2,0.5-0.2,0.6-0.2h0.3c0.5,0,0.8-0.2,1.2-0.3
			c0.2,0,0.5,0,0.6,0.2h0.8c2.6,0,7-1.2,9.5,1.1c0.3,0.2,0.6-0.6,1.7,0.6c0,0.2,0.9,0.5,0.9,0.6c0,0,1.4,0.3,2,0.9
			c0.9,0.6,1.2,0.9,1.5,1.7c0,0.2-1.2,1.4-1.5,1.8c0,0.2-0.6,0.6-0.6,0.8c-0.9,1.4-2.6,2.3-3.8,3.5c-0.2,0.2-0.2,0.2-0.3,0.2
			l-0.3,0.3l-1.7,1.7c-1.2,1.1-2.6,2.1-3.7,3.2c-1.1,0.9-2.6,2.3-3.4,2.9c-0.9,0.6-0.9,0.8-1.5,1.2c-0.6,0.5-0.9,0.6-1.4,1.1
			c-0.6,0.5-1.2,1.1-1.8,1.5c-0.6,0.5-1.5,1.1-2,1.4c-0.5,0.3-0.2,0.2-0.5,0.3c-0.3,0.2,0,0-0.5,0.3c-0.5,0.3-1.5,1.2-2.1,1.7
			s-1.5,1.1-2.1,1.5c-0.8,0.5-1.4,1.1-2.1,1.5c-0.6,0.5-1.4,0.9-2,1.4s-1.4,0.9-2,1.5c-0.6,0.5-1.7,1.1-2.1,1.4
			c-0.5,0.3-0.3,0.2-0.5,0.3c-0.3,0.2-0.3,0.3-0.5,0.5c-0.2,0.2-0.3,0.2-0.5,0.3c-0.2,0.2-0.6-0.2-0.6,0c-0.3,0.3-0.3,0.8-0.8,0.9
			c-0.5,0.2-0.6,0.2-1.1,0.5c-0.6,0.3-1.5,0.8-2.1,1.2c-0.6,0.3-1.5,0.9-2.1,1.2c-0.6,0.3-1.1,0.6-1.7,0.9s-1.1,0.5-1.7,0.8
			c-0.6,0.2-1.2,0.5-1.7,0.8c-0.5,0.3-1.2,0.5-1.7,0.5c-0.5,0,0,0-0.5,0.3c-0.5,0.3-1.2,0.9-2,1.1c-0.8,0.2-1.4,0.5-2.1,0.6
			c-0.8,0.2-1.4,0.5-2.1,0.8c-0.6,0.3-1.5,0.6-2.1,0.8c-0.6,0.2-0.9,0.2-1.4,0.3c-0.6,0.2-0.8,0.2-1.4,0.5c-0.6,0.3-1.7,0.6-2.4,0.6
			c-0.6,0-1.4,0.2-2.1,0.3c-2.6-0.2-5.2-0.5-7.6-1.1c-0.2,0-0.5-0.2-0.6-0.2c-6.7-1.5-12.8-4.6-15.7-10.2c-0.2-0.3-0.3-0.5-0.5-0.5
			c0-0.2,0-0.3-0.2-0.5c-0.3-0.3-0.6-0.6-0.8-0.9c-0.9-1.4-1.4-3.4-2-5c-0.5-1.1-0.8-2.1-0.9-3.4v1.4c0,0.5,0,0.9-0.2,1.4
			c-0.2,0.5-0.2,0.9,0,1.5c0.2,1.5,0.5,2.9,0.8,4.4c0.3,1.4,0.8,2.9,1.2,4.3c0.2,0.6,0.5,1.2,0.6,2c0.3,0.8,0.5,1.1,0.8,1.8
			c0.3,0.8,0.8,2,1.2,2.9c0.5,0.9,0.9,1.8,1.7,2.6c0.2,0.2,0.2,0.3,0.2,0.5c0,0.2,0.2,0.3,0.2,0.5c0.5,0.6,0.9,1.4,1.4,1.8
			c0.3,0.6,0.9,1.4,1.2,1.8c0.3,0.5,0.3,0.6,0.6,0.9c0.3,0.3,0.5,0.3,0.6,0.6c0.2,0.2,0.2,0.5,0.3,0.8c0.2,0.3,0,0.3,0.3,0.6
			l1.4,1.4c0.3,0.5,0.8,0.8,1.4,1.1s1.4,0.9,2,1.2s1.5,0.8,2,1.1c0.5,0.3,0.8,0.3,1.2,0.5c0.5,0.2,0.6,0.3,0.9,0.6s0.6,0.5,1.1,0.5
			c0.5,0.2,0.5,0.2,1.1,0.3c0.6,0.2,1.5,0.3,2.3,0.5c0.8,0,1.7,0.2,2.4,0c0.8,0,1.2,0,1.8-0.2c0.6-0.2,1.1-0.2,1.7-0.2
			s1.1-0.2,1.5-0.2c0.6,0,1.1-0.2,1.5-0.5c0.5-0.3,1.2-0.5,1.7-0.5c0.5,0,0.6-0.2,1.1-0.3c0.5-0.2,0.6-0.3,1.1-0.6l1.4-0.9
			c0.5-0.3,0.9-0.3,1.5-0.2c0.6,0.2,1.4,0,2-0.2c0.6-0.2,1.4-0.6,2-0.9c0.6-0.3,1.1-0.6,1.8-0.8c0.8-0.2,1.4-0.9,1.8-1.4
			c0.3-0.3,0.6,0.2,0.9,0s0.8-0.5,0.9-0.8c0.3-0.2,0.3-0.3,0.5-0.5c0.3-0.2,0.2-0.2,0.6-0.3c0.5-0.2,1.5-0.5,2-0.8
			c0.5-0.3,1.4-0.9,1.7-1.2l0.5-0.5c0.3-0.2,0.2-0.2,0.5-0.2c0.3,0,0.8,0,1.1-0.3c0.3-0.3,0.6-0.5,0.9-0.8c0.3-0.3,0.6-0.5,1.1-0.5
			c0.3,0,0.3,0,0.6-0.2s0.9-0.5,1.2-0.8c0.3-0.3,1.1-0.8,1.1-1.1c0.2-0.3-0.9-0.6-0.8-0.8c0.3-0.2,1.1-0.6,1.4-0.8
			c0.3-0.2,0.2,0.9,0.5,0.8c0.5-0.2,1.1-0.5,1.7-0.5s1.1-0.6,1.5-1.1l0.3-0.3l1.8-0.9c0.6-0.3,1.4-0.9,1.8-1.5
			c0-0.2,0.2-0.2,0.3-0.2c1.2-0.5,2.4-1.4,3.4-2.4c0.5-0.5,1.1-0.6,1.5-0.8c0.5-0.3,0.2-0.6,0.8-1.1c0.6-0.5,2-1.7,2.4-2.1
			c0.6-0.5,0.6-0.8,1.1-1.1c0.5-0.5,0.6-0.8,1.1-1.1c0.5-0.3,0.8-0.6,1.2-0.9s0.9-0.6,1.2-0.9c0.5-0.3,0.8-0.8,1.1-1.2
			s0.6-0.9,1.1-1.4c0.3-0.3,0.2-0.3,0.6-0.5c0.5-0.3,1.4-0.8,1.8-1.2c0.5-0.6,1.2-1.2,1.7-1.8c0.5-0.5,0.6-0.9,0.9-1.4
			s0.6-0.8,0.9-1.2c1.7-1.8,2.9-3.8,4-6.3c0.3-0.6,0.6-1.5,1.1-2.1c0.3-0.6,0.8-1.5,0.9-2c0.3-0.6,0.3-0.8,0.5-1.2
			c0-0.2,0-0.2,0.2-0.3C623.8,248.3,619.3,238.7,612.1,232"/>
		<path class="st1" d="M596.4,325c-5,0.6-10.7,1.4-15.7,0.9c-0.2,0-0.3-0.2-0.5-0.2c-0.6,0-1.1,0.2-1.7,0.2
			c-0.9,0.2-1.5,0.5-2.4,0.6c-0.9,0.2-2.1,0.5-3.2,0.5c-1.1,0.2-2.3-0.2-3.5-0.5c-0.3-0.2-0.5-0.2-0.8,0h-1.5
			c-3.8-0.8-7.8-0.2-11.9-0.2c-6.9,0.2-13.7-0.9-20.4-1.7c-0.3,0-0.5,0-0.6,0.2h-0.5c-0.6-0.2-1.1-0.2-1.5-0.3
			c-1.4-0.3-2.3-0.6-3.5-0.9l-2.7-0.9c-10.5-1.2-20.7-4.1-29.1-10.8c-6.1-4.9-11.4-9.6-12.7-17.7v-0.6c-3.7-6.4-3.8-13.1-2.6-19.8
			c0,0.2,0,0.2-0.2,0.3v0.3c-0.3,0.9-0.8,1.8-1.1,2.9c0.3,3.7-1.4,7.3-1.5,11c-0.2,3.4,0,6.7,0.2,10.2c0.3,0.3,0.6,0.8,0.3,1.2
			c-0.2,0.3-0.2,0.5-0.2,0.8c0,0.2,0.2,0.5,0.2,0.6c0.2,0.5,0.5,1.1,0.6,1.5s0.2,0.8,0.3,1.1c0,0.3,0.2,0.5,0.3,0.8
			c0.8,1.4,1.5,2.9,2.3,4.4c0.2,0.3,0.3,0.5,0.5,0.8c-0.3,0.3-0.5,0.8-0.2,1.2c1.8,2.9,3.8,5.6,6.1,8.1c0.8,1.4,1.8,2.3,3,3.4
			c2.1,1.7,3.7,3.7,5.6,5.5c3.8,3.5,9.9,5.2,14.6,7.3c0.5,0.2,0.8,0.2,1.1-0.2c0.2,0,0.2,0.2,0.3,0.2c0.9,0.5,2,0.9,3,1.2
			c0.9,0.5,1.8,0.9,2.7,1.2c0.3,0.2,0.5,0.2,0.6,0c0.3-0.2,0.6-0.3,0.9-0.2c0.3,0.2,0.6,0.5,0.9,0.5c0.3,0.2,0.6,0.2,1.1,0.3
			c0.5,0.2,0.6,0.2,1.1,0.3c0.6,0.2,1.7,0.5,2.3,0.6c0.6,0.2,1.7,0.2,2.3,0.3c0.6,0,0.8,0.3,1.2,0.6c0.5,0.3,0.8,0.5,1.2,0.5
			c0.6,0,1.4,0,2,0.2c0.6,0.2,1.2,0.3,1.8,0.3c0.6,0,0.9,0,1.5,0.3c0.6,0.2,0.8-0.5,1.1-0.8c0.2-0.2,0.8,0.3,1.2,0.3
			c0.3,0,0.6,0.3,1.2,0.3c0.5,0,1.5,0.2,2.1,0.2c0.6,0.2,1.7,0.2,2.1,0.2c0.6,0,0.9,0.2,1.4,0.2c0.5,0,0.9,0.2,1.1,0.2
			c0.2-0.2,0-0.8-0.2-0.9c-0.2-0.2-0.5-0.2-0.6-0.2h-0.8c-0.2,0-0.5-0.3-0.3-0.5c0.2-0.2,0.8,0,1.2,0c0.3,0,0.5,0,0.9,0.3
			s1.2,0.9,1.8,0.9c0.5,0,0.8,0.2,1.2,0.2c1.2-0.3,2.6-0.6,3.8-0.9c0.9-0.2,2,0,2.9-0.2c0.2-0.2,2,0,2.1,0c0,0,10.5-1.7,6.9-1.4
			c5.8-1.2,6.6-1.1,12.2-3c6.7-2.4,10.8-3.5,17.2-6.3c4-1.7,8.2-4,12-6.6C604,324.1,600.2,324.6,596.4,325 M568,230
			c1.4-0.6,2.7-1.1,4-1.1c0.2,0,0.2-0.2,0.3-0.2v-0.2c0-0.2,0.2-0.3,0.2-0.5c0-0.3,0.2-0.5,0.2-0.8c0.2-0.3,0.3-0.5,0.6-0.6
			c0.6-1.4,1.4-2.7,1.8-4.3c0.2-0.3,0.3-0.5,0.6-0.6c0.5-1.1,0.9-2.4,1.2-3.5c0.2-0.9,0.2-2-0.9-2.6c-0.5-0.3-2.9,0.5-3.8,0
			c-0.9-0.3-2.6,0-3.5-0.3c-0.9-0.3-2.3,0-2.9-0.2c-0.6-0.2-1.5,0-1.5,0s-1.1,0.2-1.8,0c-0.8-0.2-0.8,0.3-1.5,0.2
			c-0.8,0-1.7-0.2-2.4-0.2H556c-0.5,0-0.3,0-0.6-0.2c-0.3-0.2-0.2-0.2-0.6,0H550c-0.3,0-0.5-0.2-0.6-0.2c-0.2,0-0.5-0.2-0.6-0.2
			c-3.8-0.8-7.6-0.9-11.4-1.5c-0.5-0.2-1.1-0.2-1.5-0.3c-0.3,0.2-0.5,0.2-0.6,0.2c-0.2,0,0-0.2,0-0.3c-1.4-0.3-2.6-0.5-4-0.8H531
			c-0.8-0.2-1.4-0.2-2.1-0.3c-0.2,0-0.3,0-0.5-0.2h-0.3c-0.9,0-1.8-0.2-2.6-0.2c-0.2,0.2-0.2,0.3-0.3,0.3c-0.2,0-0.2,0-0.3-0.2v-0.3
			c-0.5,0-0.8-0.2-1.2-0.3c-0.3,0.2-0.8,0.3-0.9,0.3c-0.3,0-0.2-0.6,0.2-0.8h-0.8l-0.2,0.2c-0.3,0.2-0.6,0-0.9,0
			c-0.3-0.2-0.9-0.2-1.2,0c-0.3,0-1.1,0.3-1.4,0.2c-0.2,0,0.2-0.5,0-0.6h-0.9c0,0-0.2,0-0.2,0.2c-0.3,0.2-0.6,0.5-1.1,0.5h-1.1
			c-0.3,0-0.9-0.3-1.2-0.3c-0.3,0-0.3,0.2-0.5,0.3c-0.2,0-0.5,0.5-0.6,0.5c-0.2,0-0.2-0.6-0.3-0.8v-0.2c-0.3,0-0.8-0.2-1.1-0.2
			c-0.2,0-0.3-0.2-0.5-0.3c-0.6,0-1.1,0.2-1.7,0.2c-0.9,0-2,0.3-2.9,0.5c0-0.2,0.2-0.3,0.3-0.3c-2.6,0.6-5,0.9-7.6,1.4
			c-0.2,0.2,0,0.5-0.2,0.6c-0.2,0-0.5-0.2-0.6-0.2s-0.3-0.2-0.3-0.2c-2.1,0.5-4.4,0.9-6.4,1.8c-4.1,1.7-7.5,4.9-10.5,8.2v0.2
			c-0.2,0.6-0.5,1.2-0.9,1.8c-0.3,0.6-0.5,1.4-0.5,2c0,0.6-0.2,0.8-0.3,1.1c-0.2,0.5-0.3,0.8-0.3,1.1c-0.3,2.1-0.3,3.8,0.5,5.9
			s2.1,4,3.8,5.6l0.6,0.6c0.3,0.2,0.6,0.6,0.8,0.8c0.2,0,0.3,0.5,0.3,0.5l0.3,0.2c0.8,0.8,1.7,1.5,2.6,2.1c0.6,0.5,1.4-0.2,1.5-0.9
			c0.2-1.7,0.2-3.5,0.3-5.2c0.6-1.8,1.8-3.8,2.7-5c1.4-1.8,3.4-3.5,5.3-4.7c0.6-0.3,1.1-0.5,1.7-0.8c0.2-0.2,0.3-0.2,0.6-0.2
			c0.2,0,0.3,0,0.6-0.2c0.3-0.2,0.6-0.5,0.9-0.6s0.9-0.6,1.2-0.8c0,0,0.3-0.3,1.2-0.5l3.7-0.9c0.3-0.2,0.6,0.2,1.1,0
			c0.2-0.2,0.3-0.3,0.6-0.3c0.5-0.2,1.1-0.2,1.7-0.2c0.8-0.2,1.7-0.2,2.6-0.3c0.6-0.2,1.7,0.2,2,0c0.5-0.2,0.6-0.2,0.9-0.2
			c0.2,0,0.3,0.2,0.5,0.3c1.7,0.2,3.4,0.3,4.9,0.5h0.3c0.2,0,0.3,0,0.6,0.2h0.5c0.3,0,0.5,0,0.8,0.2c5.2,0.2,10.5,0.8,14.8,2.7
			c1.5,0.3,2.9,1.1,4.3,1.4c0.2,0,0.3,0.2,0.5,0.2c1.5,0.3,3.2,0.6,4.7,0.9c1.5,0.3,3,0.5,4.6,0.8c1.5,0.2,3.2,0.5,4.6,0.6
			c1.4,0.2,2.4,0.5,3.7,0.6h0.2c0.2-0.2,0.5-0.3,0.8-0.3c0.8,0,1.5,0.2,2.1,0.2C565.4,230.7,566.7,230.3,568,230"/>
	</g>
</g>
</svg>
